{"glyphs":{"0":{"ha":1407,"x_min":69,"x_max":1338,"o":"m 357 514 q 347 569 347 539 l 347 715 q 357 771 347 742 q 370 792 363 782 q 388 811 378 803 q 431 838 407 829 q 481 847 454 847 q 532 838 507 847 q 576 811 557 829 q 606 768 597 796 q 615 715 615 740 l 615 569 q 577 474 615 511 q 481 436 539 436 q 431 444 454 436 q 388 472 407 453 q 357 514 368 489 m 492 1258 q 546 1250 525 1258 q 624 1132 624 1214 q 557 1019 624 1056 l 631 865 l 531 865 l 467 1007 l 444 1007 l 444 865 l 353 865 l 353 1258 l 492 1258 m 760 839 l 850 628 l 850 839 l 938 839 l 938 446 l 846 446 l 754 660 l 754 446 l 667 446 l 667 839 l 760 839 m 886 1258 l 1006 1258 l 1089 865 l 999 865 l 986 929 l 906 929 l 893 865 l 803 865 l 886 1258 m 1313 1356 l 1313 1301 l 79 1301 l 79 1356 l 1313 1356 m 1313 408 l 1313 357 l 79 357 l 79 408 l 1313 408 m 92 839 l 315 839 l 315 750 l 182 750 l 182 679 l 301 679 l 301 592 l 182 592 l 182 446 l 92 446 l 92 839 m 975 750 l 975 839 l 1219 839 l 1219 750 l 1143 750 l 1143 446 l 1051 446 l 1051 750 l 975 750 m 69 1258 l 313 1258 l 313 1171 l 238 1171 l 238 865 l 146 865 l 146 1171 l 69 1171 l 69 1258 m 1132 1258 l 1222 1258 l 1222 953 l 1338 953 l 1338 865 l 1132 865 l 1132 1258 m 760 1258 l 760 865 l 669 865 l 669 1258 l 760 1258 m 876 197 q 894 252 876 232 q 939 272 913 272 q 983 251 969 272 l 983 335 l 1008 335 l 1008 165 q 1008 147 1008 156 q 1010 129 1008 138 l 986 129 l 985 154 q 938 128 972 128 q 894 147 911 128 q 876 197 876 165 m 439 569 q 481 525 439 525 q 522 567 522 525 l 522 715 q 510 747 522 736 q 481 760 497 760 q 451 747 464 760 q 439 715 439 736 l 439 569 m 1107 197 q 1127 253 1107 233 q 1178 272 1147 272 q 1225 253 1207 272 q 1243 201 1243 233 q 1222 144 1243 161 q 1175 128 1200 128 q 1127 147 1147 128 q 1107 197 1107 165 m 775 128 q 742 139 758 128 q 726 189 726 150 l 726 269 l 753 269 l 753 192 q 783 149 753 149 q 809 159 799 149 q 819 185 819 169 l 819 269 l 844 269 l 844 167 q 845 149 844 158 q 846 129 846 139 l 824 129 l 821 151 q 806 135 818 143 q 775 128 794 128 m 1133 200 q 1144 161 1133 176 q 1175 146 1156 146 q 1206 161 1194 146 q 1217 200 1217 176 q 1208 235 1217 218 q 1175 253 1199 253 q 1144 237 1154 253 q 1133 200 1133 221 m 944 253 q 913 238 924 253 q 903 200 903 222 q 913 163 903 179 q 943 146 922 146 q 967 153 957 146 q 981 176 978 161 q 982 183 981 181 q 983 189 983 185 l 983 213 q 982 219 983 217 q 981 222 981 221 q 944 253 974 253 m 260 10 q 282 65 260 46 q 331 83 304 83 q 379 65 361 83 q 397 13 397 46 q 375 -43 397 -25 q 328 -61 353 -61 q 281 -42 301 -61 q 260 10 260 -24 m 218 297 l 218 318 l 336 318 l 336 300 l 254 129 l 228 129 l 310 297 l 218 297 m 485 318 l 485 300 l 403 129 l 376 129 l 458 297 l 364 297 l 364 318 l 485 318 m 515 156 q 547 146 528 146 q 576 167 576 146 q 549 192 576 181 q 513 232 513 206 q 525 260 513 249 q 561 272 538 272 q 594 264 579 272 l 589 246 q 561 253 578 253 q 536 233 536 253 q 542 221 536 225 q 563 211 549 217 q 600 169 600 196 q 547 128 600 128 q 507 138 526 128 l 515 156 m 486 1086 q 528 1128 528 1086 q 486 1171 528 1171 l 444 1171 l 444 1086 l 486 1086 m 615 269 l 639 269 l 639 303 l 664 310 l 664 269 l 700 269 l 700 251 l 664 251 l 664 175 q 682 149 664 149 q 697 150 693 149 l 697 131 q 675 128 690 128 q 645 141 651 128 q 639 175 639 154 l 639 251 l 615 251 l 615 269 m 122 318 l 146 318 l 146 129 l 121 129 l 121 293 l 86 276 l 83 294 l 122 318 m 429 42 q 429 63 429 53 q 428 82 429 72 l 449 82 l 449 57 q 466 76 456 68 q 496 83 476 83 q 533 57 521 83 q 549 74 539 64 q 582 83 561 83 q 611 72 594 83 q 628 25 628 61 l 628 -60 l 600 -60 l 600 22 q 572 64 600 64 q 552 56 561 64 q 542 40 543 49 q 540 34 542 36 q 539 26 539 32 l 539 -60 l 515 -60 l 515 25 q 486 64 515 64 q 467 56 475 64 q 456 40 458 49 q 454 25 454 35 l 454 -60 l 429 -60 l 429 42 m 921 1013 l 972 1013 l 944 1151 l 921 1013 m 1050 129 l 1050 269 l 1075 269 l 1075 129 l 1050 129 m 328 67 q 297 49 307 67 q 286 10 286 31 q 298 -28 286 -11 q 328 -44 310 -44 q 359 -28 347 -44 q 371 13 371 -11 q 361 49 371 31 q 328 67 351 67 m 138 10 q 158 63 138 42 q 210 83 178 83 q 244 74 235 83 l 240 57 q 228 61 238 58 q 210 64 219 64 q 172 48 186 64 q 158 10 158 32 q 174 -26 158 -11 q 210 -42 189 -42 q 228 -39 219 -42 q 240 -35 238 -36 l 243 -51 q 229 -58 239 -56 q 207 -61 219 -61 q 156 -42 174 -61 q 138 10 138 -24 m 1063 293 q 1046 308 1046 293 q 1063 325 1046 325 q 1078 308 1078 325 q 1063 293 1078 293 m 99 -61 q 85 -56 89 -61 q 81 -44 81 -50 q 99 -26 81 -26 q 115 -44 115 -26 q 110 -56 115 -50 q 99 -61 106 -61 z "},"1":{"ha":800,"x_min":8,"x_max":743,"o":"m 442 901 q 267 753 369 801 q 56 704 165 704 q 19 719 29 704 q 8 747 8 735 q 14 768 8 758 q 31 789 18 781 q 57 797 43 797 q 75 793 64 797 l 147 763 q 199 751 181 751 q 265 782 239 751 q 312 860 290 813 q 358 964 333 907 q 419 1074 382 1021 l 601 1325 q 664 1357 626 1357 q 719 1335 696 1357 q 743 1281 743 1313 l 743 0 l 624 0 l 624 1156 l 442 901 z "},"2":{"ha":1407,"x_min":69,"x_max":1338,"o":"m 357 514 q 347 569 347 539 l 347 715 q 357 771 347 742 q 370 792 363 782 q 388 811 378 803 q 431 838 407 829 q 481 847 454 847 q 532 838 507 847 q 576 811 557 829 q 606 768 597 796 q 615 715 615 740 l 615 569 q 577 474 615 511 q 481 436 539 436 q 431 444 454 436 q 388 472 407 453 q 357 514 368 489 m 492 1258 q 546 1250 525 1258 q 624 1132 624 1214 q 557 1019 624 1056 l 631 865 l 531 865 l 467 1007 l 444 1007 l 444 865 l 353 865 l 353 1258 l 492 1258 m 760 839 l 850 628 l 850 839 l 938 839 l 938 446 l 846 446 l 754 660 l 754 446 l 667 446 l 667 839 l 760 839 m 886 1258 l 1006 1258 l 1089 865 l 999 865 l 986 929 l 906 929 l 893 865 l 803 865 l 886 1258 m 1313 1356 l 1313 1301 l 79 1301 l 79 1356 l 1313 1356 m 1313 408 l 1313 357 l 79 357 l 79 408 l 1313 408 m 92 839 l 315 839 l 315 750 l 182 750 l 182 679 l 301 679 l 301 592 l 182 592 l 182 446 l 92 446 l 92 839 m 975 750 l 975 839 l 1219 839 l 1219 750 l 1143 750 l 1143 446 l 1051 446 l 1051 750 l 975 750 m 69 1258 l 313 1258 l 313 1171 l 238 1171 l 238 865 l 146 865 l 146 1171 l 69 1171 l 69 1258 m 1132 1258 l 1222 1258 l 1222 953 l 1338 953 l 1338 865 l 1132 865 l 1132 1258 m 760 1258 l 760 865 l 669 865 l 669 1258 l 760 1258 m 876 197 q 894 252 876 232 q 939 272 913 272 q 983 251 969 272 l 983 335 l 1008 335 l 1008 165 q 1008 147 1008 156 q 1010 129 1008 138 l 986 129 l 985 154 q 938 128 972 128 q 894 147 911 128 q 876 197 876 165 m 439 569 q 481 525 439 525 q 522 567 522 525 l 522 715 q 510 747 522 736 q 481 760 497 760 q 451 747 464 760 q 439 715 439 736 l 439 569 m 1107 197 q 1127 253 1107 233 q 1178 272 1147 272 q 1225 253 1207 272 q 1243 201 1243 233 q 1222 144 1243 161 q 1175 128 1200 128 q 1127 147 1147 128 q 1107 197 1107 165 m 775 128 q 742 139 758 128 q 726 189 726 150 l 726 269 l 753 269 l 753 192 q 783 149 753 149 q 809 159 799 149 q 819 185 819 169 l 819 269 l 844 269 l 844 167 q 845 149 844 158 q 846 129 846 139 l 824 129 l 821 151 q 806 135 818 143 q 775 128 794 128 m 1133 200 q 1144 161 1133 176 q 1175 146 1156 146 q 1206 161 1194 146 q 1217 200 1217 176 q 1208 235 1217 218 q 1175 253 1199 253 q 1144 237 1154 253 q 1133 200 1133 221 m 944 253 q 913 238 924 253 q 903 200 903 222 q 913 163 903 179 q 943 146 922 146 q 967 153 957 146 q 981 176 978 161 q 982 183 981 181 q 983 189 983 185 l 983 213 q 982 219 983 217 q 981 222 981 221 q 944 253 974 253 m 260 10 q 282 65 260 46 q 331 83 304 83 q 379 65 361 83 q 397 13 397 46 q 375 -43 397 -25 q 328 -61 353 -61 q 281 -42 301 -61 q 260 10 260 -24 m 218 297 l 218 318 l 336 318 l 336 300 l 254 129 l 228 129 l 310 297 l 218 297 m 485 318 l 485 300 l 403 129 l 376 129 l 458 297 l 364 297 l 364 318 l 485 318 m 515 156 q 547 146 528 146 q 576 167 576 146 q 549 192 576 181 q 513 232 513 206 q 525 260 513 249 q 561 272 538 272 q 594 264 579 272 l 589 246 q 561 253 578 253 q 536 233 536 253 q 542 221 536 225 q 563 211 549 217 q 600 169 600 196 q 547 128 600 128 q 507 138 526 128 l 515 156 m 486 1086 q 528 1128 528 1086 q 486 1171 528 1171 l 444 1171 l 444 1086 l 486 1086 m 615 269 l 639 269 l 639 303 l 664 310 l 664 269 l 700 269 l 700 251 l 664 251 l 664 175 q 682 149 664 149 q 697 150 693 149 l 697 131 q 675 128 690 128 q 645 141 651 128 q 639 175 639 154 l 639 251 l 615 251 l 615 269 m 122 318 l 146 318 l 146 129 l 121 129 l 121 293 l 86 276 l 83 294 l 122 318 m 429 42 q 429 63 429 53 q 428 82 429 72 l 449 82 l 449 57 q 466 76 456 68 q 496 83 476 83 q 533 57 521 83 q 549 74 539 64 q 582 83 561 83 q 611 72 594 83 q 628 25 628 61 l 628 -60 l 600 -60 l 600 22 q 572 64 600 64 q 552 56 561 64 q 542 40 543 49 q 540 34 542 36 q 539 26 539 32 l 539 -60 l 515 -60 l 515 25 q 486 64 515 64 q 467 56 475 64 q 456 40 458 49 q 454 25 454 35 l 454 -60 l 429 -60 l 429 42 m 921 1013 l 972 1013 l 944 1151 l 921 1013 m 1050 129 l 1050 269 l 1075 269 l 1075 129 l 1050 129 m 328 67 q 297 49 307 67 q 286 10 286 31 q 298 -28 286 -11 q 328 -44 310 -44 q 359 -28 347 -44 q 371 13 371 -11 q 361 49 371 31 q 328 67 351 67 m 138 10 q 158 63 138 42 q 210 83 178 83 q 244 74 235 83 l 240 57 q 228 61 238 58 q 210 64 219 64 q 172 48 186 64 q 158 10 158 32 q 174 -26 158 -11 q 210 -42 189 -42 q 228 -39 219 -42 q 240 -35 238 -36 l 243 -51 q 229 -58 239 -56 q 207 -61 219 -61 q 156 -42 174 -61 q 138 10 138 -24 m 1063 293 q 1046 308 1046 293 q 1063 325 1046 325 q 1078 308 1078 325 q 1063 293 1078 293 m 99 -61 q 85 -56 89 -61 q 81 -44 81 -50 q 99 -26 81 -26 q 115 -44 115 -26 q 110 -56 115 -50 q 99 -61 106 -61 z "},"3":{"ha":1407,"x_min":69,"x_max":1338,"o":"m 357 514 q 347 569 347 539 l 347 715 q 357 771 347 742 q 370 792 363 782 q 388 811 378 803 q 431 838 407 829 q 481 847 454 847 q 532 838 507 847 q 576 811 557 829 q 606 768 597 796 q 615 715 615 740 l 615 569 q 577 474 615 511 q 481 436 539 436 q 431 444 454 436 q 388 472 407 453 q 357 514 368 489 m 492 1258 q 546 1250 525 1258 q 624 1132 624 1214 q 557 1019 624 1056 l 631 865 l 531 865 l 467 1007 l 444 1007 l 444 865 l 353 865 l 353 1258 l 492 1258 m 760 839 l 850 628 l 850 839 l 938 839 l 938 446 l 846 446 l 754 660 l 754 446 l 667 446 l 667 839 l 760 839 m 886 1258 l 1006 1258 l 1089 865 l 999 865 l 986 929 l 906 929 l 893 865 l 803 865 l 886 1258 m 1313 1356 l 1313 1301 l 79 1301 l 79 1356 l 1313 1356 m 1313 408 l 1313 357 l 79 357 l 79 408 l 1313 408 m 92 839 l 315 839 l 315 750 l 182 750 l 182 679 l 301 679 l 301 592 l 182 592 l 182 446 l 92 446 l 92 839 m 975 750 l 975 839 l 1219 839 l 1219 750 l 1143 750 l 1143 446 l 1051 446 l 1051 750 l 975 750 m 69 1258 l 313 1258 l 313 1171 l 238 1171 l 238 865 l 146 865 l 146 1171 l 69 1171 l 69 1258 m 1132 1258 l 1222 1258 l 1222 953 l 1338 953 l 1338 865 l 1132 865 l 1132 1258 m 760 1258 l 760 865 l 669 865 l 669 1258 l 760 1258 m 876 197 q 894 252 876 232 q 939 272 913 272 q 983 251 969 272 l 983 335 l 1008 335 l 1008 165 q 1008 147 1008 156 q 1010 129 1008 138 l 986 129 l 985 154 q 938 128 972 128 q 894 147 911 128 q 876 197 876 165 m 439 569 q 481 525 439 525 q 522 567 522 525 l 522 715 q 510 747 522 736 q 481 760 497 760 q 451 747 464 760 q 439 715 439 736 l 439 569 m 1107 197 q 1127 253 1107 233 q 1178 272 1147 272 q 1225 253 1207 272 q 1243 201 1243 233 q 1222 144 1243 161 q 1175 128 1200 128 q 1127 147 1147 128 q 1107 197 1107 165 m 775 128 q 742 139 758 128 q 726 189 726 150 l 726 269 l 753 269 l 753 192 q 783 149 753 149 q 809 159 799 149 q 819 185 819 169 l 819 269 l 844 269 l 844 167 q 845 149 844 158 q 846 129 846 139 l 824 129 l 821 151 q 806 135 818 143 q 775 128 794 128 m 1133 200 q 1144 161 1133 176 q 1175 146 1156 146 q 1206 161 1194 146 q 1217 200 1217 176 q 1208 235 1217 218 q 1175 253 1199 253 q 1144 237 1154 253 q 1133 200 1133 221 m 944 253 q 913 238 924 253 q 903 200 903 222 q 913 163 903 179 q 943 146 922 146 q 967 153 957 146 q 981 176 978 161 q 982 183 981 181 q 983 189 983 185 l 983 213 q 982 219 983 217 q 981 222 981 221 q 944 253 974 253 m 260 10 q 282 65 260 46 q 331 83 304 83 q 379 65 361 83 q 397 13 397 46 q 375 -43 397 -25 q 328 -61 353 -61 q 281 -42 301 -61 q 260 10 260 -24 m 218 297 l 218 318 l 336 318 l 336 300 l 254 129 l 228 129 l 310 297 l 218 297 m 485 318 l 485 300 l 403 129 l 376 129 l 458 297 l 364 297 l 364 318 l 485 318 m 515 156 q 547 146 528 146 q 576 167 576 146 q 549 192 576 181 q 513 232 513 206 q 525 260 513 249 q 561 272 538 272 q 594 264 579 272 l 589 246 q 561 253 578 253 q 536 233 536 253 q 542 221 536 225 q 563 211 549 217 q 600 169 600 196 q 547 128 600 128 q 507 138 526 128 l 515 156 m 486 1086 q 528 1128 528 1086 q 486 1171 528 1171 l 444 1171 l 444 1086 l 486 1086 m 615 269 l 639 269 l 639 303 l 664 310 l 664 269 l 700 269 l 700 251 l 664 251 l 664 175 q 682 149 664 149 q 697 150 693 149 l 697 131 q 675 128 690 128 q 645 141 651 128 q 639 175 639 154 l 639 251 l 615 251 l 615 269 m 122 318 l 146 318 l 146 129 l 121 129 l 121 293 l 86 276 l 83 294 l 122 318 m 429 42 q 429 63 429 53 q 428 82 429 72 l 449 82 l 449 57 q 466 76 456 68 q 496 83 476 83 q 533 57 521 83 q 549 74 539 64 q 582 83 561 83 q 611 72 594 83 q 628 25 628 61 l 628 -60 l 600 -60 l 600 22 q 572 64 600 64 q 552 56 561 64 q 542 40 543 49 q 540 34 542 36 q 539 26 539 32 l 539 -60 l 515 -60 l 515 25 q 486 64 515 64 q 467 56 475 64 q 456 40 458 49 q 454 25 454 35 l 454 -60 l 429 -60 l 429 42 m 921 1013 l 972 1013 l 944 1151 l 921 1013 m 1050 129 l 1050 269 l 1075 269 l 1075 129 l 1050 129 m 328 67 q 297 49 307 67 q 286 10 286 31 q 298 -28 286 -11 q 328 -44 310 -44 q 359 -28 347 -44 q 371 13 371 -11 q 361 49 371 31 q 328 67 351 67 m 138 10 q 158 63 138 42 q 210 83 178 83 q 244 74 235 83 l 240 57 q 228 61 238 58 q 210 64 219 64 q 172 48 186 64 q 158 10 158 32 q 174 -26 158 -11 q 210 -42 189 -42 q 228 -39 219 -42 q 240 -35 238 -36 l 243 -51 q 229 -58 239 -56 q 207 -61 219 -61 q 156 -42 174 -61 q 138 10 138 -24 m 1063 293 q 1046 308 1046 293 q 1063 325 1046 325 q 1078 308 1078 325 q 1063 293 1078 293 m 99 -61 q 85 -56 89 -61 q 81 -44 81 -50 q 99 -26 81 -26 q 115 -44 115 -26 q 110 -56 115 -50 q 99 -61 106 -61 z "},"4":{"ha":1407,"x_min":69,"x_max":1338,"o":"m 357 514 q 347 569 347 539 l 347 715 q 357 771 347 742 q 370 792 363 782 q 388 811 378 803 q 431 838 407 829 q 481 847 454 847 q 532 838 507 847 q 576 811 557 829 q 606 768 597 796 q 615 715 615 740 l 615 569 q 577 474 615 511 q 481 436 539 436 q 431 444 454 436 q 388 472 407 453 q 357 514 368 489 m 492 1258 q 546 1250 525 1258 q 624 1132 624 1214 q 557 1019 624 1056 l 631 865 l 531 865 l 467 1007 l 444 1007 l 444 865 l 353 865 l 353 1258 l 492 1258 m 760 839 l 850 628 l 850 839 l 938 839 l 938 446 l 846 446 l 754 660 l 754 446 l 667 446 l 667 839 l 760 839 m 886 1258 l 1006 1258 l 1089 865 l 999 865 l 986 929 l 906 929 l 893 865 l 803 865 l 886 1258 m 1313 1356 l 1313 1301 l 79 1301 l 79 1356 l 1313 1356 m 1313 408 l 1313 357 l 79 357 l 79 408 l 1313 408 m 92 839 l 315 839 l 315 750 l 182 750 l 182 679 l 301 679 l 301 592 l 182 592 l 182 446 l 92 446 l 92 839 m 975 750 l 975 839 l 1219 839 l 1219 750 l 1143 750 l 1143 446 l 1051 446 l 1051 750 l 975 750 m 69 1258 l 313 1258 l 313 1171 l 238 1171 l 238 865 l 146 865 l 146 1171 l 69 1171 l 69 1258 m 1132 1258 l 1222 1258 l 1222 953 l 1338 953 l 1338 865 l 1132 865 l 1132 1258 m 760 1258 l 760 865 l 669 865 l 669 1258 l 760 1258 m 876 197 q 894 252 876 232 q 939 272 913 272 q 983 251 969 272 l 983 335 l 1008 335 l 1008 165 q 1008 147 1008 156 q 1010 129 1008 138 l 986 129 l 985 154 q 938 128 972 128 q 894 147 911 128 q 876 197 876 165 m 439 569 q 481 525 439 525 q 522 567 522 525 l 522 715 q 510 747 522 736 q 481 760 497 760 q 451 747 464 760 q 439 715 439 736 l 439 569 m 1107 197 q 1127 253 1107 233 q 1178 272 1147 272 q 1225 253 1207 272 q 1243 201 1243 233 q 1222 144 1243 161 q 1175 128 1200 128 q 1127 147 1147 128 q 1107 197 1107 165 m 775 128 q 742 139 758 128 q 726 189 726 150 l 726 269 l 753 269 l 753 192 q 783 149 753 149 q 809 159 799 149 q 819 185 819 169 l 819 269 l 844 269 l 844 167 q 845 149 844 158 q 846 129 846 139 l 824 129 l 821 151 q 806 135 818 143 q 775 128 794 128 m 1133 200 q 1144 161 1133 176 q 1175 146 1156 146 q 1206 161 1194 146 q 1217 200 1217 176 q 1208 235 1217 218 q 1175 253 1199 253 q 1144 237 1154 253 q 1133 200 1133 221 m 944 253 q 913 238 924 253 q 903 200 903 222 q 913 163 903 179 q 943 146 922 146 q 967 153 957 146 q 981 176 978 161 q 982 183 981 181 q 983 189 983 185 l 983 213 q 982 219 983 217 q 981 222 981 221 q 944 253 974 253 m 260 10 q 282 65 260 46 q 331 83 304 83 q 379 65 361 83 q 397 13 397 46 q 375 -43 397 -25 q 328 -61 353 -61 q 281 -42 301 -61 q 260 10 260 -24 m 218 297 l 218 318 l 336 318 l 336 300 l 254 129 l 228 129 l 310 297 l 218 297 m 485 318 l 485 300 l 403 129 l 376 129 l 458 297 l 364 297 l 364 318 l 485 318 m 515 156 q 547 146 528 146 q 576 167 576 146 q 549 192 576 181 q 513 232 513 206 q 525 260 513 249 q 561 272 538 272 q 594 264 579 272 l 589 246 q 561 253 578 253 q 536 233 536 253 q 542 221 536 225 q 563 211 549 217 q 600 169 600 196 q 547 128 600 128 q 507 138 526 128 l 515 156 m 486 1086 q 528 1128 528 1086 q 486 1171 528 1171 l 444 1171 l 444 1086 l 486 1086 m 615 269 l 639 269 l 639 303 l 664 310 l 664 269 l 700 269 l 700 251 l 664 251 l 664 175 q 682 149 664 149 q 697 150 693 149 l 697 131 q 675 128 690 128 q 645 141 651 128 q 639 175 639 154 l 639 251 l 615 251 l 615 269 m 122 318 l 146 318 l 146 129 l 121 129 l 121 293 l 86 276 l 83 294 l 122 318 m 429 42 q 429 63 429 53 q 428 82 429 72 l 449 82 l 449 57 q 466 76 456 68 q 496 83 476 83 q 533 57 521 83 q 549 74 539 64 q 582 83 561 83 q 611 72 594 83 q 628 25 628 61 l 628 -60 l 600 -60 l 600 22 q 572 64 600 64 q 552 56 561 64 q 542 40 543 49 q 540 34 542 36 q 539 26 539 32 l 539 -60 l 515 -60 l 515 25 q 486 64 515 64 q 467 56 475 64 q 456 40 458 49 q 454 25 454 35 l 454 -60 l 429 -60 l 429 42 m 921 1013 l 972 1013 l 944 1151 l 921 1013 m 1050 129 l 1050 269 l 1075 269 l 1075 129 l 1050 129 m 328 67 q 297 49 307 67 q 286 10 286 31 q 298 -28 286 -11 q 328 -44 310 -44 q 359 -28 347 -44 q 371 13 371 -11 q 361 49 371 31 q 328 67 351 67 m 138 10 q 158 63 138 42 q 210 83 178 83 q 244 74 235 83 l 240 57 q 228 61 238 58 q 210 64 219 64 q 172 48 186 64 q 158 10 158 32 q 174 -26 158 -11 q 210 -42 189 -42 q 228 -39 219 -42 q 240 -35 238 -36 l 243 -51 q 229 -58 239 -56 q 207 -61 219 -61 q 156 -42 174 -61 q 138 10 138 -24 m 1063 293 q 1046 308 1046 293 q 1063 325 1046 325 q 1078 308 1078 325 q 1063 293 1078 293 m 99 -61 q 85 -56 89 -61 q 81 -44 81 -50 q 99 -26 81 -26 q 115 -44 115 -26 q 110 -56 115 -50 q 99 -61 106 -61 z "},"5":{"ha":1407,"x_min":69,"x_max":1338,"o":"m 357 514 q 347 569 347 539 l 347 715 q 357 771 347 742 q 370 792 363 782 q 388 811 378 803 q 431 838 407 829 q 481 847 454 847 q 532 838 507 847 q 576 811 557 829 q 606 768 597 796 q 615 715 615 740 l 615 569 q 577 474 615 511 q 481 436 539 436 q 431 444 454 436 q 388 472 407 453 q 357 514 368 489 m 492 1258 q 546 1250 525 1258 q 624 1132 624 1214 q 557 1019 624 1056 l 631 865 l 531 865 l 467 1007 l 444 1007 l 444 865 l 353 865 l 353 1258 l 492 1258 m 760 839 l 850 628 l 850 839 l 938 839 l 938 446 l 846 446 l 754 660 l 754 446 l 667 446 l 667 839 l 760 839 m 886 1258 l 1006 1258 l 1089 865 l 999 865 l 986 929 l 906 929 l 893 865 l 803 865 l 886 1258 m 1313 1356 l 1313 1301 l 79 1301 l 79 1356 l 1313 1356 m 1313 408 l 1313 357 l 79 357 l 79 408 l 1313 408 m 92 839 l 315 839 l 315 750 l 182 750 l 182 679 l 301 679 l 301 592 l 182 592 l 182 446 l 92 446 l 92 839 m 975 750 l 975 839 l 1219 839 l 1219 750 l 1143 750 l 1143 446 l 1051 446 l 1051 750 l 975 750 m 69 1258 l 313 1258 l 313 1171 l 238 1171 l 238 865 l 146 865 l 146 1171 l 69 1171 l 69 1258 m 1132 1258 l 1222 1258 l 1222 953 l 1338 953 l 1338 865 l 1132 865 l 1132 1258 m 760 1258 l 760 865 l 669 865 l 669 1258 l 760 1258 m 876 197 q 894 252 876 232 q 939 272 913 272 q 983 251 969 272 l 983 335 l 1008 335 l 1008 165 q 1008 147 1008 156 q 1010 129 1008 138 l 986 129 l 985 154 q 938 128 972 128 q 894 147 911 128 q 876 197 876 165 m 439 569 q 481 525 439 525 q 522 567 522 525 l 522 715 q 510 747 522 736 q 481 760 497 760 q 451 747 464 760 q 439 715 439 736 l 439 569 m 1107 197 q 1127 253 1107 233 q 1178 272 1147 272 q 1225 253 1207 272 q 1243 201 1243 233 q 1222 144 1243 161 q 1175 128 1200 128 q 1127 147 1147 128 q 1107 197 1107 165 m 775 128 q 742 139 758 128 q 726 189 726 150 l 726 269 l 753 269 l 753 192 q 783 149 753 149 q 809 159 799 149 q 819 185 819 169 l 819 269 l 844 269 l 844 167 q 845 149 844 158 q 846 129 846 139 l 824 129 l 821 151 q 806 135 818 143 q 775 128 794 128 m 1133 200 q 1144 161 1133 176 q 1175 146 1156 146 q 1206 161 1194 146 q 1217 200 1217 176 q 1208 235 1217 218 q 1175 253 1199 253 q 1144 237 1154 253 q 1133 200 1133 221 m 944 253 q 913 238 924 253 q 903 200 903 222 q 913 163 903 179 q 943 146 922 146 q 967 153 957 146 q 981 176 978 161 q 982 183 981 181 q 983 189 983 185 l 983 213 q 982 219 983 217 q 981 222 981 221 q 944 253 974 253 m 260 10 q 282 65 260 46 q 331 83 304 83 q 379 65 361 83 q 397 13 397 46 q 375 -43 397 -25 q 328 -61 353 -61 q 281 -42 301 -61 q 260 10 260 -24 m 218 297 l 218 318 l 336 318 l 336 300 l 254 129 l 228 129 l 310 297 l 218 297 m 485 318 l 485 300 l 403 129 l 376 129 l 458 297 l 364 297 l 364 318 l 485 318 m 515 156 q 547 146 528 146 q 576 167 576 146 q 549 192 576 181 q 513 232 513 206 q 525 260 513 249 q 561 272 538 272 q 594 264 579 272 l 589 246 q 561 253 578 253 q 536 233 536 253 q 542 221 536 225 q 563 211 549 217 q 600 169 600 196 q 547 128 600 128 q 507 138 526 128 l 515 156 m 486 1086 q 528 1128 528 1086 q 486 1171 528 1171 l 444 1171 l 444 1086 l 486 1086 m 615 269 l 639 269 l 639 303 l 664 310 l 664 269 l 700 269 l 700 251 l 664 251 l 664 175 q 682 149 664 149 q 697 150 693 149 l 697 131 q 675 128 690 128 q 645 141 651 128 q 639 175 639 154 l 639 251 l 615 251 l 615 269 m 122 318 l 146 318 l 146 129 l 121 129 l 121 293 l 86 276 l 83 294 l 122 318 m 429 42 q 429 63 429 53 q 428 82 429 72 l 449 82 l 449 57 q 466 76 456 68 q 496 83 476 83 q 533 57 521 83 q 549 74 539 64 q 582 83 561 83 q 611 72 594 83 q 628 25 628 61 l 628 -60 l 600 -60 l 600 22 q 572 64 600 64 q 552 56 561 64 q 542 40 543 49 q 540 34 542 36 q 539 26 539 32 l 539 -60 l 515 -60 l 515 25 q 486 64 515 64 q 467 56 475 64 q 456 40 458 49 q 454 25 454 35 l 454 -60 l 429 -60 l 429 42 m 921 1013 l 972 1013 l 944 1151 l 921 1013 m 1050 129 l 1050 269 l 1075 269 l 1075 129 l 1050 129 m 328 67 q 297 49 307 67 q 286 10 286 31 q 298 -28 286 -11 q 328 -44 310 -44 q 359 -28 347 -44 q 371 13 371 -11 q 361 49 371 31 q 328 67 351 67 m 138 10 q 158 63 138 42 q 210 83 178 83 q 244 74 235 83 l 240 57 q 228 61 238 58 q 210 64 219 64 q 172 48 186 64 q 158 10 158 32 q 174 -26 158 -11 q 210 -42 189 -42 q 228 -39 219 -42 q 240 -35 238 -36 l 243 -51 q 229 -58 239 -56 q 207 -61 219 -61 q 156 -42 174 -61 q 138 10 138 -24 m 1063 293 q 1046 308 1046 293 q 1063 325 1046 325 q 1078 308 1078 325 q 1063 293 1078 293 m 99 -61 q 85 -56 89 -61 q 81 -44 81 -50 q 99 -26 81 -26 q 115 -44 115 -26 q 110 -56 115 -50 q 99 -61 106 -61 z "},"6":{"ha":1407,"x_min":69,"x_max":1338,"o":"m 357 514 q 347 569 347 539 l 347 715 q 357 771 347 742 q 370 792 363 782 q 388 811 378 803 q 431 838 407 829 q 481 847 454 847 q 532 838 507 847 q 576 811 557 829 q 606 768 597 796 q 615 715 615 740 l 615 569 q 577 474 615 511 q 481 436 539 436 q 431 444 454 436 q 388 472 407 453 q 357 514 368 489 m 492 1258 q 546 1250 525 1258 q 624 1132 624 1214 q 557 1019 624 1056 l 631 865 l 531 865 l 467 1007 l 444 1007 l 444 865 l 353 865 l 353 1258 l 492 1258 m 760 839 l 850 628 l 850 839 l 938 839 l 938 446 l 846 446 l 754 660 l 754 446 l 667 446 l 667 839 l 760 839 m 886 1258 l 1006 1258 l 1089 865 l 999 865 l 986 929 l 906 929 l 893 865 l 803 865 l 886 1258 m 1313 1356 l 1313 1301 l 79 1301 l 79 1356 l 1313 1356 m 1313 408 l 1313 357 l 79 357 l 79 408 l 1313 408 m 92 839 l 315 839 l 315 750 l 182 750 l 182 679 l 301 679 l 301 592 l 182 592 l 182 446 l 92 446 l 92 839 m 975 750 l 975 839 l 1219 839 l 1219 750 l 1143 750 l 1143 446 l 1051 446 l 1051 750 l 975 750 m 69 1258 l 313 1258 l 313 1171 l 238 1171 l 238 865 l 146 865 l 146 1171 l 69 1171 l 69 1258 m 1132 1258 l 1222 1258 l 1222 953 l 1338 953 l 1338 865 l 1132 865 l 1132 1258 m 760 1258 l 760 865 l 669 865 l 669 1258 l 760 1258 m 876 197 q 894 252 876 232 q 939 272 913 272 q 983 251 969 272 l 983 335 l 1008 335 l 1008 165 q 1008 147 1008 156 q 1010 129 1008 138 l 986 129 l 985 154 q 938 128 972 128 q 894 147 911 128 q 876 197 876 165 m 439 569 q 481 525 439 525 q 522 567 522 525 l 522 715 q 510 747 522 736 q 481 760 497 760 q 451 747 464 760 q 439 715 439 736 l 439 569 m 1107 197 q 1127 253 1107 233 q 1178 272 1147 272 q 1225 253 1207 272 q 1243 201 1243 233 q 1222 144 1243 161 q 1175 128 1200 128 q 1127 147 1147 128 q 1107 197 1107 165 m 775 128 q 742 139 758 128 q 726 189 726 150 l 726 269 l 753 269 l 753 192 q 783 149 753 149 q 809 159 799 149 q 819 185 819 169 l 819 269 l 844 269 l 844 167 q 845 149 844 158 q 846 129 846 139 l 824 129 l 821 151 q 806 135 818 143 q 775 128 794 128 m 1133 200 q 1144 161 1133 176 q 1175 146 1156 146 q 1206 161 1194 146 q 1217 200 1217 176 q 1208 235 1217 218 q 1175 253 1199 253 q 1144 237 1154 253 q 1133 200 1133 221 m 944 253 q 913 238 924 253 q 903 200 903 222 q 913 163 903 179 q 943 146 922 146 q 967 153 957 146 q 981 176 978 161 q 982 183 981 181 q 983 189 983 185 l 983 213 q 982 219 983 217 q 981 222 981 221 q 944 253 974 253 m 260 10 q 282 65 260 46 q 331 83 304 83 q 379 65 361 83 q 397 13 397 46 q 375 -43 397 -25 q 328 -61 353 -61 q 281 -42 301 -61 q 260 10 260 -24 m 218 297 l 218 318 l 336 318 l 336 300 l 254 129 l 228 129 l 310 297 l 218 297 m 485 318 l 485 300 l 403 129 l 376 129 l 458 297 l 364 297 l 364 318 l 485 318 m 515 156 q 547 146 528 146 q 576 167 576 146 q 549 192 576 181 q 513 232 513 206 q 525 260 513 249 q 561 272 538 272 q 594 264 579 272 l 589 246 q 561 253 578 253 q 536 233 536 253 q 542 221 536 225 q 563 211 549 217 q 600 169 600 196 q 547 128 600 128 q 507 138 526 128 l 515 156 m 486 1086 q 528 1128 528 1086 q 486 1171 528 1171 l 444 1171 l 444 1086 l 486 1086 m 615 269 l 639 269 l 639 303 l 664 310 l 664 269 l 700 269 l 700 251 l 664 251 l 664 175 q 682 149 664 149 q 697 150 693 149 l 697 131 q 675 128 690 128 q 645 141 651 128 q 639 175 639 154 l 639 251 l 615 251 l 615 269 m 122 318 l 146 318 l 146 129 l 121 129 l 121 293 l 86 276 l 83 294 l 122 318 m 429 42 q 429 63 429 53 q 428 82 429 72 l 449 82 l 449 57 q 466 76 456 68 q 496 83 476 83 q 533 57 521 83 q 549 74 539 64 q 582 83 561 83 q 611 72 594 83 q 628 25 628 61 l 628 -60 l 600 -60 l 600 22 q 572 64 600 64 q 552 56 561 64 q 542 40 543 49 q 540 34 542 36 q 539 26 539 32 l 539 -60 l 515 -60 l 515 25 q 486 64 515 64 q 467 56 475 64 q 456 40 458 49 q 454 25 454 35 l 454 -60 l 429 -60 l 429 42 m 921 1013 l 972 1013 l 944 1151 l 921 1013 m 1050 129 l 1050 269 l 1075 269 l 1075 129 l 1050 129 m 328 67 q 297 49 307 67 q 286 10 286 31 q 298 -28 286 -11 q 328 -44 310 -44 q 359 -28 347 -44 q 371 13 371 -11 q 361 49 371 31 q 328 67 351 67 m 138 10 q 158 63 138 42 q 210 83 178 83 q 244 74 235 83 l 240 57 q 228 61 238 58 q 210 64 219 64 q 172 48 186 64 q 158 10 158 32 q 174 -26 158 -11 q 210 -42 189 -42 q 228 -39 219 -42 q 240 -35 238 -36 l 243 -51 q 229 -58 239 -56 q 207 -61 219 -61 q 156 -42 174 -61 q 138 10 138 -24 m 1063 293 q 1046 308 1046 293 q 1063 325 1046 325 q 1078 308 1078 325 q 1063 293 1078 293 m 99 -61 q 85 -56 89 -61 q 81 -44 81 -50 q 99 -26 81 -26 q 115 -44 115 -26 q 110 -56 115 -50 q 99 -61 106 -61 z "},"7":{"ha":1419,"x_min":40,"x_max":1410,"o":"m 40 0 l 536 568 q 697 691 599 643 q 908 739 794 739 l 1174 739 q 1258 774 1224 739 q 1292 857 1292 810 l 1292 1121 q 1257 1206 1292 1171 q 1174 1240 1222 1240 l 276 1240 q 192 1205 226 1240 q 158 1121 158 1169 l 158 1036 q 144 1002 158 1015 q 110 989 129 989 q 75 1004 86 989 q 64 1032 64 1019 q 67 1047 64 1036 q 134 1174 90 1117 q 235 1272 178 1231 q 360 1335 292 1313 q 503 1357 429 1357 l 1174 1357 q 1265 1338 1222 1357 q 1340 1288 1308 1319 q 1391 1213 1372 1256 q 1410 1121 1410 1169 l 1410 1111 q 1371 921 1410 1010 q 1265 765 1332 832 q 1109 660 1199 699 q 918 621 1019 621 l 800 621 q 762 611 778 619 q 735 594 746 603 q 717 576 724 585 q 706 565 710 568 l 213 0 l 40 0 z "},"8":{"ha":1407,"x_min":69,"x_max":1338,"o":"m 357 514 q 347 569 347 539 l 347 715 q 357 771 347 742 q 370 792 363 782 q 388 811 378 803 q 431 838 407 829 q 481 847 454 847 q 532 838 507 847 q 576 811 557 829 q 606 768 597 796 q 615 715 615 740 l 615 569 q 577 474 615 511 q 481 436 539 436 q 431 444 454 436 q 388 472 407 453 q 357 514 368 489 m 492 1258 q 546 1250 525 1258 q 624 1132 624 1214 q 557 1019 624 1056 l 631 865 l 531 865 l 467 1007 l 444 1007 l 444 865 l 353 865 l 353 1258 l 492 1258 m 760 839 l 850 628 l 850 839 l 938 839 l 938 446 l 846 446 l 754 660 l 754 446 l 667 446 l 667 839 l 760 839 m 886 1258 l 1006 1258 l 1089 865 l 999 865 l 986 929 l 906 929 l 893 865 l 803 865 l 886 1258 m 1313 1356 l 1313 1301 l 79 1301 l 79 1356 l 1313 1356 m 1313 408 l 1313 357 l 79 357 l 79 408 l 1313 408 m 92 839 l 315 839 l 315 750 l 182 750 l 182 679 l 301 679 l 301 592 l 182 592 l 182 446 l 92 446 l 92 839 m 975 750 l 975 839 l 1219 839 l 1219 750 l 1143 750 l 1143 446 l 1051 446 l 1051 750 l 975 750 m 69 1258 l 313 1258 l 313 1171 l 238 1171 l 238 865 l 146 865 l 146 1171 l 69 1171 l 69 1258 m 1132 1258 l 1222 1258 l 1222 953 l 1338 953 l 1338 865 l 1132 865 l 1132 1258 m 760 1258 l 760 865 l 669 865 l 669 1258 l 760 1258 m 876 197 q 894 252 876 232 q 939 272 913 272 q 983 251 969 272 l 983 335 l 1008 335 l 1008 165 q 1008 147 1008 156 q 1010 129 1008 138 l 986 129 l 985 154 q 938 128 972 128 q 894 147 911 128 q 876 197 876 165 m 439 569 q 481 525 439 525 q 522 567 522 525 l 522 715 q 510 747 522 736 q 481 760 497 760 q 451 747 464 760 q 439 715 439 736 l 439 569 m 1107 197 q 1127 253 1107 233 q 1178 272 1147 272 q 1225 253 1207 272 q 1243 201 1243 233 q 1222 144 1243 161 q 1175 128 1200 128 q 1127 147 1147 128 q 1107 197 1107 165 m 775 128 q 742 139 758 128 q 726 189 726 150 l 726 269 l 753 269 l 753 192 q 783 149 753 149 q 809 159 799 149 q 819 185 819 169 l 819 269 l 844 269 l 844 167 q 845 149 844 158 q 846 129 846 139 l 824 129 l 821 151 q 806 135 818 143 q 775 128 794 128 m 1133 200 q 1144 161 1133 176 q 1175 146 1156 146 q 1206 161 1194 146 q 1217 200 1217 176 q 1208 235 1217 218 q 1175 253 1199 253 q 1144 237 1154 253 q 1133 200 1133 221 m 944 253 q 913 238 924 253 q 903 200 903 222 q 913 163 903 179 q 943 146 922 146 q 967 153 957 146 q 981 176 978 161 q 982 183 981 181 q 983 189 983 185 l 983 213 q 982 219 983 217 q 981 222 981 221 q 944 253 974 253 m 260 10 q 282 65 260 46 q 331 83 304 83 q 379 65 361 83 q 397 13 397 46 q 375 -43 397 -25 q 328 -61 353 -61 q 281 -42 301 -61 q 260 10 260 -24 m 218 297 l 218 318 l 336 318 l 336 300 l 254 129 l 228 129 l 310 297 l 218 297 m 485 318 l 485 300 l 403 129 l 376 129 l 458 297 l 364 297 l 364 318 l 485 318 m 515 156 q 547 146 528 146 q 576 167 576 146 q 549 192 576 181 q 513 232 513 206 q 525 260 513 249 q 561 272 538 272 q 594 264 579 272 l 589 246 q 561 253 578 253 q 536 233 536 253 q 542 221 536 225 q 563 211 549 217 q 600 169 600 196 q 547 128 600 128 q 507 138 526 128 l 515 156 m 486 1086 q 528 1128 528 1086 q 486 1171 528 1171 l 444 1171 l 444 1086 l 486 1086 m 615 269 l 639 269 l 639 303 l 664 310 l 664 269 l 700 269 l 700 251 l 664 251 l 664 175 q 682 149 664 149 q 697 150 693 149 l 697 131 q 675 128 690 128 q 645 141 651 128 q 639 175 639 154 l 639 251 l 615 251 l 615 269 m 122 318 l 146 318 l 146 129 l 121 129 l 121 293 l 86 276 l 83 294 l 122 318 m 429 42 q 429 63 429 53 q 428 82 429 72 l 449 82 l 449 57 q 466 76 456 68 q 496 83 476 83 q 533 57 521 83 q 549 74 539 64 q 582 83 561 83 q 611 72 594 83 q 628 25 628 61 l 628 -60 l 600 -60 l 600 22 q 572 64 600 64 q 552 56 561 64 q 542 40 543 49 q 540 34 542 36 q 539 26 539 32 l 539 -60 l 515 -60 l 515 25 q 486 64 515 64 q 467 56 475 64 q 456 40 458 49 q 454 25 454 35 l 454 -60 l 429 -60 l 429 42 m 921 1013 l 972 1013 l 944 1151 l 921 1013 m 1050 129 l 1050 269 l 1075 269 l 1075 129 l 1050 129 m 328 67 q 297 49 307 67 q 286 10 286 31 q 298 -28 286 -11 q 328 -44 310 -44 q 359 -28 347 -44 q 371 13 371 -11 q 361 49 371 31 q 328 67 351 67 m 138 10 q 158 63 138 42 q 210 83 178 83 q 244 74 235 83 l 240 57 q 228 61 238 58 q 210 64 219 64 q 172 48 186 64 q 158 10 158 32 q 174 -26 158 -11 q 210 -42 189 -42 q 228 -39 219 -42 q 240 -35 238 -36 l 243 -51 q 229 -58 239 -56 q 207 -61 219 -61 q 156 -42 174 -61 q 138 10 138 -24 m 1063 293 q 1046 308 1046 293 q 1063 325 1046 325 q 1078 308 1078 325 q 1063 293 1078 293 m 99 -61 q 85 -56 89 -61 q 81 -44 81 -50 q 99 -26 81 -26 q 115 -44 115 -26 q 110 -56 115 -50 q 99 -61 106 -61 z "},"9":{"ha":1407,"x_min":69,"x_max":1338,"o":"m 357 514 q 347 569 347 539 l 347 715 q 357 771 347 742 q 370 792 363 782 q 388 811 378 803 q 431 838 407 829 q 481 847 454 847 q 532 838 507 847 q 576 811 557 829 q 606 768 597 796 q 615 715 615 740 l 615 569 q 577 474 615 511 q 481 436 539 436 q 431 444 454 436 q 388 472 407 453 q 357 514 368 489 m 492 1258 q 546 1250 525 1258 q 624 1132 624 1214 q 557 1019 624 1056 l 631 865 l 531 865 l 467 1007 l 444 1007 l 444 865 l 353 865 l 353 1258 l 492 1258 m 760 839 l 850 628 l 850 839 l 938 839 l 938 446 l 846 446 l 754 660 l 754 446 l 667 446 l 667 839 l 760 839 m 886 1258 l 1006 1258 l 1089 865 l 999 865 l 986 929 l 906 929 l 893 865 l 803 865 l 886 1258 m 1313 1356 l 1313 1301 l 79 1301 l 79 1356 l 1313 1356 m 1313 408 l 1313 357 l 79 357 l 79 408 l 1313 408 m 92 839 l 315 839 l 315 750 l 182 750 l 182 679 l 301 679 l 301 592 l 182 592 l 182 446 l 92 446 l 92 839 m 975 750 l 975 839 l 1219 839 l 1219 750 l 1143 750 l 1143 446 l 1051 446 l 1051 750 l 975 750 m 69 1258 l 313 1258 l 313 1171 l 238 1171 l 238 865 l 146 865 l 146 1171 l 69 1171 l 69 1258 m 1132 1258 l 1222 1258 l 1222 953 l 1338 953 l 1338 865 l 1132 865 l 1132 1258 m 760 1258 l 760 865 l 669 865 l 669 1258 l 760 1258 m 876 197 q 894 252 876 232 q 939 272 913 272 q 983 251 969 272 l 983 335 l 1008 335 l 1008 165 q 1008 147 1008 156 q 1010 129 1008 138 l 986 129 l 985 154 q 938 128 972 128 q 894 147 911 128 q 876 197 876 165 m 439 569 q 481 525 439 525 q 522 567 522 525 l 522 715 q 510 747 522 736 q 481 760 497 760 q 451 747 464 760 q 439 715 439 736 l 439 569 m 1107 197 q 1127 253 1107 233 q 1178 272 1147 272 q 1225 253 1207 272 q 1243 201 1243 233 q 1222 144 1243 161 q 1175 128 1200 128 q 1127 147 1147 128 q 1107 197 1107 165 m 775 128 q 742 139 758 128 q 726 189 726 150 l 726 269 l 753 269 l 753 192 q 783 149 753 149 q 809 159 799 149 q 819 185 819 169 l 819 269 l 844 269 l 844 167 q 845 149 844 158 q 846 129 846 139 l 824 129 l 821 151 q 806 135 818 143 q 775 128 794 128 m 1133 200 q 1144 161 1133 176 q 1175 146 1156 146 q 1206 161 1194 146 q 1217 200 1217 176 q 1208 235 1217 218 q 1175 253 1199 253 q 1144 237 1154 253 q 1133 200 1133 221 m 944 253 q 913 238 924 253 q 903 200 903 222 q 913 163 903 179 q 943 146 922 146 q 967 153 957 146 q 981 176 978 161 q 982 183 981 181 q 983 189 983 185 l 983 213 q 982 219 983 217 q 981 222 981 221 q 944 253 974 253 m 260 10 q 282 65 260 46 q 331 83 304 83 q 379 65 361 83 q 397 13 397 46 q 375 -43 397 -25 q 328 -61 353 -61 q 281 -42 301 -61 q 260 10 260 -24 m 218 297 l 218 318 l 336 318 l 336 300 l 254 129 l 228 129 l 310 297 l 218 297 m 485 318 l 485 300 l 403 129 l 376 129 l 458 297 l 364 297 l 364 318 l 485 318 m 515 156 q 547 146 528 146 q 576 167 576 146 q 549 192 576 181 q 513 232 513 206 q 525 260 513 249 q 561 272 538 272 q 594 264 579 272 l 589 246 q 561 253 578 253 q 536 233 536 253 q 542 221 536 225 q 563 211 549 217 q 600 169 600 196 q 547 128 600 128 q 507 138 526 128 l 515 156 m 486 1086 q 528 1128 528 1086 q 486 1171 528 1171 l 444 1171 l 444 1086 l 486 1086 m 615 269 l 639 269 l 639 303 l 664 310 l 664 269 l 700 269 l 700 251 l 664 251 l 664 175 q 682 149 664 149 q 697 150 693 149 l 697 131 q 675 128 690 128 q 645 141 651 128 q 639 175 639 154 l 639 251 l 615 251 l 615 269 m 122 318 l 146 318 l 146 129 l 121 129 l 121 293 l 86 276 l 83 294 l 122 318 m 429 42 q 429 63 429 53 q 428 82 429 72 l 449 82 l 449 57 q 466 76 456 68 q 496 83 476 83 q 533 57 521 83 q 549 74 539 64 q 582 83 561 83 q 611 72 594 83 q 628 25 628 61 l 628 -60 l 600 -60 l 600 22 q 572 64 600 64 q 552 56 561 64 q 542 40 543 49 q 540 34 542 36 q 539 26 539 32 l 539 -60 l 515 -60 l 515 25 q 486 64 515 64 q 467 56 475 64 q 456 40 458 49 q 454 25 454 35 l 454 -60 l 429 -60 l 429 42 m 921 1013 l 972 1013 l 944 1151 l 921 1013 m 1050 129 l 1050 269 l 1075 269 l 1075 129 l 1050 129 m 328 67 q 297 49 307 67 q 286 10 286 31 q 298 -28 286 -11 q 328 -44 310 -44 q 359 -28 347 -44 q 371 13 371 -11 q 361 49 371 31 q 328 67 351 67 m 138 10 q 158 63 138 42 q 210 83 178 83 q 244 74 235 83 l 240 57 q 228 61 238 58 q 210 64 219 64 q 172 48 186 64 q 158 10 158 32 q 174 -26 158 -11 q 210 -42 189 -42 q 228 -39 219 -42 q 240 -35 238 -36 l 243 -51 q 229 -58 239 -56 q 207 -61 219 -61 q 156 -42 174 -61 q 138 10 138 -24 m 1063 293 q 1046 308 1046 293 q 1063 325 1046 325 q 1078 308 1078 325 q 1063 293 1078 293 m 99 -61 q 85 -56 89 -61 q 81 -44 81 -50 q 99 -26 81 -26 q 115 -44 115 -26 q 110 -56 115 -50 q 99 -61 106 -61 z "},"\u0000":{"ha":0,"x_min":0,"x_max":0,"o":""},"\r":{"ha":0,"x_min":0,"x_max":0,"o":""}," ":{"ha":554,"x_min":0,"x_max":0,"o":""},"\n":{"ha":0,"x_min":0,"x_max":0,"o":""},"!":{"ha":1407,"x_min":69,"x_max":1338,"o":"m 357 514 q 347 569 347 539 l 347 715 q 357 771 347 742 q 370 792 363 782 q 388 811 378 803 q 431 838 407 829 q 481 847 454 847 q 532 838 507 847 q 576 811 557 829 q 606 768 597 796 q 615 715 615 740 l 615 569 q 577 474 615 511 q 481 436 539 436 q 431 444 454 436 q 388 472 407 453 q 357 514 368 489 m 492 1258 q 546 1250 525 1258 q 624 1132 624 1214 q 557 1019 624 1056 l 631 865 l 531 865 l 467 1007 l 444 1007 l 444 865 l 353 865 l 353 1258 l 492 1258 m 760 839 l 850 628 l 850 839 l 938 839 l 938 446 l 846 446 l 754 660 l 754 446 l 667 446 l 667 839 l 760 839 m 886 1258 l 1006 1258 l 1089 865 l 999 865 l 986 929 l 906 929 l 893 865 l 803 865 l 886 1258 m 1313 1356 l 1313 1301 l 79 1301 l 79 1356 l 1313 1356 m 1313 408 l 1313 357 l 79 357 l 79 408 l 1313 408 m 92 839 l 315 839 l 315 750 l 182 750 l 182 679 l 301 679 l 301 592 l 182 592 l 182 446 l 92 446 l 92 839 m 975 750 l 975 839 l 1219 839 l 1219 750 l 1143 750 l 1143 446 l 1051 446 l 1051 750 l 975 750 m 69 1258 l 313 1258 l 313 1171 l 238 1171 l 238 865 l 146 865 l 146 1171 l 69 1171 l 69 1258 m 1132 1258 l 1222 1258 l 1222 953 l 1338 953 l 1338 865 l 1132 865 l 1132 1258 m 760 1258 l 760 865 l 669 865 l 669 1258 l 760 1258 m 876 197 q 894 252 876 232 q 939 272 913 272 q 983 251 969 272 l 983 335 l 1008 335 l 1008 165 q 1008 147 1008 156 q 1010 129 1008 138 l 986 129 l 985 154 q 938 128 972 128 q 894 147 911 128 q 876 197 876 165 m 439 569 q 481 525 439 525 q 522 567 522 525 l 522 715 q 510 747 522 736 q 481 760 497 760 q 451 747 464 760 q 439 715 439 736 l 439 569 m 1107 197 q 1127 253 1107 233 q 1178 272 1147 272 q 1225 253 1207 272 q 1243 201 1243 233 q 1222 144 1243 161 q 1175 128 1200 128 q 1127 147 1147 128 q 1107 197 1107 165 m 775 128 q 742 139 758 128 q 726 189 726 150 l 726 269 l 753 269 l 753 192 q 783 149 753 149 q 809 159 799 149 q 819 185 819 169 l 819 269 l 844 269 l 844 167 q 845 149 844 158 q 846 129 846 139 l 824 129 l 821 151 q 806 135 818 143 q 775 128 794 128 m 1133 200 q 1144 161 1133 176 q 1175 146 1156 146 q 1206 161 1194 146 q 1217 200 1217 176 q 1208 235 1217 218 q 1175 253 1199 253 q 1144 237 1154 253 q 1133 200 1133 221 m 944 253 q 913 238 924 253 q 903 200 903 222 q 913 163 903 179 q 943 146 922 146 q 967 153 957 146 q 981 176 978 161 q 982 183 981 181 q 983 189 983 185 l 983 213 q 982 219 983 217 q 981 222 981 221 q 944 253 974 253 m 260 10 q 282 65 260 46 q 331 83 304 83 q 379 65 361 83 q 397 13 397 46 q 375 -43 397 -25 q 328 -61 353 -61 q 281 -42 301 -61 q 260 10 260 -24 m 218 297 l 218 318 l 336 318 l 336 300 l 254 129 l 228 129 l 310 297 l 218 297 m 485 318 l 485 300 l 403 129 l 376 129 l 458 297 l 364 297 l 364 318 l 485 318 m 515 156 q 547 146 528 146 q 576 167 576 146 q 549 192 576 181 q 513 232 513 206 q 525 260 513 249 q 561 272 538 272 q 594 264 579 272 l 589 246 q 561 253 578 253 q 536 233 536 253 q 542 221 536 225 q 563 211 549 217 q 600 169 600 196 q 547 128 600 128 q 507 138 526 128 l 515 156 m 486 1086 q 528 1128 528 1086 q 486 1171 528 1171 l 444 1171 l 444 1086 l 486 1086 m 615 269 l 639 269 l 639 303 l 664 310 l 664 269 l 700 269 l 700 251 l 664 251 l 664 175 q 682 149 664 149 q 697 150 693 149 l 697 131 q 675 128 690 128 q 645 141 651 128 q 639 175 639 154 l 639 251 l 615 251 l 615 269 m 122 318 l 146 318 l 146 129 l 121 129 l 121 293 l 86 276 l 83 294 l 122 318 m 429 42 q 429 63 429 53 q 428 82 429 72 l 449 82 l 449 57 q 466 76 456 68 q 496 83 476 83 q 533 57 521 83 q 549 74 539 64 q 582 83 561 83 q 611 72 594 83 q 628 25 628 61 l 628 -60 l 600 -60 l 600 22 q 572 64 600 64 q 552 56 561 64 q 542 40 543 49 q 540 34 542 36 q 539 26 539 32 l 539 -60 l 515 -60 l 515 25 q 486 64 515 64 q 467 56 475 64 q 456 40 458 49 q 454 25 454 35 l 454 -60 l 429 -60 l 429 42 m 921 1013 l 972 1013 l 944 1151 l 921 1013 m 1050 129 l 1050 269 l 1075 269 l 1075 129 l 1050 129 m 328 67 q 297 49 307 67 q 286 10 286 31 q 298 -28 286 -11 q 328 -44 310 -44 q 359 -28 347 -44 q 371 13 371 -11 q 361 49 371 31 q 328 67 351 67 m 138 10 q 158 63 138 42 q 210 83 178 83 q 244 74 235 83 l 240 57 q 228 61 238 58 q 210 64 219 64 q 172 48 186 64 q 158 10 158 32 q 174 -26 158 -11 q 210 -42 189 -42 q 228 -39 219 -42 q 240 -35 238 -36 l 243 -51 q 229 -58 239 -56 q 207 -61 219 -61 q 156 -42 174 -61 q 138 10 138 -24 m 1063 293 q 1046 308 1046 293 q 1063 325 1046 325 q 1078 308 1078 325 q 1063 293 1078 293 m 99 -61 q 85 -56 89 -61 q 81 -44 81 -50 q 99 -26 81 -26 q 115 -44 115 -26 q 110 -56 115 -50 q 99 -61 106 -61 z "},"\"":{"ha":358,"x_min":65,"x_max":293,"o":"m 65 1326 q 76 1353 65 1343 q 103 1364 88 1364 q 130 1353 118 1364 q 142 1326 142 1343 l 142 1151 q 130 1125 142 1136 q 103 1114 118 1114 q 76 1125 88 1114 q 65 1151 65 1136 l 65 1326 m 217 1326 q 228 1353 217 1343 q 256 1364 239 1364 q 282 1353 271 1364 q 293 1326 293 1343 l 293 1151 q 282 1125 293 1136 q 256 1114 271 1114 q 228 1125 239 1114 q 217 1151 217 1136 l 217 1326 z "},"#":{"ha":1097,"x_min":71,"x_max":1025,"o":"m 71 389 l 71 471 l 296 471 l 311 692 l 108 692 l 108 775 l 318 775 l 343 1125 l 456 1118 l 432 775 l 729 775 l 753 1125 l 868 1118 l 843 775 l 1025 775 l 1025 692 l 838 692 l 822 471 l 986 471 l 986 389 l 817 389 l 792 39 l 678 44 l 701 389 l 406 389 l 381 39 l 267 44 l 290 389 l 71 389 m 707 471 l 722 692 l 428 692 l 411 471 l 707 471 z "},"$":{"ha":1379,"x_min":79,"x_max":1296,"o":"m 86 390 q 93 431 79 413 q 131 450 107 450 q 165 436 150 450 q 178 403 179 422 l 178 318 q 212 234 178 269 q 296 199 246 199 l 1060 199 q 1143 233 1108 199 q 1178 318 1178 268 l 1178 624 l 83 624 l 83 793 q 122 983 83 894 q 226 1138 160 1072 q 382 1242 293 1204 q 571 1281 471 1281 l 650 1281 l 650 1374 q 662 1404 650 1392 q 693 1417 674 1417 q 722 1404 710 1417 q 733 1374 733 1392 l 733 1281 l 833 1281 q 976 1258 907 1281 q 1101 1195 1044 1236 q 1202 1097 1158 1154 q 1269 971 1246 1040 q 1263 931 1276 950 q 1226 913 1250 913 q 1192 926 1207 913 q 1178 960 1178 939 l 1178 1044 q 1143 1128 1178 1093 q 1060 1163 1108 1163 l 319 1163 q 237 1128 271 1163 q 203 1044 203 1094 l 203 742 l 1296 742 l 1296 568 q 1258 378 1296 467 q 1153 223 1219 289 q 999 119 1088 157 q 808 81 910 81 l 733 81 l 733 -11 q 722 -40 733 -28 q 693 -53 710 -53 q 662 -40 674 -53 q 650 -11 650 -28 l 650 81 l 522 81 q 381 103 449 81 q 255 166 313 125 q 153 264 197 207 q 86 390 110 321 z "},"%":{"ha":1169,"x_min":75,"x_max":1099,"o":"m 742 219 q 752 166 742 190 q 781 123 763 142 q 825 94 800 104 q 879 83 850 83 q 976 122 938 83 q 1015 219 1015 161 l 1015 363 q 976 460 1015 421 q 879 499 938 499 q 825 488 850 499 q 781 459 800 478 q 752 416 763 440 q 742 363 742 392 l 742 219 m 294 1081 q 242 1069 267 1081 q 198 1040 217 1058 q 169 996 179 1021 q 158 943 158 971 l 158 801 q 169 749 158 774 q 198 705 179 724 q 242 675 217 686 q 294 664 267 664 q 349 675 324 664 q 392 705 374 686 q 422 749 411 724 q 432 801 432 774 l 432 943 q 422 996 432 971 q 392 1040 411 1021 q 349 1069 374 1058 q 294 1081 324 1081 m 879 0 q 793 17 833 0 q 723 65 753 35 q 676 134 693 94 q 658 219 658 174 l 658 363 q 676 448 658 408 q 723 517 693 488 q 793 565 753 547 q 879 582 833 582 q 965 565 925 582 q 1034 517 1004 547 q 1081 448 1064 488 q 1099 363 1099 408 l 1099 219 q 1081 134 1099 174 q 1034 65 1064 94 q 965 17 1004 35 q 879 0 925 0 m 231 6 q 212 31 215 15 q 218 63 208 47 l 861 1143 q 897 1164 875 1164 q 918 1157 907 1164 q 938 1132 933 1149 q 933 1100 942 1115 l 289 19 q 253 0 276 0 q 231 6 240 0 m 75 943 q 92 1029 75 989 q 140 1099 110 1069 q 209 1147 169 1129 q 294 1164 249 1164 q 381 1147 340 1164 q 451 1099 421 1129 q 499 1029 482 1069 q 517 943 517 989 l 517 801 q 499 716 517 756 q 451 646 482 676 q 381 598 421 615 q 294 581 340 581 q 209 598 249 581 q 140 646 169 615 q 92 716 110 676 q 75 801 75 756 l 75 943 z "},"&":{"ha":1428,"x_min":82,"x_max":1349,"o":"m 203 236 q 238 153 203 188 q 321 118 272 118 l 1083 118 q 1151 147 1124 118 q 1178 215 1178 175 l 1178 543 l 321 543 q 238 508 272 543 q 203 425 203 474 l 203 236 m 340 601 q 238 665 286 632 q 155 737 190 697 q 101 827 119 776 q 86 944 82 878 q 113 1045 90 999 q 173 1126 136 1092 q 258 1180 210 1160 q 360 1200 306 1200 l 856 1200 q 999 1178 931 1200 q 1126 1115 1068 1156 q 1226 1017 1183 1074 q 1293 890 1269 960 q 1286 849 1300 868 q 1249 831 1272 831 q 1215 844 1229 831 q 1201 879 1200 858 l 1201 964 q 1167 1047 1201 1013 q 1082 1082 1132 1082 l 321 1082 q 238 1047 272 1082 q 203 964 203 1013 l 203 779 q 237 695 203 731 q 321 660 271 660 l 1349 660 l 1349 543 l 1294 543 l 1294 318 q 1285 283 1294 307 q 1258 231 1275 260 q 1217 173 1240 203 q 1165 118 1193 143 q 1023 30 1103 60 q 856 0 943 0 l 360 0 q 253 22 303 0 q 165 81 203 43 q 106 168 128 118 q 85 275 85 218 l 85 289 q 107 397 86 351 q 163 478 128 443 q 243 543 197 514 q 340 601 289 572 z "},"'":{"ha":206,"x_min":65,"x_max":142,"o":"m 65 1250 q 76 1277 65 1265 q 103 1289 88 1289 q 130 1277 118 1289 q 142 1250 142 1265 l 142 1076 q 130 1050 142 1061 q 103 1039 118 1039 q 76 1050 88 1039 q 65 1076 65 1061 l 65 1250 l 65 1250 z "},"(":{"ha":432,"x_min":93,"x_max":363,"o":"m 93 1122 q 112 1214 93 1171 q 163 1289 131 1257 q 238 1340 194 1321 q 329 1358 281 1358 l 363 1358 l 363 1242 l 329 1242 q 245 1206 279 1242 q 211 1122 211 1171 l 211 238 q 245 153 211 189 q 329 118 279 118 l 363 118 l 363 1 l 329 1 q 238 19 281 1 q 163 69 194 38 q 112 144 131 101 q 93 238 93 188 l 93 1122 z "},")":{"ha":432,"x_min":68,"x_max":339,"o":"m 103 1358 q 194 1340 151 1358 q 269 1289 238 1321 q 320 1214 301 1257 q 339 1122 339 1171 l 339 238 q 320 144 339 188 q 269 69 301 101 q 194 19 238 38 q 103 1 151 1 l 68 1 l 68 118 l 103 118 q 187 153 153 118 q 221 238 221 189 l 221 1122 q 187 1206 221 1171 q 103 1242 153 1242 l 68 1242 l 68 1358 l 103 1358 z "},"+":{"ha":581,"x_min":67,"x_max":515,"o":"m 67 540 l 67 656 l 233 656 l 233 821 l 349 821 l 349 656 l 515 656 l 515 540 l 349 540 l 349 374 l 233 374 l 233 540 l 67 540 z "},",":{"ha":1407,"x_min":69,"x_max":1338,"o":"m 357 514 q 347 569 347 539 l 347 715 q 357 771 347 742 q 370 792 363 782 q 388 811 378 803 q 431 838 407 829 q 481 847 454 847 q 532 838 507 847 q 576 811 557 829 q 606 768 597 796 q 615 715 615 740 l 615 569 q 577 474 615 511 q 481 436 539 436 q 431 444 454 436 q 388 472 407 453 q 357 514 368 489 m 492 1258 q 546 1250 525 1258 q 624 1132 624 1214 q 557 1019 624 1056 l 631 865 l 531 865 l 467 1007 l 444 1007 l 444 865 l 353 865 l 353 1258 l 492 1258 m 760 839 l 850 628 l 850 839 l 938 839 l 938 446 l 846 446 l 754 660 l 754 446 l 667 446 l 667 839 l 760 839 m 886 1258 l 1006 1258 l 1089 865 l 999 865 l 986 929 l 906 929 l 893 865 l 803 865 l 886 1258 m 1313 1356 l 1313 1301 l 79 1301 l 79 1356 l 1313 1356 m 1313 408 l 1313 357 l 79 357 l 79 408 l 1313 408 m 92 839 l 315 839 l 315 750 l 182 750 l 182 679 l 301 679 l 301 592 l 182 592 l 182 446 l 92 446 l 92 839 m 975 750 l 975 839 l 1219 839 l 1219 750 l 1143 750 l 1143 446 l 1051 446 l 1051 750 l 975 750 m 69 1258 l 313 1258 l 313 1171 l 238 1171 l 238 865 l 146 865 l 146 1171 l 69 1171 l 69 1258 m 1132 1258 l 1222 1258 l 1222 953 l 1338 953 l 1338 865 l 1132 865 l 1132 1258 m 760 1258 l 760 865 l 669 865 l 669 1258 l 760 1258 m 876 197 q 894 252 876 232 q 939 272 913 272 q 983 251 969 272 l 983 335 l 1008 335 l 1008 165 q 1008 147 1008 156 q 1010 129 1008 138 l 986 129 l 985 154 q 938 128 972 128 q 894 147 911 128 q 876 197 876 165 m 439 569 q 481 525 439 525 q 522 567 522 525 l 522 715 q 510 747 522 736 q 481 760 497 760 q 451 747 464 760 q 439 715 439 736 l 439 569 m 1107 197 q 1127 253 1107 233 q 1178 272 1147 272 q 1225 253 1207 272 q 1243 201 1243 233 q 1222 144 1243 161 q 1175 128 1200 128 q 1127 147 1147 128 q 1107 197 1107 165 m 775 128 q 742 139 758 128 q 726 189 726 150 l 726 269 l 753 269 l 753 192 q 783 149 753 149 q 809 159 799 149 q 819 185 819 169 l 819 269 l 844 269 l 844 167 q 845 149 844 158 q 846 129 846 139 l 824 129 l 821 151 q 806 135 818 143 q 775 128 794 128 m 1133 200 q 1144 161 1133 176 q 1175 146 1156 146 q 1206 161 1194 146 q 1217 200 1217 176 q 1208 235 1217 218 q 1175 253 1199 253 q 1144 237 1154 253 q 1133 200 1133 221 m 944 253 q 913 238 924 253 q 903 200 903 222 q 913 163 903 179 q 943 146 922 146 q 967 153 957 146 q 981 176 978 161 q 982 183 981 181 q 983 189 983 185 l 983 213 q 982 219 983 217 q 981 222 981 221 q 944 253 974 253 m 260 10 q 282 65 260 46 q 331 83 304 83 q 379 65 361 83 q 397 13 397 46 q 375 -43 397 -25 q 328 -61 353 -61 q 281 -42 301 -61 q 260 10 260 -24 m 218 297 l 218 318 l 336 318 l 336 300 l 254 129 l 228 129 l 310 297 l 218 297 m 485 318 l 485 300 l 403 129 l 376 129 l 458 297 l 364 297 l 364 318 l 485 318 m 515 156 q 547 146 528 146 q 576 167 576 146 q 549 192 576 181 q 513 232 513 206 q 525 260 513 249 q 561 272 538 272 q 594 264 579 272 l 589 246 q 561 253 578 253 q 536 233 536 253 q 542 221 536 225 q 563 211 549 217 q 600 169 600 196 q 547 128 600 128 q 507 138 526 128 l 515 156 m 486 1086 q 528 1128 528 1086 q 486 1171 528 1171 l 444 1171 l 444 1086 l 486 1086 m 615 269 l 639 269 l 639 303 l 664 310 l 664 269 l 700 269 l 700 251 l 664 251 l 664 175 q 682 149 664 149 q 697 150 693 149 l 697 131 q 675 128 690 128 q 645 141 651 128 q 639 175 639 154 l 639 251 l 615 251 l 615 269 m 122 318 l 146 318 l 146 129 l 121 129 l 121 293 l 86 276 l 83 294 l 122 318 m 429 42 q 429 63 429 53 q 428 82 429 72 l 449 82 l 449 57 q 466 76 456 68 q 496 83 476 83 q 533 57 521 83 q 549 74 539 64 q 582 83 561 83 q 611 72 594 83 q 628 25 628 61 l 628 -60 l 600 -60 l 600 22 q 572 64 600 64 q 552 56 561 64 q 542 40 543 49 q 540 34 542 36 q 539 26 539 32 l 539 -60 l 515 -60 l 515 25 q 486 64 515 64 q 467 56 475 64 q 456 40 458 49 q 454 25 454 35 l 454 -60 l 429 -60 l 429 42 m 921 1013 l 972 1013 l 944 1151 l 921 1013 m 1050 129 l 1050 269 l 1075 269 l 1075 129 l 1050 129 m 328 67 q 297 49 307 67 q 286 10 286 31 q 298 -28 286 -11 q 328 -44 310 -44 q 359 -28 347 -44 q 371 13 371 -11 q 361 49 371 31 q 328 67 351 67 m 138 10 q 158 63 138 42 q 210 83 178 83 q 244 74 235 83 l 240 57 q 228 61 238 58 q 210 64 219 64 q 172 48 186 64 q 158 10 158 32 q 174 -26 158 -11 q 210 -42 189 -42 q 228 -39 219 -42 q 240 -35 238 -36 l 243 -51 q 229 -58 239 -56 q 207 -61 219 -61 q 156 -42 174 -61 q 138 10 138 -24 m 1063 293 q 1046 308 1046 293 q 1063 325 1046 325 q 1078 308 1078 325 q 1063 293 1078 293 m 99 -61 q 85 -56 89 -61 q 81 -44 81 -50 q 99 -26 81 -26 q 115 -44 115 -26 q 110 -56 115 -50 q 99 -61 106 -61 z "},"-":{"ha":1407,"x_min":69,"x_max":1338,"o":"m 357 514 q 347 569 347 539 l 347 715 q 357 771 347 742 q 370 792 363 782 q 388 811 378 803 q 431 838 407 829 q 481 847 454 847 q 532 838 507 847 q 576 811 557 829 q 606 768 597 796 q 615 715 615 740 l 615 569 q 577 474 615 511 q 481 436 539 436 q 431 444 454 436 q 388 472 407 453 q 357 514 368 489 m 492 1258 q 546 1250 525 1258 q 624 1132 624 1214 q 557 1019 624 1056 l 631 865 l 531 865 l 467 1007 l 444 1007 l 444 865 l 353 865 l 353 1258 l 492 1258 m 760 839 l 850 628 l 850 839 l 938 839 l 938 446 l 846 446 l 754 660 l 754 446 l 667 446 l 667 839 l 760 839 m 886 1258 l 1006 1258 l 1089 865 l 999 865 l 986 929 l 906 929 l 893 865 l 803 865 l 886 1258 m 1313 1356 l 1313 1301 l 79 1301 l 79 1356 l 1313 1356 m 1313 408 l 1313 357 l 79 357 l 79 408 l 1313 408 m 92 839 l 315 839 l 315 750 l 182 750 l 182 679 l 301 679 l 301 592 l 182 592 l 182 446 l 92 446 l 92 839 m 975 750 l 975 839 l 1219 839 l 1219 750 l 1143 750 l 1143 446 l 1051 446 l 1051 750 l 975 750 m 69 1258 l 313 1258 l 313 1171 l 238 1171 l 238 865 l 146 865 l 146 1171 l 69 1171 l 69 1258 m 1132 1258 l 1222 1258 l 1222 953 l 1338 953 l 1338 865 l 1132 865 l 1132 1258 m 760 1258 l 760 865 l 669 865 l 669 1258 l 760 1258 m 876 197 q 894 252 876 232 q 939 272 913 272 q 983 251 969 272 l 983 335 l 1008 335 l 1008 165 q 1008 147 1008 156 q 1010 129 1008 138 l 986 129 l 985 154 q 938 128 972 128 q 894 147 911 128 q 876 197 876 165 m 439 569 q 481 525 439 525 q 522 567 522 525 l 522 715 q 510 747 522 736 q 481 760 497 760 q 451 747 464 760 q 439 715 439 736 l 439 569 m 1107 197 q 1127 253 1107 233 q 1178 272 1147 272 q 1225 253 1207 272 q 1243 201 1243 233 q 1222 144 1243 161 q 1175 128 1200 128 q 1127 147 1147 128 q 1107 197 1107 165 m 775 128 q 742 139 758 128 q 726 189 726 150 l 726 269 l 753 269 l 753 192 q 783 149 753 149 q 809 159 799 149 q 819 185 819 169 l 819 269 l 844 269 l 844 167 q 845 149 844 158 q 846 129 846 139 l 824 129 l 821 151 q 806 135 818 143 q 775 128 794 128 m 1133 200 q 1144 161 1133 176 q 1175 146 1156 146 q 1206 161 1194 146 q 1217 200 1217 176 q 1208 235 1217 218 q 1175 253 1199 253 q 1144 237 1154 253 q 1133 200 1133 221 m 944 253 q 913 238 924 253 q 903 200 903 222 q 913 163 903 179 q 943 146 922 146 q 967 153 957 146 q 981 176 978 161 q 982 183 981 181 q 983 189 983 185 l 983 213 q 982 219 983 217 q 981 222 981 221 q 944 253 974 253 m 260 10 q 282 65 260 46 q 331 83 304 83 q 379 65 361 83 q 397 13 397 46 q 375 -43 397 -25 q 328 -61 353 -61 q 281 -42 301 -61 q 260 10 260 -24 m 218 297 l 218 318 l 336 318 l 336 300 l 254 129 l 228 129 l 310 297 l 218 297 m 485 318 l 485 300 l 403 129 l 376 129 l 458 297 l 364 297 l 364 318 l 485 318 m 515 156 q 547 146 528 146 q 576 167 576 146 q 549 192 576 181 q 513 232 513 206 q 525 260 513 249 q 561 272 538 272 q 594 264 579 272 l 589 246 q 561 253 578 253 q 536 233 536 253 q 542 221 536 225 q 563 211 549 217 q 600 169 600 196 q 547 128 600 128 q 507 138 526 128 l 515 156 m 486 1086 q 528 1128 528 1086 q 486 1171 528 1171 l 444 1171 l 444 1086 l 486 1086 m 615 269 l 639 269 l 639 303 l 664 310 l 664 269 l 700 269 l 700 251 l 664 251 l 664 175 q 682 149 664 149 q 697 150 693 149 l 697 131 q 675 128 690 128 q 645 141 651 128 q 639 175 639 154 l 639 251 l 615 251 l 615 269 m 122 318 l 146 318 l 146 129 l 121 129 l 121 293 l 86 276 l 83 294 l 122 318 m 429 42 q 429 63 429 53 q 428 82 429 72 l 449 82 l 449 57 q 466 76 456 68 q 496 83 476 83 q 533 57 521 83 q 549 74 539 64 q 582 83 561 83 q 611 72 594 83 q 628 25 628 61 l 628 -60 l 600 -60 l 600 22 q 572 64 600 64 q 552 56 561 64 q 542 40 543 49 q 540 34 542 36 q 539 26 539 32 l 539 -60 l 515 -60 l 515 25 q 486 64 515 64 q 467 56 475 64 q 456 40 458 49 q 454 25 454 35 l 454 -60 l 429 -60 l 429 42 m 921 1013 l 972 1013 l 944 1151 l 921 1013 m 1050 129 l 1050 269 l 1075 269 l 1075 129 l 1050 129 m 328 67 q 297 49 307 67 q 286 10 286 31 q 298 -28 286 -11 q 328 -44 310 -44 q 359 -28 347 -44 q 371 13 371 -11 q 361 49 371 31 q 328 67 351 67 m 138 10 q 158 63 138 42 q 210 83 178 83 q 244 74 235 83 l 240 57 q 228 61 238 58 q 210 64 219 64 q 172 48 186 64 q 158 10 158 32 q 174 -26 158 -11 q 210 -42 189 -42 q 228 -39 219 -42 q 240 -35 238 -36 l 243 -51 q 229 -58 239 -56 q 207 -61 219 -61 q 156 -42 174 -61 q 138 10 138 -24 m 1063 293 q 1046 308 1046 293 q 1063 325 1046 325 q 1078 308 1078 325 q 1063 293 1078 293 m 99 -61 q 85 -56 89 -61 q 81 -44 81 -50 q 99 -26 81 -26 q 115 -44 115 -26 q 110 -56 115 -50 q 99 -61 106 -61 z "},".":{"ha":1407,"x_min":69,"x_max":1338,"o":"m 357 514 q 347 569 347 539 l 347 715 q 357 771 347 742 q 370 792 363 782 q 388 811 378 803 q 431 838 407 829 q 481 847 454 847 q 532 838 507 847 q 576 811 557 829 q 606 768 597 796 q 615 715 615 740 l 615 569 q 577 474 615 511 q 481 436 539 436 q 431 444 454 436 q 388 472 407 453 q 357 514 368 489 m 492 1258 q 546 1250 525 1258 q 624 1132 624 1214 q 557 1019 624 1056 l 631 865 l 531 865 l 467 1007 l 444 1007 l 444 865 l 353 865 l 353 1258 l 492 1258 m 760 839 l 850 628 l 850 839 l 938 839 l 938 446 l 846 446 l 754 660 l 754 446 l 667 446 l 667 839 l 760 839 m 886 1258 l 1006 1258 l 1089 865 l 999 865 l 986 929 l 906 929 l 893 865 l 803 865 l 886 1258 m 1313 1356 l 1313 1301 l 79 1301 l 79 1356 l 1313 1356 m 1313 408 l 1313 357 l 79 357 l 79 408 l 1313 408 m 92 839 l 315 839 l 315 750 l 182 750 l 182 679 l 301 679 l 301 592 l 182 592 l 182 446 l 92 446 l 92 839 m 975 750 l 975 839 l 1219 839 l 1219 750 l 1143 750 l 1143 446 l 1051 446 l 1051 750 l 975 750 m 69 1258 l 313 1258 l 313 1171 l 238 1171 l 238 865 l 146 865 l 146 1171 l 69 1171 l 69 1258 m 1132 1258 l 1222 1258 l 1222 953 l 1338 953 l 1338 865 l 1132 865 l 1132 1258 m 760 1258 l 760 865 l 669 865 l 669 1258 l 760 1258 m 876 197 q 894 252 876 232 q 939 272 913 272 q 983 251 969 272 l 983 335 l 1008 335 l 1008 165 q 1008 147 1008 156 q 1010 129 1008 138 l 986 129 l 985 154 q 938 128 972 128 q 894 147 911 128 q 876 197 876 165 m 439 569 q 481 525 439 525 q 522 567 522 525 l 522 715 q 510 747 522 736 q 481 760 497 760 q 451 747 464 760 q 439 715 439 736 l 439 569 m 1107 197 q 1127 253 1107 233 q 1178 272 1147 272 q 1225 253 1207 272 q 1243 201 1243 233 q 1222 144 1243 161 q 1175 128 1200 128 q 1127 147 1147 128 q 1107 197 1107 165 m 775 128 q 742 139 758 128 q 726 189 726 150 l 726 269 l 753 269 l 753 192 q 783 149 753 149 q 809 159 799 149 q 819 185 819 169 l 819 269 l 844 269 l 844 167 q 845 149 844 158 q 846 129 846 139 l 824 129 l 821 151 q 806 135 818 143 q 775 128 794 128 m 1133 200 q 1144 161 1133 176 q 1175 146 1156 146 q 1206 161 1194 146 q 1217 200 1217 176 q 1208 235 1217 218 q 1175 253 1199 253 q 1144 237 1154 253 q 1133 200 1133 221 m 944 253 q 913 238 924 253 q 903 200 903 222 q 913 163 903 179 q 943 146 922 146 q 967 153 957 146 q 981 176 978 161 q 982 183 981 181 q 983 189 983 185 l 983 213 q 982 219 983 217 q 981 222 981 221 q 944 253 974 253 m 260 10 q 282 65 260 46 q 331 83 304 83 q 379 65 361 83 q 397 13 397 46 q 375 -43 397 -25 q 328 -61 353 -61 q 281 -42 301 -61 q 260 10 260 -24 m 218 297 l 218 318 l 336 318 l 336 300 l 254 129 l 228 129 l 310 297 l 218 297 m 485 318 l 485 300 l 403 129 l 376 129 l 458 297 l 364 297 l 364 318 l 485 318 m 515 156 q 547 146 528 146 q 576 167 576 146 q 549 192 576 181 q 513 232 513 206 q 525 260 513 249 q 561 272 538 272 q 594 264 579 272 l 589 246 q 561 253 578 253 q 536 233 536 253 q 542 221 536 225 q 563 211 549 217 q 600 169 600 196 q 547 128 600 128 q 507 138 526 128 l 515 156 m 486 1086 q 528 1128 528 1086 q 486 1171 528 1171 l 444 1171 l 444 1086 l 486 1086 m 615 269 l 639 269 l 639 303 l 664 310 l 664 269 l 700 269 l 700 251 l 664 251 l 664 175 q 682 149 664 149 q 697 150 693 149 l 697 131 q 675 128 690 128 q 645 141 651 128 q 639 175 639 154 l 639 251 l 615 251 l 615 269 m 122 318 l 146 318 l 146 129 l 121 129 l 121 293 l 86 276 l 83 294 l 122 318 m 429 42 q 429 63 429 53 q 428 82 429 72 l 449 82 l 449 57 q 466 76 456 68 q 496 83 476 83 q 533 57 521 83 q 549 74 539 64 q 582 83 561 83 q 611 72 594 83 q 628 25 628 61 l 628 -60 l 600 -60 l 600 22 q 572 64 600 64 q 552 56 561 64 q 542 40 543 49 q 540 34 542 36 q 539 26 539 32 l 539 -60 l 515 -60 l 515 25 q 486 64 515 64 q 467 56 475 64 q 456 40 458 49 q 454 25 454 35 l 454 -60 l 429 -60 l 429 42 m 921 1013 l 972 1013 l 944 1151 l 921 1013 m 1050 129 l 1050 269 l 1075 269 l 1075 129 l 1050 129 m 328 67 q 297 49 307 67 q 286 10 286 31 q 298 -28 286 -11 q 328 -44 310 -44 q 359 -28 347 -44 q 371 13 371 -11 q 361 49 371 31 q 328 67 351 67 m 138 10 q 158 63 138 42 q 210 83 178 83 q 244 74 235 83 l 240 57 q 228 61 238 58 q 210 64 219 64 q 172 48 186 64 q 158 10 158 32 q 174 -26 158 -11 q 210 -42 189 -42 q 228 -39 219 -42 q 240 -35 238 -36 l 243 -51 q 229 -58 239 -56 q 207 -61 219 -61 q 156 -42 174 -61 q 138 10 138 -24 m 1063 293 q 1046 308 1046 293 q 1063 325 1046 325 q 1078 308 1078 325 q 1063 293 1078 293 m 99 -61 q 85 -56 89 -61 q 81 -44 81 -50 q 99 -26 81 -26 q 115 -44 115 -26 q 110 -56 115 -50 q 99 -61 106 -61 z "},"/":{"ha":1407,"x_min":69,"x_max":1338,"o":"m 357 514 q 347 569 347 539 l 347 715 q 357 771 347 742 q 370 792 363 782 q 388 811 378 803 q 431 838 407 829 q 481 847 454 847 q 532 838 507 847 q 576 811 557 829 q 606 768 597 796 q 615 715 615 740 l 615 569 q 577 474 615 511 q 481 436 539 436 q 431 444 454 436 q 388 472 407 453 q 357 514 368 489 m 492 1258 q 546 1250 525 1258 q 624 1132 624 1214 q 557 1019 624 1056 l 631 865 l 531 865 l 467 1007 l 444 1007 l 444 865 l 353 865 l 353 1258 l 492 1258 m 760 839 l 850 628 l 850 839 l 938 839 l 938 446 l 846 446 l 754 660 l 754 446 l 667 446 l 667 839 l 760 839 m 886 1258 l 1006 1258 l 1089 865 l 999 865 l 986 929 l 906 929 l 893 865 l 803 865 l 886 1258 m 1313 1356 l 1313 1301 l 79 1301 l 79 1356 l 1313 1356 m 1313 408 l 1313 357 l 79 357 l 79 408 l 1313 408 m 92 839 l 315 839 l 315 750 l 182 750 l 182 679 l 301 679 l 301 592 l 182 592 l 182 446 l 92 446 l 92 839 m 975 750 l 975 839 l 1219 839 l 1219 750 l 1143 750 l 1143 446 l 1051 446 l 1051 750 l 975 750 m 69 1258 l 313 1258 l 313 1171 l 238 1171 l 238 865 l 146 865 l 146 1171 l 69 1171 l 69 1258 m 1132 1258 l 1222 1258 l 1222 953 l 1338 953 l 1338 865 l 1132 865 l 1132 1258 m 760 1258 l 760 865 l 669 865 l 669 1258 l 760 1258 m 876 197 q 894 252 876 232 q 939 272 913 272 q 983 251 969 272 l 983 335 l 1008 335 l 1008 165 q 1008 147 1008 156 q 1010 129 1008 138 l 986 129 l 985 154 q 938 128 972 128 q 894 147 911 128 q 876 197 876 165 m 439 569 q 481 525 439 525 q 522 567 522 525 l 522 715 q 510 747 522 736 q 481 760 497 760 q 451 747 464 760 q 439 715 439 736 l 439 569 m 1107 197 q 1127 253 1107 233 q 1178 272 1147 272 q 1225 253 1207 272 q 1243 201 1243 233 q 1222 144 1243 161 q 1175 128 1200 128 q 1127 147 1147 128 q 1107 197 1107 165 m 775 128 q 742 139 758 128 q 726 189 726 150 l 726 269 l 753 269 l 753 192 q 783 149 753 149 q 809 159 799 149 q 819 185 819 169 l 819 269 l 844 269 l 844 167 q 845 149 844 158 q 846 129 846 139 l 824 129 l 821 151 q 806 135 818 143 q 775 128 794 128 m 1133 200 q 1144 161 1133 176 q 1175 146 1156 146 q 1206 161 1194 146 q 1217 200 1217 176 q 1208 235 1217 218 q 1175 253 1199 253 q 1144 237 1154 253 q 1133 200 1133 221 m 944 253 q 913 238 924 253 q 903 200 903 222 q 913 163 903 179 q 943 146 922 146 q 967 153 957 146 q 981 176 978 161 q 982 183 981 181 q 983 189 983 185 l 983 213 q 982 219 983 217 q 981 222 981 221 q 944 253 974 253 m 260 10 q 282 65 260 46 q 331 83 304 83 q 379 65 361 83 q 397 13 397 46 q 375 -43 397 -25 q 328 -61 353 -61 q 281 -42 301 -61 q 260 10 260 -24 m 218 297 l 218 318 l 336 318 l 336 300 l 254 129 l 228 129 l 310 297 l 218 297 m 485 318 l 485 300 l 403 129 l 376 129 l 458 297 l 364 297 l 364 318 l 485 318 m 515 156 q 547 146 528 146 q 576 167 576 146 q 549 192 576 181 q 513 232 513 206 q 525 260 513 249 q 561 272 538 272 q 594 264 579 272 l 589 246 q 561 253 578 253 q 536 233 536 253 q 542 221 536 225 q 563 211 549 217 q 600 169 600 196 q 547 128 600 128 q 507 138 526 128 l 515 156 m 486 1086 q 528 1128 528 1086 q 486 1171 528 1171 l 444 1171 l 444 1086 l 486 1086 m 615 269 l 639 269 l 639 303 l 664 310 l 664 269 l 700 269 l 700 251 l 664 251 l 664 175 q 682 149 664 149 q 697 150 693 149 l 697 131 q 675 128 690 128 q 645 141 651 128 q 639 175 639 154 l 639 251 l 615 251 l 615 269 m 122 318 l 146 318 l 146 129 l 121 129 l 121 293 l 86 276 l 83 294 l 122 318 m 429 42 q 429 63 429 53 q 428 82 429 72 l 449 82 l 449 57 q 466 76 456 68 q 496 83 476 83 q 533 57 521 83 q 549 74 539 64 q 582 83 561 83 q 611 72 594 83 q 628 25 628 61 l 628 -60 l 600 -60 l 600 22 q 572 64 600 64 q 552 56 561 64 q 542 40 543 49 q 540 34 542 36 q 539 26 539 32 l 539 -60 l 515 -60 l 515 25 q 486 64 515 64 q 467 56 475 64 q 456 40 458 49 q 454 25 454 35 l 454 -60 l 429 -60 l 429 42 m 921 1013 l 972 1013 l 944 1151 l 921 1013 m 1050 129 l 1050 269 l 1075 269 l 1075 129 l 1050 129 m 328 67 q 297 49 307 67 q 286 10 286 31 q 298 -28 286 -11 q 328 -44 310 -44 q 359 -28 347 -44 q 371 13 371 -11 q 361 49 371 31 q 328 67 351 67 m 138 10 q 158 63 138 42 q 210 83 178 83 q 244 74 235 83 l 240 57 q 228 61 238 58 q 210 64 219 64 q 172 48 186 64 q 158 10 158 32 q 174 -26 158 -11 q 210 -42 189 -42 q 228 -39 219 -42 q 240 -35 238 -36 l 243 -51 q 229 -58 239 -56 q 207 -61 219 -61 q 156 -42 174 -61 q 138 10 138 -24 m 1063 293 q 1046 308 1046 293 q 1063 325 1046 325 q 1078 308 1078 325 q 1063 293 1078 293 m 99 -61 q 85 -56 89 -61 q 81 -44 81 -50 q 99 -26 81 -26 q 115 -44 115 -26 q 110 -56 115 -50 q 99 -61 106 -61 z "},":":{"ha":1407,"x_min":69,"x_max":1338,"o":"m 357 514 q 347 569 347 539 l 347 715 q 357 771 347 742 q 370 792 363 782 q 388 811 378 803 q 431 838 407 829 q 481 847 454 847 q 532 838 507 847 q 576 811 557 829 q 606 768 597 796 q 615 715 615 740 l 615 569 q 577 474 615 511 q 481 436 539 436 q 431 444 454 436 q 388 472 407 453 q 357 514 368 489 m 492 1258 q 546 1250 525 1258 q 624 1132 624 1214 q 557 1019 624 1056 l 631 865 l 531 865 l 467 1007 l 444 1007 l 444 865 l 353 865 l 353 1258 l 492 1258 m 760 839 l 850 628 l 850 839 l 938 839 l 938 446 l 846 446 l 754 660 l 754 446 l 667 446 l 667 839 l 760 839 m 886 1258 l 1006 1258 l 1089 865 l 999 865 l 986 929 l 906 929 l 893 865 l 803 865 l 886 1258 m 1313 1356 l 1313 1301 l 79 1301 l 79 1356 l 1313 1356 m 1313 408 l 1313 357 l 79 357 l 79 408 l 1313 408 m 92 839 l 315 839 l 315 750 l 182 750 l 182 679 l 301 679 l 301 592 l 182 592 l 182 446 l 92 446 l 92 839 m 975 750 l 975 839 l 1219 839 l 1219 750 l 1143 750 l 1143 446 l 1051 446 l 1051 750 l 975 750 m 69 1258 l 313 1258 l 313 1171 l 238 1171 l 238 865 l 146 865 l 146 1171 l 69 1171 l 69 1258 m 1132 1258 l 1222 1258 l 1222 953 l 1338 953 l 1338 865 l 1132 865 l 1132 1258 m 760 1258 l 760 865 l 669 865 l 669 1258 l 760 1258 m 876 197 q 894 252 876 232 q 939 272 913 272 q 983 251 969 272 l 983 335 l 1008 335 l 1008 165 q 1008 147 1008 156 q 1010 129 1008 138 l 986 129 l 985 154 q 938 128 972 128 q 894 147 911 128 q 876 197 876 165 m 439 569 q 481 525 439 525 q 522 567 522 525 l 522 715 q 510 747 522 736 q 481 760 497 760 q 451 747 464 760 q 439 715 439 736 l 439 569 m 1107 197 q 1127 253 1107 233 q 1178 272 1147 272 q 1225 253 1207 272 q 1243 201 1243 233 q 1222 144 1243 161 q 1175 128 1200 128 q 1127 147 1147 128 q 1107 197 1107 165 m 775 128 q 742 139 758 128 q 726 189 726 150 l 726 269 l 753 269 l 753 192 q 783 149 753 149 q 809 159 799 149 q 819 185 819 169 l 819 269 l 844 269 l 844 167 q 845 149 844 158 q 846 129 846 139 l 824 129 l 821 151 q 806 135 818 143 q 775 128 794 128 m 1133 200 q 1144 161 1133 176 q 1175 146 1156 146 q 1206 161 1194 146 q 1217 200 1217 176 q 1208 235 1217 218 q 1175 253 1199 253 q 1144 237 1154 253 q 1133 200 1133 221 m 944 253 q 913 238 924 253 q 903 200 903 222 q 913 163 903 179 q 943 146 922 146 q 967 153 957 146 q 981 176 978 161 q 982 183 981 181 q 983 189 983 185 l 983 213 q 982 219 983 217 q 981 222 981 221 q 944 253 974 253 m 260 10 q 282 65 260 46 q 331 83 304 83 q 379 65 361 83 q 397 13 397 46 q 375 -43 397 -25 q 328 -61 353 -61 q 281 -42 301 -61 q 260 10 260 -24 m 218 297 l 218 318 l 336 318 l 336 300 l 254 129 l 228 129 l 310 297 l 218 297 m 485 318 l 485 300 l 403 129 l 376 129 l 458 297 l 364 297 l 364 318 l 485 318 m 515 156 q 547 146 528 146 q 576 167 576 146 q 549 192 576 181 q 513 232 513 206 q 525 260 513 249 q 561 272 538 272 q 594 264 579 272 l 589 246 q 561 253 578 253 q 536 233 536 253 q 542 221 536 225 q 563 211 549 217 q 600 169 600 196 q 547 128 600 128 q 507 138 526 128 l 515 156 m 486 1086 q 528 1128 528 1086 q 486 1171 528 1171 l 444 1171 l 444 1086 l 486 1086 m 615 269 l 639 269 l 639 303 l 664 310 l 664 269 l 700 269 l 700 251 l 664 251 l 664 175 q 682 149 664 149 q 697 150 693 149 l 697 131 q 675 128 690 128 q 645 141 651 128 q 639 175 639 154 l 639 251 l 615 251 l 615 269 m 122 318 l 146 318 l 146 129 l 121 129 l 121 293 l 86 276 l 83 294 l 122 318 m 429 42 q 429 63 429 53 q 428 82 429 72 l 449 82 l 449 57 q 466 76 456 68 q 496 83 476 83 q 533 57 521 83 q 549 74 539 64 q 582 83 561 83 q 611 72 594 83 q 628 25 628 61 l 628 -60 l 600 -60 l 600 22 q 572 64 600 64 q 552 56 561 64 q 542 40 543 49 q 540 34 542 36 q 539 26 539 32 l 539 -60 l 515 -60 l 515 25 q 486 64 515 64 q 467 56 475 64 q 456 40 458 49 q 454 25 454 35 l 454 -60 l 429 -60 l 429 42 m 921 1013 l 972 1013 l 944 1151 l 921 1013 m 1050 129 l 1050 269 l 1075 269 l 1075 129 l 1050 129 m 328 67 q 297 49 307 67 q 286 10 286 31 q 298 -28 286 -11 q 328 -44 310 -44 q 359 -28 347 -44 q 371 13 371 -11 q 361 49 371 31 q 328 67 351 67 m 138 10 q 158 63 138 42 q 210 83 178 83 q 244 74 235 83 l 240 57 q 228 61 238 58 q 210 64 219 64 q 172 48 186 64 q 158 10 158 32 q 174 -26 158 -11 q 210 -42 189 -42 q 228 -39 219 -42 q 240 -35 238 -36 l 243 -51 q 229 -58 239 -56 q 207 -61 219 -61 q 156 -42 174 -61 q 138 10 138 -24 m 1063 293 q 1046 308 1046 293 q 1063 325 1046 325 q 1078 308 1078 325 q 1063 293 1078 293 m 99 -61 q 85 -56 89 -61 q 81 -44 81 -50 q 99 -26 81 -26 q 115 -44 115 -26 q 110 -56 115 -50 q 99 -61 106 -61 z "},";":{"ha":1407,"x_min":69,"x_max":1338,"o":"m 357 514 q 347 569 347 539 l 347 715 q 357 771 347 742 q 370 792 363 782 q 388 811 378 803 q 431 838 407 829 q 481 847 454 847 q 532 838 507 847 q 576 811 557 829 q 606 768 597 796 q 615 715 615 740 l 615 569 q 577 474 615 511 q 481 436 539 436 q 431 444 454 436 q 388 472 407 453 q 357 514 368 489 m 492 1258 q 546 1250 525 1258 q 624 1132 624 1214 q 557 1019 624 1056 l 631 865 l 531 865 l 467 1007 l 444 1007 l 444 865 l 353 865 l 353 1258 l 492 1258 m 760 839 l 850 628 l 850 839 l 938 839 l 938 446 l 846 446 l 754 660 l 754 446 l 667 446 l 667 839 l 760 839 m 886 1258 l 1006 1258 l 1089 865 l 999 865 l 986 929 l 906 929 l 893 865 l 803 865 l 886 1258 m 1313 1356 l 1313 1301 l 79 1301 l 79 1356 l 1313 1356 m 1313 408 l 1313 357 l 79 357 l 79 408 l 1313 408 m 92 839 l 315 839 l 315 750 l 182 750 l 182 679 l 301 679 l 301 592 l 182 592 l 182 446 l 92 446 l 92 839 m 975 750 l 975 839 l 1219 839 l 1219 750 l 1143 750 l 1143 446 l 1051 446 l 1051 750 l 975 750 m 69 1258 l 313 1258 l 313 1171 l 238 1171 l 238 865 l 146 865 l 146 1171 l 69 1171 l 69 1258 m 1132 1258 l 1222 1258 l 1222 953 l 1338 953 l 1338 865 l 1132 865 l 1132 1258 m 760 1258 l 760 865 l 669 865 l 669 1258 l 760 1258 m 876 197 q 894 252 876 232 q 939 272 913 272 q 983 251 969 272 l 983 335 l 1008 335 l 1008 165 q 1008 147 1008 156 q 1010 129 1008 138 l 986 129 l 985 154 q 938 128 972 128 q 894 147 911 128 q 876 197 876 165 m 439 569 q 481 525 439 525 q 522 567 522 525 l 522 715 q 510 747 522 736 q 481 760 497 760 q 451 747 464 760 q 439 715 439 736 l 439 569 m 1107 197 q 1127 253 1107 233 q 1178 272 1147 272 q 1225 253 1207 272 q 1243 201 1243 233 q 1222 144 1243 161 q 1175 128 1200 128 q 1127 147 1147 128 q 1107 197 1107 165 m 775 128 q 742 139 758 128 q 726 189 726 150 l 726 269 l 753 269 l 753 192 q 783 149 753 149 q 809 159 799 149 q 819 185 819 169 l 819 269 l 844 269 l 844 167 q 845 149 844 158 q 846 129 846 139 l 824 129 l 821 151 q 806 135 818 143 q 775 128 794 128 m 1133 200 q 1144 161 1133 176 q 1175 146 1156 146 q 1206 161 1194 146 q 1217 200 1217 176 q 1208 235 1217 218 q 1175 253 1199 253 q 1144 237 1154 253 q 1133 200 1133 221 m 944 253 q 913 238 924 253 q 903 200 903 222 q 913 163 903 179 q 943 146 922 146 q 967 153 957 146 q 981 176 978 161 q 982 183 981 181 q 983 189 983 185 l 983 213 q 982 219 983 217 q 981 222 981 221 q 944 253 974 253 m 260 10 q 282 65 260 46 q 331 83 304 83 q 379 65 361 83 q 397 13 397 46 q 375 -43 397 -25 q 328 -61 353 -61 q 281 -42 301 -61 q 260 10 260 -24 m 218 297 l 218 318 l 336 318 l 336 300 l 254 129 l 228 129 l 310 297 l 218 297 m 485 318 l 485 300 l 403 129 l 376 129 l 458 297 l 364 297 l 364 318 l 485 318 m 515 156 q 547 146 528 146 q 576 167 576 146 q 549 192 576 181 q 513 232 513 206 q 525 260 513 249 q 561 272 538 272 q 594 264 579 272 l 589 246 q 561 253 578 253 q 536 233 536 253 q 542 221 536 225 q 563 211 549 217 q 600 169 600 196 q 547 128 600 128 q 507 138 526 128 l 515 156 m 486 1086 q 528 1128 528 1086 q 486 1171 528 1171 l 444 1171 l 444 1086 l 486 1086 m 615 269 l 639 269 l 639 303 l 664 310 l 664 269 l 700 269 l 700 251 l 664 251 l 664 175 q 682 149 664 149 q 697 150 693 149 l 697 131 q 675 128 690 128 q 645 141 651 128 q 639 175 639 154 l 639 251 l 615 251 l 615 269 m 122 318 l 146 318 l 146 129 l 121 129 l 121 293 l 86 276 l 83 294 l 122 318 m 429 42 q 429 63 429 53 q 428 82 429 72 l 449 82 l 449 57 q 466 76 456 68 q 496 83 476 83 q 533 57 521 83 q 549 74 539 64 q 582 83 561 83 q 611 72 594 83 q 628 25 628 61 l 628 -60 l 600 -60 l 600 22 q 572 64 600 64 q 552 56 561 64 q 542 40 543 49 q 540 34 542 36 q 539 26 539 32 l 539 -60 l 515 -60 l 515 25 q 486 64 515 64 q 467 56 475 64 q 456 40 458 49 q 454 25 454 35 l 454 -60 l 429 -60 l 429 42 m 921 1013 l 972 1013 l 944 1151 l 921 1013 m 1050 129 l 1050 269 l 1075 269 l 1075 129 l 1050 129 m 328 67 q 297 49 307 67 q 286 10 286 31 q 298 -28 286 -11 q 328 -44 310 -44 q 359 -28 347 -44 q 371 13 371 -11 q 361 49 371 31 q 328 67 351 67 m 138 10 q 158 63 138 42 q 210 83 178 83 q 244 74 235 83 l 240 57 q 228 61 238 58 q 210 64 219 64 q 172 48 186 64 q 158 10 158 32 q 174 -26 158 -11 q 210 -42 189 -42 q 228 -39 219 -42 q 240 -35 238 -36 l 243 -51 q 229 -58 239 -56 q 207 -61 219 -61 q 156 -42 174 -61 q 138 10 138 -24 m 1063 293 q 1046 308 1046 293 q 1063 325 1046 325 q 1078 308 1078 325 q 1063 293 1078 293 m 99 -61 q 85 -56 89 -61 q 81 -44 81 -50 q 99 -26 81 -26 q 115 -44 115 -26 q 110 -56 115 -50 q 99 -61 106 -61 z "},"<":{"ha":431,"x_min":58,"x_max":358,"o":"m 76 557 q 76 606 58 581 l 282 889 q 318 906 296 906 q 342 899 331 906 q 356 877 354 888 q 358 863 358 867 q 350 840 358 850 l 161 581 l 350 324 q 358 301 358 313 q 356 287 358 297 q 342 265 354 276 q 317 257 329 257 q 282 275 296 257 l 76 557 z "},"=":{"ha":617,"x_min":57,"x_max":557,"o":"m 99 617 q 69 628 82 617 q 57 657 57 640 q 69 687 57 675 q 99 699 82 699 l 517 699 q 546 687 535 699 q 557 657 557 675 q 546 628 557 640 q 517 617 535 617 l 99 617 m 57 506 q 69 535 57 524 q 99 547 82 547 l 517 547 q 546 535 535 547 q 557 506 557 524 q 546 476 557 488 q 517 464 535 464 l 99 464 q 69 476 82 464 q 57 506 57 488 z "},">":{"ha":431,"x_min":71,"x_max":369,"o":"m 89 265 q 72 286 74 276 q 71 299 71 296 q 81 324 71 314 l 268 581 l 81 840 q 71 865 71 850 q 72 878 71 868 q 89 897 74 888 q 114 906 99 906 q 146 889 133 906 l 354 606 q 354 557 369 581 l 146 275 q 113 257 136 257 q 89 265 99 257 z "},"?":{"ha":1057,"x_min":82,"x_max":981,"o":"m 129 990 q 94 1006 106 990 q 82 1035 82 1021 q 85 1049 82 1040 q 152 1175 108 1118 q 253 1273 196 1232 q 379 1336 311 1314 q 521 1358 447 1358 l 981 1358 l 981 1011 q 942 821 981 910 q 838 666 904 732 q 682 562 771 600 q 493 524 593 524 l 201 524 l 201 251 l 82 251 l 82 642 l 750 642 q 830 678 797 644 q 863 760 863 711 l 863 1240 l 294 1240 q 212 1206 247 1240 q 176 1122 176 1172 l 176 1038 l 176 1033 q 163 1003 176 1015 q 129 990 149 990 m 82 0 l 82 154 l 204 154 l 204 0 l 82 0 z "},"@":{"ha":1407,"x_min":69,"x_max":1338,"o":"m 357 514 q 347 569 347 539 l 347 715 q 357 771 347 742 q 370 792 363 782 q 388 811 378 803 q 431 838 407 829 q 481 847 454 847 q 532 838 507 847 q 576 811 557 829 q 606 768 597 796 q 615 715 615 740 l 615 569 q 577 474 615 511 q 481 436 539 436 q 431 444 454 436 q 388 472 407 453 q 357 514 368 489 m 492 1258 q 546 1250 525 1258 q 624 1132 624 1214 q 557 1019 624 1056 l 631 865 l 531 865 l 467 1007 l 444 1007 l 444 865 l 353 865 l 353 1258 l 492 1258 m 760 839 l 850 628 l 850 839 l 938 839 l 938 446 l 846 446 l 754 660 l 754 446 l 667 446 l 667 839 l 760 839 m 886 1258 l 1006 1258 l 1089 865 l 999 865 l 986 929 l 906 929 l 893 865 l 803 865 l 886 1258 m 1313 1356 l 1313 1301 l 79 1301 l 79 1356 l 1313 1356 m 1313 408 l 1313 357 l 79 357 l 79 408 l 1313 408 m 92 839 l 315 839 l 315 750 l 182 750 l 182 679 l 301 679 l 301 592 l 182 592 l 182 446 l 92 446 l 92 839 m 975 750 l 975 839 l 1219 839 l 1219 750 l 1143 750 l 1143 446 l 1051 446 l 1051 750 l 975 750 m 69 1258 l 313 1258 l 313 1171 l 238 1171 l 238 865 l 146 865 l 146 1171 l 69 1171 l 69 1258 m 1132 1258 l 1222 1258 l 1222 953 l 1338 953 l 1338 865 l 1132 865 l 1132 1258 m 760 1258 l 760 865 l 669 865 l 669 1258 l 760 1258 m 876 197 q 894 252 876 232 q 939 272 913 272 q 983 251 969 272 l 983 335 l 1008 335 l 1008 165 q 1008 147 1008 156 q 1010 129 1008 138 l 986 129 l 985 154 q 938 128 972 128 q 894 147 911 128 q 876 197 876 165 m 439 569 q 481 525 439 525 q 522 567 522 525 l 522 715 q 510 747 522 736 q 481 760 497 760 q 451 747 464 760 q 439 715 439 736 l 439 569 m 1107 197 q 1127 253 1107 233 q 1178 272 1147 272 q 1225 253 1207 272 q 1243 201 1243 233 q 1222 144 1243 161 q 1175 128 1200 128 q 1127 147 1147 128 q 1107 197 1107 165 m 775 128 q 742 139 758 128 q 726 189 726 150 l 726 269 l 753 269 l 753 192 q 783 149 753 149 q 809 159 799 149 q 819 185 819 169 l 819 269 l 844 269 l 844 167 q 845 149 844 158 q 846 129 846 139 l 824 129 l 821 151 q 806 135 818 143 q 775 128 794 128 m 1133 200 q 1144 161 1133 176 q 1175 146 1156 146 q 1206 161 1194 146 q 1217 200 1217 176 q 1208 235 1217 218 q 1175 253 1199 253 q 1144 237 1154 253 q 1133 200 1133 221 m 944 253 q 913 238 924 253 q 903 200 903 222 q 913 163 903 179 q 943 146 922 146 q 967 153 957 146 q 981 176 978 161 q 982 183 981 181 q 983 189 983 185 l 983 213 q 982 219 983 217 q 981 222 981 221 q 944 253 974 253 m 260 10 q 282 65 260 46 q 331 83 304 83 q 379 65 361 83 q 397 13 397 46 q 375 -43 397 -25 q 328 -61 353 -61 q 281 -42 301 -61 q 260 10 260 -24 m 218 297 l 218 318 l 336 318 l 336 300 l 254 129 l 228 129 l 310 297 l 218 297 m 485 318 l 485 300 l 403 129 l 376 129 l 458 297 l 364 297 l 364 318 l 485 318 m 515 156 q 547 146 528 146 q 576 167 576 146 q 549 192 576 181 q 513 232 513 206 q 525 260 513 249 q 561 272 538 272 q 594 264 579 272 l 589 246 q 561 253 578 253 q 536 233 536 253 q 542 221 536 225 q 563 211 549 217 q 600 169 600 196 q 547 128 600 128 q 507 138 526 128 l 515 156 m 486 1086 q 528 1128 528 1086 q 486 1171 528 1171 l 444 1171 l 444 1086 l 486 1086 m 615 269 l 639 269 l 639 303 l 664 310 l 664 269 l 700 269 l 700 251 l 664 251 l 664 175 q 682 149 664 149 q 697 150 693 149 l 697 131 q 675 128 690 128 q 645 141 651 128 q 639 175 639 154 l 639 251 l 615 251 l 615 269 m 122 318 l 146 318 l 146 129 l 121 129 l 121 293 l 86 276 l 83 294 l 122 318 m 429 42 q 429 63 429 53 q 428 82 429 72 l 449 82 l 449 57 q 466 76 456 68 q 496 83 476 83 q 533 57 521 83 q 549 74 539 64 q 582 83 561 83 q 611 72 594 83 q 628 25 628 61 l 628 -60 l 600 -60 l 600 22 q 572 64 600 64 q 552 56 561 64 q 542 40 543 49 q 540 34 542 36 q 539 26 539 32 l 539 -60 l 515 -60 l 515 25 q 486 64 515 64 q 467 56 475 64 q 456 40 458 49 q 454 25 454 35 l 454 -60 l 429 -60 l 429 42 m 921 1013 l 972 1013 l 944 1151 l 921 1013 m 1050 129 l 1050 269 l 1075 269 l 1075 129 l 1050 129 m 328 67 q 297 49 307 67 q 286 10 286 31 q 298 -28 286 -11 q 328 -44 310 -44 q 359 -28 347 -44 q 371 13 371 -11 q 361 49 371 31 q 328 67 351 67 m 138 10 q 158 63 138 42 q 210 83 178 83 q 244 74 235 83 l 240 57 q 228 61 238 58 q 210 64 219 64 q 172 48 186 64 q 158 10 158 32 q 174 -26 158 -11 q 210 -42 189 -42 q 228 -39 219 -42 q 240 -35 238 -36 l 243 -51 q 229 -58 239 -56 q 207 -61 219 -61 q 156 -42 174 -61 q 138 10 138 -24 m 1063 293 q 1046 308 1046 293 q 1063 325 1046 325 q 1078 308 1078 325 q 1063 293 1078 293 m 99 -61 q 85 -56 89 -61 q 81 -44 81 -50 q 99 -26 81 -26 q 115 -44 115 -26 q 110 -56 115 -50 q 99 -61 106 -61 z "},"A":{"ha":1522,"x_min":40,"x_max":1482,"o":"m 157 0 l 40 0 l 40 136 q 65 423 40 281 q 138 701 90 565 q 258 963 186 836 q 421 1200 329 1089 q 570 1316 483 1275 q 754 1357 657 1357 l 761 1357 q 953 1315 861 1357 q 1107 1193 1044 1272 q 1387 703 1292 969 q 1482 146 1482 436 l 1482 0 l 1365 0 l 1365 621 l 157 621 l 157 0 m 643 1286 q 543 1165 603 1238 q 419 1014 483 1092 q 296 863 356 936 q 194 739 236 789 l 1329 739 q 1265 817 1301 772 q 1188 911 1228 861 q 1104 1014 1147 961 q 1020 1116 1061 1067 q 943 1209 979 1165 q 881 1286 907 1253 q 827 1328 858 1314 q 761 1343 796 1343 q 695 1328 726 1343 q 643 1286 664 1314 z "},"B":{"ha":1486,"x_min":58,"x_max":1426,"o":"m 58 0 l 58 1357 l 1151 1357 q 1253 1337 1206 1357 q 1338 1283 1301 1317 q 1398 1202 1375 1249 q 1425 1103 1421 1156 q 1426 1090 1426 1096 q 1426 1078 1426 1085 q 1410 967 1426 1024 q 1357 856 1393 910 q 1273 756 1321 800 q 1171 681 1225 711 q 1268 610 1222 651 q 1349 519 1314 569 q 1404 410 1383 468 q 1426 289 1425 351 l 1426 275 q 1405 168 1426 218 q 1346 81 1383 118 q 1258 22 1308 43 q 1151 0 1208 0 l 58 0 m 176 739 l 1190 739 q 1273 774 1239 739 q 1307 857 1307 808 l 1307 1121 q 1273 1205 1307 1169 q 1190 1240 1239 1240 l 176 1240 l 176 739 m 176 118 l 1190 118 q 1273 153 1239 118 q 1307 236 1307 188 l 1307 504 q 1298 549 1307 528 q 1273 587 1289 571 q 1236 612 1257 603 q 1190 621 1215 621 l 176 621 l 176 118 z "},"C":{"ha":1444,"x_min":49,"x_max":1396,"o":"m 49 869 q 87 1060 49 971 q 192 1215 125 1149 q 347 1319 258 1281 q 536 1357 436 1357 l 956 1357 q 1097 1335 1029 1357 q 1223 1272 1165 1313 q 1324 1174 1281 1231 q 1393 1047 1368 1117 q 1396 1033 1396 1039 q 1384 1004 1396 1019 q 1349 989 1372 989 q 1315 1002 1329 989 q 1300 1036 1300 1015 l 1300 1121 q 1266 1205 1300 1169 q 1182 1240 1232 1240 l 285 1240 q 202 1205 236 1240 q 168 1121 168 1169 l 168 236 q 202 153 168 188 q 285 118 236 118 l 1182 118 q 1265 153 1231 118 q 1300 236 1300 188 l 1300 321 q 1315 354 1300 340 q 1349 368 1329 368 q 1383 351 1372 368 q 1394 324 1394 335 q 1390 304 1394 314 q 1322 179 1365 235 q 1220 83 1278 124 q 1095 22 1163 43 q 956 0 1028 0 l 536 0 q 347 38 436 0 q 192 142 258 76 q 87 297 125 208 q 49 488 49 386 l 49 869 z "},"D":{"ha":1476,"x_min":58,"x_max":1426,"o":"m 939 1357 q 1128 1319 1039 1357 q 1283 1215 1217 1281 q 1388 1060 1350 1149 q 1426 869 1426 971 l 1426 488 q 1388 297 1426 386 q 1283 142 1350 208 q 1128 38 1217 76 q 939 0 1039 0 l 58 0 l 58 1357 l 939 1357 m 1190 118 q 1273 153 1239 118 q 1307 236 1307 188 l 1307 1121 q 1273 1205 1307 1169 q 1190 1240 1239 1240 l 176 1240 l 176 118 l 1190 118 z "},"E":{"ha":1428,"x_min":50,"x_max":1418,"o":"m 538 0 q 347 38 436 0 q 192 142 258 76 q 88 297 126 208 q 50 488 50 386 l 50 869 q 88 1060 50 971 q 192 1215 126 1149 q 347 1319 258 1281 q 538 1357 436 1357 l 1418 1357 l 1418 1240 l 286 1240 q 202 1205 236 1240 q 168 1121 168 1169 l 168 739 l 1181 739 l 1181 621 l 168 621 l 168 236 q 203 153 168 188 q 286 118 238 118 l 1418 118 l 1418 0 l 538 0 z "},"F":{"ha":1421,"x_min":54,"x_max":1421,"o":"m 54 0 l 54 869 q 92 1060 54 971 q 197 1215 131 1149 q 351 1319 263 1281 q 542 1357 440 1357 l 1421 1357 l 1421 1240 l 290 1240 q 244 1231 265 1240 q 206 1205 222 1221 q 181 1167 190 1189 q 171 1121 171 1146 l 171 739 l 1185 739 l 1185 621 l 171 621 l 171 0 l 54 0 z "},"G":{"ha":1465,"x_min":50,"x_max":1419,"o":"m 50 869 q 88 1060 50 971 q 192 1215 126 1149 q 347 1319 258 1281 q 538 1357 436 1357 l 957 1357 q 1098 1335 1029 1357 q 1224 1272 1167 1313 q 1326 1174 1282 1231 q 1393 1047 1369 1117 q 1396 1032 1396 1036 q 1385 1004 1396 1019 q 1350 989 1374 989 q 1316 1002 1331 989 q 1301 1036 1301 1015 l 1301 1121 q 1267 1205 1301 1169 q 1183 1240 1233 1240 l 286 1240 q 202 1205 236 1240 q 168 1121 168 1169 l 168 236 q 203 153 168 188 q 286 118 238 118 l 1183 118 q 1267 153 1232 118 q 1301 236 1301 188 l 1301 621 l 929 621 l 929 739 l 1419 739 l 1419 488 q 1381 297 1419 386 q 1276 142 1343 208 q 1121 38 1210 76 q 931 0 1032 0 l 538 0 q 347 38 436 0 q 192 142 258 76 q 88 297 126 208 q 50 488 50 386 l 50 869 z "},"H":{"ha":1486,"x_min":58,"x_max":1428,"o":"m 58 0 l 58 1357 l 176 1357 l 176 857 q 211 774 176 808 q 294 739 246 739 l 947 739 q 1143 696 1047 739 q 1310 569 1239 653 l 1310 1357 l 1428 1357 l 1428 0 l 1310 0 l 1310 506 q 1274 588 1308 554 q 1193 621 1240 621 l 540 621 q 338 667 432 622 q 176 792 244 713 l 176 0 l 58 0 z "},"I":{"ha":240,"x_min":58,"x_max":176,"o":"m 58 0 l 58 1357 l 176 1357 l 176 0 l 58 0 z "},"J":{"ha":1439,"x_min":15,"x_max":1385,"o":"m 132 621 l 132 236 q 167 152 132 186 q 251 118 203 118 l 1149 118 q 1232 153 1197 118 q 1267 236 1267 188 l 1267 1240 l 506 1240 l 506 1357 l 1385 1357 l 1385 488 q 1347 297 1385 386 q 1242 142 1308 208 q 1086 38 1175 76 q 896 0 997 0 l 503 0 q 313 38 401 0 q 158 142 224 76 q 53 297 92 208 q 15 488 15 386 l 15 621 l 132 621 z "},"K":{"ha":1483,"x_min":58,"x_max":1429,"o":"m 58 0 l 58 1357 l 176 1357 l 176 739 l 1193 739 q 1276 773 1242 739 q 1310 857 1310 807 l 1310 1357 l 1429 1357 l 1429 1101 q 1410 965 1429 1028 q 1356 849 1390 901 q 1274 753 1321 796 q 1174 681 1228 711 q 1271 610 1225 651 q 1352 518 1317 568 q 1408 410 1388 468 q 1429 289 1429 351 l 1429 0 l 1310 0 l 1310 504 q 1276 587 1310 553 q 1193 621 1242 621 l 176 621 l 176 0 l 58 0 z "},"L":{"ha":1424,"x_min":54,"x_max":1424,"o":"m 171 1357 l 171 236 q 206 152 171 186 q 290 118 242 118 l 1424 118 l 1424 0 l 542 0 q 351 38 440 0 q 197 142 263 76 q 92 297 131 208 q 54 488 54 386 l 54 1357 l 171 1357 z "},"M":{"ha":1489,"x_min":58,"x_max":1431,"o":"m 58 1281 q 81 1335 58 1313 q 136 1357 104 1357 q 200 1325 175 1357 l 575 804 q 649 741 604 764 q 743 718 693 718 l 744 718 q 840 741 796 718 q 914 804 885 764 l 1289 1325 q 1353 1357 1314 1357 q 1408 1335 1385 1357 q 1431 1281 1431 1313 l 1431 0 l 1311 0 l 1311 1156 q 1224 1035 1271 1097 q 1129 901 1178 972 q 956 753 1058 801 q 744 704 854 704 q 534 753 636 704 q 360 901 432 801 l 176 1156 l 176 0 l 58 0 l 58 1281 z "},"N":{"ha":1483,"x_min":57,"x_max":1426,"o":"m 57 0 l 57 1081 q 78 1189 57 1139 q 138 1276 100 1239 q 225 1335 175 1314 q 332 1357 275 1357 q 479 1314 413 1357 q 578 1196 546 1271 q 656 1019 613 1117 q 746 817 699 922 q 841 604 793 711 q 933 399 889 497 q 1015 220 978 301 q 1076 85 1051 139 q 1120 34 1090 53 q 1185 15 1150 15 l 1189 15 q 1274 50 1239 15 q 1308 135 1308 85 l 1308 1357 l 1426 1357 l 1426 265 q 1406 162 1426 210 q 1349 78 1385 114 q 1265 21 1314 42 q 1163 0 1217 0 l 1156 0 q 1012 42 1076 0 q 915 156 947 85 q 842 322 883 228 q 753 519 800 415 q 657 732 706 624 q 564 940 608 840 q 481 1125 519 1040 q 418 1267 443 1210 q 371 1320 401 1300 q 303 1340 340 1340 q 252 1330 275 1340 q 212 1302 229 1319 q 185 1261 194 1285 q 175 1211 175 1238 l 175 0 l 57 0 z "},"O":{"ha":1543,"x_min":50,"x_max":1493,"o":"m 538 0 q 347 38 436 0 q 192 142 258 76 q 88 297 126 208 q 50 488 50 386 l 50 869 q 88 1060 50 971 q 192 1215 126 1149 q 347 1319 258 1281 q 538 1357 436 1357 l 1006 1357 q 1196 1319 1107 1357 q 1351 1215 1285 1281 q 1455 1060 1417 1149 q 1493 869 1493 971 l 1493 488 q 1455 297 1493 386 q 1351 142 1417 208 q 1196 38 1285 76 q 1006 0 1107 0 l 538 0 m 286 1240 q 202 1205 236 1240 q 168 1121 168 1169 l 168 236 q 203 153 168 188 q 286 118 238 118 l 1256 118 q 1340 153 1306 118 q 1375 236 1375 188 l 1375 1121 q 1366 1167 1375 1146 q 1340 1205 1357 1189 q 1302 1231 1324 1221 q 1256 1240 1281 1240 l 286 1240 z "},"P":{"ha":1444,"x_min":58,"x_max":1425,"o":"m 58 0 l 58 1357 l 1151 1357 q 1253 1337 1206 1357 q 1338 1283 1301 1317 q 1398 1202 1375 1249 q 1425 1103 1421 1156 l 1425 1079 q 1387 913 1425 994 q 1282 765 1349 832 q 1132 660 1215 699 q 968 621 1049 622 l 176 621 l 176 0 l 58 0 m 176 739 l 1190 739 q 1273 774 1239 739 q 1307 857 1307 808 l 1307 1121 q 1273 1205 1307 1169 q 1190 1240 1239 1240 l 176 1240 l 176 739 z "},"Q":{"ha":1544,"x_min":50,"x_max":1493,"o":"m 538 0 q 347 38 436 0 q 192 142 258 76 q 88 297 126 208 q 50 488 50 386 l 50 869 q 88 1060 50 971 q 192 1215 126 1149 q 347 1319 258 1281 q 538 1357 436 1357 l 1006 1357 q 1196 1319 1107 1357 q 1351 1215 1285 1281 q 1455 1060 1417 1149 q 1493 869 1493 971 l 1493 185 l 1375 185 l 1375 1121 q 1366 1167 1375 1146 q 1340 1205 1357 1189 q 1302 1231 1324 1221 q 1256 1240 1281 1240 l 286 1240 q 202 1205 236 1240 q 168 1121 168 1169 l 168 236 q 203 153 168 188 q 286 118 238 118 l 1493 118 l 1493 0 l 538 0 z "},"R":{"ha":1483,"x_min":54,"x_max":1421,"o":"m 171 0 l 54 0 l 54 869 q 92 1060 54 971 q 197 1215 131 1149 q 351 1319 263 1281 q 542 1357 440 1357 l 1146 1357 q 1249 1337 1201 1357 q 1333 1283 1297 1317 q 1392 1202 1369 1249 q 1419 1103 1415 1156 q 1421 1090 1421 1096 q 1421 1078 1421 1085 q 1403 967 1421 1024 q 1351 856 1386 910 q 1269 756 1317 800 q 1167 681 1221 711 q 1264 610 1218 651 q 1344 519 1310 569 q 1399 410 1378 468 q 1421 289 1419 351 l 1421 0 l 1303 0 l 1303 504 q 1269 587 1303 553 q 1185 621 1235 621 l 171 621 l 171 0 m 171 739 l 1185 739 q 1268 774 1233 739 q 1303 857 1303 808 l 1303 1121 q 1269 1205 1303 1169 q 1185 1240 1235 1240 l 290 1240 q 244 1231 265 1240 q 206 1205 222 1221 q 181 1167 190 1189 q 171 1121 171 1146 l 171 739 z "},"S":{"ha":1468,"x_min":53,"x_max":1422,"o":"m 56 310 q 53 325 53 321 q 64 353 53 338 q 99 368 75 368 q 132 356 118 368 q 146 325 146 343 l 146 321 l 146 236 q 181 152 146 186 q 265 118 217 118 l 1186 118 q 1269 153 1235 118 q 1304 236 1304 188 l 1304 621 l 53 621 l 53 869 q 91 1060 53 971 q 195 1215 129 1149 q 350 1319 261 1281 q 540 1357 439 1357 l 960 1357 q 1101 1335 1033 1357 q 1226 1272 1169 1313 q 1327 1174 1283 1231 q 1396 1047 1371 1117 q 1399 1033 1399 1039 q 1387 1004 1399 1019 q 1353 989 1375 989 q 1319 1002 1333 989 q 1304 1036 1304 1015 l 1304 1121 q 1270 1205 1304 1169 q 1186 1240 1236 1240 l 289 1240 q 205 1205 239 1240 q 171 1121 171 1169 l 171 739 l 1422 739 l 1422 488 q 1384 297 1422 386 q 1280 142 1346 208 q 1125 38 1214 76 q 935 0 1036 0 l 492 0 q 349 22 418 0 q 223 85 281 44 q 122 183 165 126 q 56 310 79 240 z "},"T":{"ha":1392,"x_min":10,"x_max":1381,"o":"m 10 1357 l 278 1357 q 408 1338 346 1357 q 526 1284 471 1318 q 625 1203 581 1250 q 700 1103 669 1157 q 770 1200 729 1154 q 861 1281 811 1246 q 969 1336 911 1315 q 1090 1357 1028 1357 l 1381 1357 l 1381 1240 l 876 1240 q 792 1205 826 1240 q 758 1121 758 1169 l 758 0 l 640 0 l 640 1121 q 606 1205 640 1169 q 522 1240 572 1240 l 10 1240 l 10 1357 z "},"U":{"ha":1551,"x_min":54,"x_max":1496,"o":"m 542 0 q 351 38 440 0 q 197 142 263 76 q 92 297 131 208 q 54 488 54 386 l 54 1357 l 171 1357 l 171 236 q 206 152 171 186 q 290 118 242 118 l 1260 118 q 1344 153 1310 118 q 1379 236 1379 188 l 1379 1357 l 1496 1357 l 1496 488 q 1458 297 1496 386 q 1353 142 1419 208 q 1199 38 1288 76 q 1008 0 1110 0 l 542 0 z "},"V":{"ha":1521,"x_min":39,"x_max":1481,"o":"m 39 1357 l 156 1357 l 156 706 q 163 665 156 685 q 183 631 171 646 q 247 553 210 599 q 325 458 283 508 q 410 353 367 407 q 497 247 454 299 q 576 150 539 196 q 642 71 614 104 q 694 28 663 43 q 760 14 725 14 q 881 71 832 14 q 983 197 922 121 q 1110 353 1043 272 q 1237 507 1176 433 q 1338 631 1297 581 q 1364 706 1364 663 l 1364 1357 l 1481 1357 l 1481 1211 q 1385 654 1481 921 q 1106 164 1290 388 q 951 42 1042 85 q 760 0 860 0 l 753 0 q 569 41 656 0 q 419 157 482 82 q 135 656 232 385 q 39 1221 39 926 l 39 1357 z "},"W":{"ha":1489,"x_min":58,"x_max":1431,"o":"m 58 1357 l 176 1357 l 176 203 l 360 456 q 534 605 432 556 q 744 654 636 654 q 956 605 854 654 q 1129 456 1058 556 q 1224 323 1178 388 q 1311 203 1271 258 l 1311 1357 l 1431 1357 l 1431 78 q 1407 23 1431 46 q 1351 0 1383 0 q 1289 32 1314 0 l 914 554 q 840 617 885 594 q 744 640 796 640 l 743 640 q 649 617 693 640 q 575 554 604 594 l 200 32 q 136 0 175 0 q 81 23 104 0 q 58 78 58 46 l 58 1357 z "},"X":{"ha":1483,"x_min":58,"x_max":1429,"o":"m 58 1357 l 176 1357 l 176 857 q 212 773 176 807 q 294 739 247 739 l 1193 739 q 1276 773 1242 739 q 1310 857 1310 807 l 1310 1357 l 1429 1357 l 1429 1101 q 1410 965 1429 1028 q 1356 849 1390 901 q 1274 753 1321 796 q 1174 681 1228 711 q 1271 610 1225 651 q 1352 518 1317 568 q 1408 410 1388 468 q 1429 289 1429 351 l 1429 0 l 1310 0 l 1310 504 q 1276 587 1310 553 q 1193 621 1242 621 l 293 621 q 210 587 244 621 q 176 504 176 553 l 176 0 l 58 0 l 58 289 q 79 410 58 351 q 135 518 100 468 q 217 610 171 568 q 314 681 263 651 q 213 753 260 711 q 131 849 165 796 q 78 965 97 901 q 58 1101 58 1028 l 58 1357 z "},"Y":{"ha":1419,"x_min":25,"x_max":1394,"o":"m 518 621 q 335 654 424 622 q 177 747 246 686 q 67 897 108 808 q 25 1101 25 986 l 25 1357 l 143 1357 l 143 857 q 178 774 143 808 q 261 739 213 739 l 289 739 q 535 670 428 739 q 710 483 643 601 q 781 581 739 535 q 873 663 822 628 q 981 718 924 697 q 1101 739 1039 739 l 1158 739 q 1242 774 1207 739 q 1276 857 1276 808 l 1276 1357 l 1394 1357 l 1394 1101 q 1353 897 1394 986 q 1242 747 1311 808 q 1085 654 1174 686 q 903 621 996 622 l 888 621 q 841 612 863 621 q 803 587 819 603 q 778 550 788 571 q 768 506 768 529 l 768 0 l 651 0 l 651 503 q 616 587 651 553 q 532 621 581 621 l 518 621 z "},"Z":{"ha":1468,"x_min":46,"x_max":1417,"o":"m 129 0 q 70 24 94 0 q 46 82 46 49 q 72 143 46 117 l 1242 1240 l 282 1240 q 237 1231 258 1240 q 199 1205 215 1221 q 174 1167 183 1189 q 164 1121 164 1146 l 164 1036 l 164 1032 q 150 1001 164 1014 q 117 989 136 989 q 81 1004 93 989 q 69 1033 69 1019 q 72 1047 69 1039 q 141 1174 97 1117 q 242 1272 185 1231 q 367 1335 299 1313 q 508 1357 435 1357 l 1335 1357 q 1393 1333 1369 1357 q 1417 1276 1417 1310 q 1409 1244 1417 1260 q 1390 1218 1401 1229 l 218 118 l 1204 118 q 1287 152 1253 118 q 1321 236 1321 186 l 1321 321 q 1335 355 1321 342 q 1369 368 1350 368 q 1405 353 1393 368 q 1417 324 1417 338 q 1414 310 1417 318 q 1345 183 1389 240 q 1244 85 1301 126 q 1119 22 1188 44 q 978 0 1051 0 l 129 0 z "},"[":{"ha":433,"x_min":93,"x_max":364,"o":"m 364 1357 l 364 1239 l 213 1239 l 213 118 l 364 118 l 364 0 l 93 0 l 93 1357 l 364 1357 z "},"\\":{"ha":579,"x_min":54,"x_max":618,"o":"m 174 1268 q 208 1169 185 1236 q 263 1014 232 1103 q 331 822 294 925 q 404 613 367 718 q 477 406 442 507 q 542 222 513 304 q 591 80 571 139 q 618 0 611 21 l 499 0 q 386 321 439 169 q 285 608 333 472 q 205 837 244 724 q 133 1042 165 950 q 80 1194 101 1133 q 54 1268 58 1256 l 174 1268 z "},"]":{"ha":433,"x_min":68,"x_max":339,"o":"m 68 0 l 68 118 l 221 118 l 221 1239 l 68 1239 l 68 1357 l 339 1357 l 339 0 l 68 0 z "},"^":{"ha":618,"x_min":63,"x_max":556,"o":"m 86 872 q 67 891 71 879 q 63 908 63 903 q 68 928 63 918 l 271 1340 q 308 1364 283 1364 q 346 1340 335 1364 l 551 928 q 556 910 556 919 q 551 891 556 903 q 532 872 547 879 q 523 869 528 869 q 514 868 518 868 q 476 892 488 868 l 308 1228 l 142 892 q 106 868 129 868 q 96 869 100 868 q 86 872 92 869 z "},"_":{"ha":701,"x_min":100,"x_max":601,"o":"m 100 -71 q 112 -41 100 -53 q 142 -29 124 -29 l 558 -29 q 589 -41 576 -29 q 601 -71 601 -53 q 589 -101 601 -89 q 558 -112 576 -112 l 142 -112 q 112 -101 124 -112 q 100 -71 100 -89 z "},"`":{"ha":268,"x_min":54,"x_max":211,"o":"m 64 1504 q 54 1528 54 1514 q 56 1538 54 1529 q 68 1558 57 1547 q 93 1567 81 1567 q 122 1554 111 1567 l 203 1457 q 211 1433 211 1446 q 210 1423 211 1432 q 197 1404 210 1414 q 172 1396 186 1396 q 143 1410 156 1396 l 64 1504 z "},"a":{"ha":1518,"x_min":38,"x_max":1481,"o":"m 156 0 l 38 0 l 38 136 q 63 423 38 281 q 135 701 88 565 q 255 963 183 836 q 418 1200 326 1089 q 567 1316 481 1275 q 751 1357 654 1357 l 758 1357 q 951 1315 860 1357 q 1106 1193 1042 1272 q 1385 703 1289 969 q 1481 146 1481 436 l 1481 0 l 1363 0 l 1363 621 l 156 621 l 156 0 m 640 1286 q 540 1165 600 1238 q 417 1014 481 1092 q 294 863 354 936 q 193 739 235 789 l 1326 739 q 1225 863 1285 789 q 1101 1014 1165 936 q 978 1165 1038 1092 q 879 1286 919 1238 q 758 1343 831 1343 q 692 1328 724 1343 q 640 1286 661 1314 z "},"b":{"ha":1481,"x_min":56,"x_max":1424,"o":"m 56 0 l 56 1357 l 1149 1357 q 1251 1337 1203 1357 q 1335 1283 1299 1317 q 1395 1202 1372 1249 q 1422 1103 1418 1156 q 1424 1090 1424 1096 q 1424 1078 1424 1085 q 1407 967 1424 1024 q 1354 856 1390 910 q 1270 756 1318 800 q 1168 681 1222 711 q 1265 610 1219 651 q 1346 519 1311 569 q 1401 410 1381 468 q 1424 289 1422 351 l 1424 275 q 1402 168 1424 218 q 1343 81 1381 118 q 1256 22 1306 43 q 1149 0 1206 0 l 56 0 m 174 739 l 1188 739 q 1271 774 1236 739 q 1306 857 1306 808 l 1306 1121 q 1272 1205 1306 1169 q 1188 1240 1238 1240 l 174 1240 l 174 739 m 174 118 l 1188 118 q 1271 153 1236 118 q 1306 236 1306 188 l 1306 504 q 1272 587 1306 553 q 1188 621 1238 621 l 174 621 l 174 118 z "},"c":{"ha":1442,"x_min":47,"x_max":1394,"o":"m 47 869 q 85 1060 47 971 q 190 1215 124 1149 q 346 1319 257 1281 q 535 1357 435 1357 l 956 1357 q 1097 1335 1029 1357 q 1222 1272 1165 1313 q 1323 1174 1279 1231 q 1392 1047 1367 1117 q 1394 1033 1394 1039 q 1383 1004 1394 1019 q 1347 989 1371 989 q 1313 1002 1328 989 q 1299 1036 1299 1015 l 1299 1121 q 1265 1205 1299 1169 q 1181 1240 1231 1240 l 283 1240 q 201 1205 235 1240 q 167 1121 167 1169 l 167 236 q 201 153 167 188 q 283 118 235 118 l 1181 118 q 1264 153 1229 118 q 1299 236 1299 188 l 1299 321 q 1313 354 1299 340 q 1347 368 1328 368 q 1383 352 1372 368 q 1394 324 1394 336 q 1389 304 1394 314 q 1320 179 1364 235 q 1219 83 1276 124 q 1095 22 1163 43 q 956 0 1028 0 l 535 0 q 346 38 435 0 q 190 142 257 76 q 85 297 124 208 q 47 488 47 386 l 47 869 z "},"d":{"ha":1471,"x_min":56,"x_max":1424,"o":"m 936 1357 q 1126 1319 1038 1357 q 1281 1215 1215 1281 q 1385 1060 1347 1149 q 1424 869 1424 971 l 1424 488 q 1385 297 1424 386 q 1281 142 1347 208 q 1126 38 1215 76 q 936 0 1038 0 l 56 0 l 56 1357 l 936 1357 m 1188 118 q 1271 153 1236 118 q 1306 236 1306 188 l 1306 1121 q 1272 1205 1306 1169 q 1188 1240 1238 1240 l 174 1240 l 174 118 l 1188 118 z "},"e":{"ha":1425,"x_min":47,"x_max":1415,"o":"m 535 0 q 346 38 435 0 q 190 142 257 76 q 85 297 124 208 q 47 488 47 386 l 47 869 q 85 1060 47 971 q 190 1215 124 1149 q 346 1319 257 1281 q 535 1357 435 1357 l 1415 1357 l 1415 1240 l 283 1240 q 199 1205 233 1240 q 165 1121 165 1169 l 165 739 l 1179 739 l 1179 621 l 165 621 l 165 236 q 200 153 165 188 q 283 118 235 118 l 1415 118 l 1415 0 l 535 0 z "},"f":{"ha":1418,"x_min":51,"x_max":1418,"o":"m 51 0 l 51 869 q 90 1060 51 971 q 194 1215 128 1149 q 349 1319 260 1281 q 539 1357 438 1357 l 1418 1357 l 1418 1240 l 288 1240 q 241 1231 263 1240 q 203 1205 219 1221 q 178 1167 188 1189 q 168 1121 168 1146 l 168 739 l 1182 739 l 1182 621 l 168 621 l 168 0 l 51 0 z "},"g":{"ha":1461,"x_min":47,"x_max":1418,"o":"m 47 869 q 85 1060 47 971 q 190 1215 124 1149 q 346 1319 257 1281 q 535 1357 435 1357 l 956 1357 q 1097 1335 1029 1357 q 1222 1272 1165 1313 q 1323 1174 1279 1231 q 1392 1047 1367 1117 q 1394 1033 1394 1039 q 1383 1004 1394 1019 q 1347 989 1371 989 q 1313 1002 1328 989 q 1299 1036 1299 1015 l 1299 1121 q 1265 1205 1299 1169 q 1181 1240 1231 1240 l 283 1240 q 199 1205 233 1240 q 165 1121 165 1169 l 165 236 q 200 153 165 188 q 283 118 235 118 l 1181 118 q 1264 153 1229 118 q 1299 236 1299 188 l 1299 621 l 926 621 l 926 739 l 1418 739 l 1418 488 q 1380 297 1418 386 q 1275 142 1342 208 q 1119 38 1208 76 q 929 0 1031 0 l 535 0 q 346 38 435 0 q 190 142 257 76 q 85 297 124 208 q 47 488 47 386 l 47 869 z "},"h":{"ha":1481,"x_min":56,"x_max":1425,"o":"m 56 0 l 56 1357 l 174 1357 l 174 857 q 183 812 174 833 q 209 774 193 790 q 247 749 225 758 q 293 739 268 739 l 944 739 q 1140 696 1044 739 q 1307 569 1236 653 l 1307 1357 l 1425 1357 l 1425 0 l 1307 0 l 1307 506 q 1272 588 1306 554 q 1190 621 1239 621 l 538 621 q 335 667 429 622 q 174 792 242 713 l 174 0 l 56 0 z "},"i":{"ha":235,"x_min":56,"x_max":174,"o":"m 56 0 l 56 1357 l 174 1357 l 174 0 l 56 0 z "},"j":{"ha":1438,"x_min":15,"x_max":1385,"o":"m 132 621 l 132 236 q 167 152 132 186 q 251 118 203 118 l 1149 118 q 1232 153 1197 118 q 1267 236 1267 188 l 1267 1240 l 506 1240 l 506 1357 l 1385 1357 l 1385 488 q 1347 297 1385 386 q 1242 142 1308 208 q 1086 38 1175 76 q 896 0 997 0 l 503 0 q 313 38 401 0 q 158 142 224 76 q 53 297 92 208 q 15 488 15 386 l 15 621 l 132 621 z "},"k":{"ha":1479,"x_min":56,"x_max":1426,"o":"m 56 0 l 56 1357 l 174 1357 l 174 739 l 1190 739 q 1273 774 1239 739 q 1307 857 1307 808 l 1307 1357 l 1426 1357 l 1426 1101 q 1407 965 1426 1028 q 1353 849 1388 901 q 1272 753 1318 796 q 1171 681 1225 711 q 1268 610 1222 651 q 1349 518 1314 568 q 1406 410 1385 468 q 1426 289 1426 351 l 1426 0 l 1307 0 l 1307 504 q 1298 549 1307 528 q 1273 587 1289 571 q 1236 612 1257 603 q 1190 621 1215 621 l 174 621 l 174 0 l 56 0 z "},"l":{"ha":1421,"x_min":51,"x_max":1421,"o":"m 168 1357 l 168 236 q 203 152 168 186 q 288 118 239 118 l 1421 118 l 1421 0 l 539 0 q 349 38 438 0 q 194 142 260 76 q 90 297 128 208 q 51 488 51 386 l 51 1357 l 168 1357 z "},"m":{"ha":1483,"x_min":56,"x_max":1428,"o":"m 56 1281 q 78 1335 56 1313 q 133 1357 101 1357 q 197 1325 172 1357 l 572 804 q 646 741 601 764 q 740 718 690 718 l 743 718 q 838 741 793 718 q 911 804 882 764 l 1286 1325 q 1350 1357 1311 1357 q 1405 1335 1382 1357 q 1428 1281 1428 1313 l 1428 0 l 1308 0 l 1308 1156 q 1222 1035 1268 1097 q 1126 901 1176 972 q 953 753 1056 801 q 743 704 851 704 q 531 753 633 704 q 357 901 429 801 l 174 1156 l 174 0 l 56 0 l 56 1281 z "},"n":{"ha":1479,"x_min":56,"x_max":1424,"o":"m 56 0 l 56 1081 q 77 1189 56 1139 q 135 1276 99 1239 q 222 1335 172 1314 q 331 1357 272 1357 q 476 1314 410 1357 q 575 1196 543 1271 q 633 1066 601 1136 q 699 919 664 996 q 769 763 733 843 q 842 604 806 683 q 910 449 876 525 q 974 306 944 374 q 1029 182 1004 239 q 1074 85 1054 125 q 1118 34 1089 53 q 1182 15 1147 15 l 1186 15 q 1271 50 1236 15 q 1306 135 1306 85 l 1306 1357 l 1424 1357 l 1424 265 q 1403 162 1424 210 q 1347 78 1382 114 q 1263 21 1311 42 q 1160 0 1214 0 l 1154 0 q 1010 42 1075 0 q 913 156 944 85 q 839 322 881 228 q 750 519 797 415 q 654 732 703 624 q 561 940 606 840 q 478 1125 517 1040 q 415 1267 440 1210 q 368 1320 399 1300 q 300 1340 338 1340 q 249 1330 272 1340 q 209 1302 226 1319 q 182 1261 192 1285 q 172 1211 172 1238 l 172 0 l 56 0 z "},"o":{"ha":1538,"x_min":47,"x_max":1490,"o":"m 535 0 q 346 38 435 0 q 190 142 257 76 q 85 297 124 208 q 47 488 47 386 l 47 869 q 85 1060 47 971 q 190 1215 124 1149 q 346 1319 257 1281 q 535 1357 435 1357 l 1003 1357 q 1193 1319 1104 1357 q 1348 1215 1282 1281 q 1452 1060 1414 1149 q 1490 869 1490 971 l 1490 488 q 1452 297 1490 386 q 1348 142 1414 208 q 1193 38 1282 76 q 1003 0 1104 0 l 535 0 m 283 1240 q 199 1205 233 1240 q 165 1121 165 1169 l 165 236 q 200 153 165 188 q 283 118 235 118 l 1254 118 q 1338 153 1303 118 q 1372 236 1372 188 l 1372 1121 q 1338 1205 1372 1169 q 1254 1240 1304 1240 l 283 1240 z "},"p":{"ha":1443,"x_min":56,"x_max":1422,"o":"m 56 0 l 56 1357 l 1149 1357 q 1251 1337 1203 1357 q 1335 1283 1299 1317 q 1395 1202 1372 1249 q 1422 1103 1418 1156 l 1422 1079 q 1384 913 1422 994 q 1279 765 1346 832 q 1130 660 1213 699 q 967 621 1047 622 l 174 621 l 174 0 l 56 0 m 174 739 l 1188 739 q 1271 774 1236 739 q 1306 857 1306 808 l 1306 1121 q 1272 1205 1306 1169 q 1188 1240 1238 1240 l 174 1240 l 174 739 z "},"q":{"ha":1540,"x_min":47,"x_max":1490,"o":"m 535 0 q 346 38 435 0 q 190 142 257 76 q 85 297 124 208 q 47 488 47 386 l 47 869 q 85 1060 47 971 q 190 1215 124 1149 q 346 1319 257 1281 q 535 1357 435 1357 l 1003 1357 q 1193 1319 1104 1357 q 1348 1215 1282 1281 q 1452 1060 1414 1149 q 1490 869 1490 971 l 1490 185 l 1372 185 l 1372 1121 q 1338 1205 1372 1169 q 1254 1240 1304 1240 l 283 1240 q 199 1205 233 1240 q 165 1121 165 1169 l 165 236 q 200 153 165 188 q 283 118 235 118 l 1490 118 l 1490 0 l 535 0 z "},"r":{"ha":1479,"x_min":51,"x_max":1419,"o":"m 168 0 l 51 0 l 51 869 q 90 1060 51 971 q 194 1215 128 1149 q 349 1319 260 1281 q 539 1357 438 1357 l 1143 1357 q 1246 1337 1197 1357 q 1331 1283 1294 1317 q 1391 1202 1368 1249 q 1418 1103 1414 1156 q 1419 1090 1419 1096 q 1419 1079 1419 1085 q 1401 966 1419 1024 q 1348 856 1382 908 q 1267 757 1314 803 q 1164 681 1219 711 q 1261 610 1215 651 q 1342 519 1307 569 q 1397 410 1376 468 q 1418 289 1418 351 l 1418 0 l 1300 0 l 1300 504 q 1266 587 1300 553 q 1182 621 1232 621 l 168 621 l 168 0 m 168 739 l 1182 739 q 1265 774 1231 739 q 1300 857 1300 808 l 1300 1121 q 1266 1205 1300 1169 q 1182 1240 1232 1240 l 288 1240 q 241 1231 263 1240 q 203 1205 219 1221 q 178 1167 188 1189 q 168 1121 168 1146 l 168 739 z "},"s":{"ha":1464,"x_min":50,"x_max":1419,"o":"m 53 310 q 50 325 50 321 q 61 353 50 338 q 96 368 72 368 q 129 356 115 368 q 143 325 143 343 l 143 321 l 143 236 q 178 152 143 186 q 263 118 214 118 l 1183 118 q 1267 153 1232 118 q 1301 236 1301 188 l 1301 621 l 50 621 l 50 869 q 88 1060 50 971 q 192 1215 126 1149 q 347 1319 258 1281 q 538 1357 436 1357 l 957 1357 q 1099 1335 1031 1357 q 1225 1272 1168 1313 q 1326 1174 1282 1231 q 1393 1047 1369 1117 q 1396 1032 1396 1036 q 1385 1004 1396 1019 q 1350 989 1374 989 q 1316 1002 1331 989 q 1301 1036 1301 1015 l 1301 1121 q 1267 1205 1301 1169 q 1183 1240 1233 1240 l 286 1240 q 202 1205 236 1240 q 168 1121 168 1169 l 168 739 l 1419 739 l 1419 488 q 1381 297 1419 386 q 1277 142 1343 208 q 1122 38 1211 76 q 932 0 1033 0 l 489 0 q 347 22 415 0 q 222 85 279 44 q 120 183 164 126 q 53 310 76 240 z "},"t":{"ha":1390,"x_min":10,"x_max":1381,"o":"m 10 1357 l 278 1357 q 408 1338 346 1357 q 526 1284 471 1318 q 625 1203 581 1250 q 700 1103 669 1157 q 770 1200 729 1154 q 861 1281 811 1246 q 969 1336 911 1315 q 1090 1357 1028 1357 l 1381 1357 l 1381 1240 l 876 1240 q 792 1205 826 1240 q 758 1121 758 1169 l 758 0 l 640 0 l 640 1121 q 606 1205 640 1169 q 522 1240 572 1240 l 10 1240 l 10 1357 z "},"u":{"ha":1547,"x_min":53,"x_max":1494,"o":"m 540 0 q 350 38 439 0 q 195 142 261 76 q 91 297 129 208 q 53 488 53 386 l 53 1357 l 169 1357 l 169 236 q 205 152 169 186 q 289 118 240 118 l 1258 118 q 1343 153 1308 118 q 1378 236 1378 188 l 1378 1357 l 1494 1357 l 1494 488 q 1456 297 1494 386 q 1352 142 1418 208 q 1197 38 1286 76 q 1007 0 1108 0 l 540 0 z "},"v":{"ha":1518,"x_min":38,"x_max":1481,"o":"m 38 1357 l 156 1357 l 156 706 q 182 631 156 663 q 245 553 208 599 q 324 458 282 508 q 409 353 365 407 q 495 247 453 299 q 575 150 538 196 q 640 71 613 104 q 692 28 661 43 q 758 14 724 14 q 879 71 831 14 q 944 149 907 104 q 1024 247 982 194 q 1109 353 1065 299 q 1194 458 1153 407 q 1273 553 1236 508 q 1336 631 1310 599 q 1363 706 1363 663 l 1363 1357 l 1481 1357 l 1481 1211 q 1385 654 1481 921 q 1106 164 1289 388 q 949 42 1039 85 q 758 0 860 0 l 751 0 q 567 41 654 0 q 418 157 481 82 q 134 656 231 385 q 38 1221 38 926 l 38 1357 z "},"w":{"ha":1483,"x_min":56,"x_max":1428,"o":"m 56 1357 l 174 1357 l 174 203 l 357 456 q 531 605 429 556 q 743 654 633 654 q 953 605 851 654 q 1126 456 1056 556 q 1222 323 1176 388 q 1308 203 1268 258 l 1308 1357 l 1428 1357 l 1428 78 q 1405 23 1428 46 q 1349 0 1382 0 q 1286 32 1311 0 l 911 554 q 838 617 882 594 q 743 640 793 640 l 740 640 q 646 617 690 640 q 572 554 601 594 l 197 32 q 133 0 172 0 q 78 23 101 0 q 56 78 56 46 l 56 1357 z "},"x":{"ha":1481,"x_min":56,"x_max":1426,"o":"m 56 1357 l 174 1357 l 174 857 q 209 773 174 807 q 293 739 244 739 l 1190 739 q 1273 774 1239 739 q 1307 857 1307 808 l 1307 1357 l 1426 1357 l 1426 1101 q 1407 965 1426 1028 q 1353 849 1388 901 q 1272 753 1318 796 q 1171 681 1225 711 q 1268 610 1222 651 q 1349 518 1314 568 q 1406 410 1385 468 q 1426 289 1426 351 l 1426 0 l 1307 0 l 1307 504 q 1298 549 1307 528 q 1273 587 1289 571 q 1236 612 1257 603 q 1190 621 1215 621 l 292 621 q 208 587 242 621 q 174 504 174 553 l 174 0 l 56 0 l 56 289 q 76 410 56 351 q 133 518 97 468 q 214 610 168 568 q 311 681 260 651 q 210 753 257 711 q 129 849 164 796 q 75 965 94 901 q 56 1101 56 1028 l 56 1357 z "},"y":{"ha":1418,"x_min":24,"x_max":1393,"o":"m 517 621 q 333 654 422 622 q 176 747 244 686 q 65 897 107 808 q 24 1101 24 986 l 24 1357 l 142 1357 l 142 857 q 176 774 142 808 q 260 739 211 739 l 288 739 q 534 670 426 739 q 708 483 642 601 q 779 581 738 535 q 872 663 821 628 q 980 718 922 697 q 1100 739 1038 739 l 1157 739 q 1240 774 1206 739 q 1275 857 1275 808 l 1275 1357 l 1393 1357 l 1393 1101 q 1351 897 1393 986 q 1241 747 1310 808 q 1083 654 1172 686 q 901 621 994 622 l 886 621 q 802 587 836 621 q 768 506 768 553 l 768 0 l 650 0 l 650 503 q 615 587 650 553 q 531 621 579 621 l 517 621 z "},"z":{"ha":1465,"x_min":43,"x_max":1414,"o":"m 126 0 q 67 24 92 0 q 43 82 43 49 q 51 115 43 100 q 69 143 58 131 l 1239 1240 l 281 1240 q 234 1231 256 1240 q 197 1205 213 1221 q 171 1167 181 1189 q 161 1121 161 1146 l 161 1036 l 161 1032 q 147 1001 161 1014 q 114 989 133 989 q 78 1004 90 989 q 67 1033 67 1019 q 69 1047 67 1039 q 138 1174 94 1117 q 239 1272 182 1231 q 364 1335 296 1313 q 506 1357 432 1357 l 1332 1357 q 1390 1333 1367 1357 q 1414 1276 1414 1310 q 1388 1218 1414 1240 l 217 118 l 1201 118 q 1284 153 1250 118 q 1318 236 1318 188 l 1318 321 q 1333 355 1318 342 q 1368 368 1349 368 q 1403 353 1392 368 q 1414 325 1414 338 q 1411 310 1414 321 q 1342 183 1386 240 q 1242 85 1299 126 q 1117 22 1185 44 q 975 0 1049 0 l 126 0 z "},"{":{"ha":568,"x_min":65,"x_max":511,"o":"m 65 742 l 124 742 q 207 776 172 742 q 242 860 242 810 l 242 1124 q 260 1217 242 1174 q 311 1292 279 1260 q 386 1342 343 1324 q 478 1360 429 1360 l 511 1360 l 511 1243 l 478 1243 q 394 1208 428 1243 q 360 1124 360 1172 l 360 1104 q 340 967 360 1031 q 286 851 321 904 q 205 755 251 797 q 104 682 158 713 q 202 612 156 653 q 283 521 249 571 q 339 413 318 471 q 360 292 360 354 l 360 238 q 394 154 360 189 q 478 119 429 119 l 511 119 l 511 3 l 478 3 q 386 21 429 3 q 311 71 343 39 q 260 146 279 103 q 242 239 242 189 l 242 506 q 207 589 242 554 q 124 624 172 624 l 65 624 l 65 742 z "},"|":{"ha":300,"x_min":96,"x_max":203,"o":"m 96 -157 l 96 1432 l 203 1432 l 203 -157 l 96 -157 z "},"}":{"ha":568,"x_min":56,"x_max":503,"o":"m 56 1358 l 90 1358 q 182 1340 139 1358 q 257 1290 225 1322 q 308 1215 289 1258 q 326 1122 326 1172 l 326 858 q 361 775 326 810 q 444 740 396 740 l 503 740 l 503 622 l 444 622 q 360 588 394 622 q 326 506 326 554 l 326 238 q 308 144 326 188 q 257 69 289 101 q 182 19 225 38 q 90 1 139 1 l 56 1 l 56 118 l 90 118 q 174 153 139 118 q 208 238 208 188 l 208 290 q 229 411 208 353 q 285 519 250 469 q 367 610 321 569 q 464 681 413 651 q 363 753 410 711 q 281 849 315 796 q 228 966 247 903 q 208 1103 208 1029 l 208 1122 q 174 1206 208 1171 q 90 1242 140 1242 l 56 1242 l 56 1358 z "},"~":{"ha":718,"x_min":56,"x_max":660,"o":"m 56 631 q 71 653 57 632 q 109 699 85 675 q 167 742 133 724 q 244 757 201 761 q 325 724 290 753 q 390 663 360 696 q 449 603 421 629 q 510 576 478 576 q 542 599 529 576 q 563 648 556 621 q 574 698 571 675 q 578 724 578 721 l 660 708 q 647 665 657 689 q 619 618 638 640 q 573 581 600 596 q 510 565 546 565 q 440 578 469 565 q 386 612 410 592 q 344 656 363 632 q 308 699 325 679 q 274 733 292 719 q 236 746 257 746 q 188 725 207 746 q 158 678 169 704 q 141 626 147 651 q 131 592 135 600 l 56 631 l 56 631 z "},"":{"ha":493,"x_min":0,"x_max":0,"o":""},"":{"ha":1442,"x_min":47,"x_max":1400,"o":"m 47 869 q 85 1060 47 971 q 190 1215 124 1149 q 346 1319 257 1281 q 535 1357 435 1357 l 956 1357 q 1097 1335 1029 1357 q 1222 1272 1165 1313 q 1323 1174 1279 1231 q 1392 1047 1367 1117 q 1385 1007 1399 1025 q 1347 989 1371 989 q 1313 1002 1328 989 q 1299 1036 1299 1015 l 1299 1121 q 1265 1205 1299 1169 q 1181 1240 1231 1240 l 283 1240 q 201 1205 235 1240 q 167 1121 167 1169 l 167 236 q 201 153 167 188 q 283 118 235 118 l 1181 118 q 1264 153 1229 118 q 1299 236 1299 188 l 1299 321 q 1313 354 1299 340 q 1347 368 1328 368 q 1386 347 1372 368 q 1389 304 1400 326 q 1320 179 1364 235 q 1219 83 1276 124 q 1095 22 1163 43 q 956 0 1028 0 l 535 0 q 346 38 435 0 q 190 142 257 76 q 85 297 124 208 q 47 488 47 386 l 47 869 m 667 -157 l 667 1432 l 774 1432 l 774 -157 l 667 -157 z "},"":{"ha":875,"x_min":74,"x_max":801,"o":"m 74 985 l 143 1058 l 254 938 q 334 985 286 968 q 435 1003 382 1003 q 538 985 490 1003 q 618 939 585 968 l 731 1058 l 801 985 l 678 872 q 717 792 700 840 q 733 686 733 744 q 716 570 733 619 q 678 492 699 521 l 796 374 l 725 304 l 618 426 q 531 374 582 392 q 431 357 479 357 q 332 374 382 357 q 250 421 282 390 l 143 304 l 75 374 l 190 486 q 148 568 165 518 q 131 678 131 618 q 149 790 131 740 q 193 872 168 839 l 74 985 m 432 903 q 353 885 388 903 q 294 838 318 868 q 256 766 269 807 q 243 679 243 725 q 261 579 243 621 q 307 510 279 538 q 367 470 335 483 q 431 457 400 457 q 497 469 464 457 q 558 509 531 482 q 602 580 585 536 q 619 685 619 624 q 608 765 619 726 q 572 835 596 804 q 513 884 549 865 q 432 903 478 903 z "},"":{"ha":1419,"x_min":25,"x_max":1394,"o":"m 518 621 q 335 654 424 622 q 177 747 246 686 q 67 897 108 808 q 25 1101 25 986 l 25 1357 l 143 1357 l 143 857 q 178 774 143 808 q 261 739 213 739 l 289 739 q 535 670 428 739 q 710 483 643 601 q 781 581 739 535 q 873 663 822 628 q 981 718 924 697 q 1101 739 1039 739 l 1158 739 q 1242 774 1207 739 q 1276 857 1276 808 l 1276 1357 l 1394 1357 l 1394 1101 q 1353 897 1394 986 q 1242 747 1311 808 q 1085 654 1174 686 q 903 621 996 622 l 888 621 q 841 612 863 621 q 803 587 819 603 q 778 550 788 571 q 768 506 768 529 l 768 0 l 651 0 l 651 503 q 616 587 651 553 q 532 621 581 621 l 518 621 m 501 458 q 472 470 485 458 q 460 499 460 482 q 472 528 460 517 q 501 540 485 540 l 919 540 q 949 528 938 540 q 960 499 960 517 q 949 470 960 482 q 919 458 938 458 l 501 458 m 460 347 q 472 377 460 365 q 501 389 485 389 l 919 389 q 949 377 938 389 q 960 347 960 365 q 949 317 960 329 q 919 306 938 306 l 501 306 q 472 317 485 306 q 460 347 460 329 z "},"":{"ha":568,"x_min":56,"x_max":508,"o":"m 56 1478 q 80 1534 56 1510 q 138 1558 104 1558 q 192 1535 169 1558 q 215 1478 215 1513 q 194 1420 215 1444 q 138 1396 172 1396 q 78 1420 101 1396 q 56 1478 56 1444 m 431 1396 q 373 1420 394 1396 q 351 1478 351 1444 q 374 1534 351 1510 q 431 1558 397 1558 q 487 1535 465 1558 q 508 1478 508 1513 q 488 1420 508 1444 q 431 1396 467 1396 z "},"":{"ha":1118,"x_min":79,"x_max":1040,"o":"m 79 857 q 117 1047 79 958 q 219 1203 154 1136 q 372 1308 285 1269 q 561 1346 460 1346 q 750 1308 663 1346 q 902 1203 838 1269 q 1003 1047 967 1136 q 1040 857 1040 958 q 1003 665 1040 754 q 902 508 967 575 q 750 403 838 442 q 561 365 663 365 q 372 403 460 365 q 219 508 285 442 q 117 665 154 575 q 79 857 79 754 m 561 1281 q 401 1247 475 1281 q 274 1156 328 1214 q 189 1020 219 1099 q 158 853 158 942 q 189 687 158 764 q 274 553 219 610 q 401 463 328 496 q 561 431 475 431 q 719 463 646 431 q 845 553 792 496 q 929 688 899 610 q 960 857 960 767 q 929 1023 960 946 q 845 1157 899 1100 q 719 1247 792 1214 q 561 1281 646 1281 m 481 567 q 400 583 438 567 q 334 627 363 599 q 289 693 306 656 q 272 774 272 731 l 272 938 q 289 1018 272 981 q 334 1083 306 1056 q 400 1128 363 1111 q 481 1144 438 1144 l 658 1144 q 774 1108 722 1144 q 844 1013 825 1072 q 842 995 847 1003 q 826 988 838 988 q 813 993 819 988 q 806 1007 806 999 l 806 1043 q 791 1080 806 1065 q 756 1094 776 1094 l 374 1094 q 337 1080 351 1094 q 322 1043 322 1065 l 322 667 q 337 631 322 646 q 374 617 351 617 l 756 617 q 791 631 776 617 q 806 667 806 646 l 806 703 q 813 717 806 713 q 826 722 819 722 q 843 714 838 722 q 844 694 849 706 q 773 601 824 636 q 658 567 722 567 l 481 567 z "},"":{"ha":942,"x_min":56,"x_max":875,"o":"m 56 651 l 456 651 q 619 619 543 651 q 753 528 696 586 q 842 394 810 471 q 875 231 875 318 l 875 208 l 774 208 l 774 438 q 738 522 774 488 q 656 556 703 556 l 56 556 l 56 651 z "},"":{"ha":0,"x_min":0,"x_max":0,"o":""},"":{"ha":681,"x_min":72,"x_max":607,"o":"m 72 1094 q 93 1196 72 1149 q 151 1278 114 1243 q 236 1335 188 1314 q 342 1356 285 1356 q 447 1335 399 1356 q 531 1278 496 1314 q 587 1196 567 1243 q 607 1094 607 1149 q 587 990 607 1038 q 531 906 567 942 q 447 851 496 871 q 342 831 399 831 q 236 851 285 831 q 151 906 188 871 q 93 990 114 942 q 72 1094 72 1038 m 139 1094 q 154 1013 139 1051 q 197 947 169 975 q 261 903 224 919 q 343 886 299 886 q 422 902 386 886 q 485 947 458 918 q 526 1013 511 975 q 542 1093 542 1050 q 526 1174 542 1136 q 485 1241 511 1213 q 422 1286 458 1269 q 342 1303 385 1303 q 260 1286 297 1303 q 197 1241 224 1269 q 154 1175 169 1213 q 139 1094 139 1138 m 222 1225 l 432 1225 q 468 1211 453 1225 q 485 1176 483 1197 q 463 1120 486 1144 q 407 1089 439 1096 q 462 1066 439 1085 q 485 1019 485 1047 l 485 964 l 431 964 l 431 1031 q 424 1047 431 1040 q 407 1053 417 1053 l 276 1053 l 276 964 l 222 964 l 222 1225 m 276 1106 l 407 1106 q 424 1113 417 1106 q 431 1129 431 1119 l 431 1156 q 424 1172 431 1165 q 407 1179 417 1179 l 276 1179 l 276 1106 z "},"":{"ha":569,"x_min":54,"x_max":522,"o":"m 54 540 l 54 656 l 522 656 l 522 540 l 54 540 z "},"":{"ha":940,"x_min":60,"x_max":881,"o":"m 418 600 l 418 910 l 521 910 l 521 600 l 881 600 l 881 504 l 521 504 l 521 186 l 418 186 l 418 504 l 60 504 l 60 600 l 418 600 m 881 96 l 881 0 l 60 0 l 60 96 l 881 96 z "},"":{"ha":397,"x_min":53,"x_max":333,"o":"m 333 1625 l 140 1399 l 53 1399 l 193 1625 l 333 1625 z "},"":{"ha":474,"x_min":100,"x_max":376,"o":"m 124 -168 q 200 -196 164 -187 q 267 -204 236 -204 q 333 -187 308 -204 q 356 -143 358 -171 q 333 -110 354 -122 q 281 -90 311 -97 q 217 -79 251 -82 q 154 -74 182 -76 l 229 58 l 269 58 l 218 -24 q 333 -56 297 -24 q 374 -133 369 -89 q 365 -192 376 -167 q 332 -233 353 -217 q 282 -258 311 -250 q 222 -265 253 -265 q 100 -235 156 -265 l 124 -168 z "},"":{"ha":1572,"x_min":40,"x_max":1490,"o":"m 261 -1 l 865 1068 l 954 1068 l 350 -1 l 261 -1 m 843 717 l 843 457 q 860 414 843 432 q 904 396 878 396 l 1242 396 q 1342 374 1292 396 q 1429 308 1393 353 l 1429 717 l 1490 717 l 1490 15 l 1429 15 l 1429 276 q 1410 319 1428 301 q 1368 336 1393 336 l 1031 336 q 935 355 981 336 q 856 408 890 374 q 802 489 822 442 q 782 594 782 536 l 782 717 l 843 717 m 68 729 q 48 740 56 729 q 46 763 40 750 q 59 775 50 771 q 78 775 68 779 l 115 760 q 142 754 126 754 q 176 769 163 754 q 200 809 189 785 q 224 863 211 833 q 256 919 236 892 l 350 1050 q 382 1068 360 1068 q 410 1056 399 1068 q 422 1026 422 1043 l 422 365 l 361 365 l 361 963 l 268 831 q 178 755 231 781 q 68 729 126 729 z "},"":{"ha":1468,"x_min":33,"x_max":1396,"o":"m 686 144 q 706 242 686 196 q 760 322 725 288 q 840 376 794 357 q 938 396 885 396 l 1332 396 l 1332 593 q 1315 638 1332 619 q 1271 656 1297 656 l 807 656 q 765 638 782 656 q 747 593 747 619 l 747 550 q 740 533 747 539 q 722 526 732 526 q 703 535 710 526 q 700 556 696 544 q 786 674 724 631 q 925 717 849 717 l 1142 717 q 1239 697 1193 717 q 1319 643 1285 678 q 1374 563 1354 608 q 1393 464 1393 517 l 1393 336 l 806 336 q 764 316 781 333 q 747 275 747 299 l 747 76 l 1283 76 q 1327 94 1310 76 q 1344 138 1344 113 l 1344 181 q 1352 199 1344 192 q 1369 206 1360 206 q 1389 196 1382 206 q 1393 175 1396 186 q 1305 59 1367 103 q 1168 15 1243 15 l 686 15 l 686 144 m 829 1068 l 919 1068 l 317 -1 l 226 0 l 829 1068 m 63 803 q 41 813 49 803 q 40 836 33 824 q 52 849 43 844 q 71 849 61 854 l 108 833 q 135 828 121 828 q 169 844 156 828 q 194 884 182 860 q 218 938 206 908 q 250 993 231 967 l 343 1124 q 376 1142 357 1142 q 404 1129 392 1142 q 417 1101 417 1117 l 417 440 l 356 440 l 356 1036 l 261 906 q 171 828 224 854 q 63 803 118 803 z "},"":{"ha":1858,"x_min":74,"x_max":1778,"o":"m 97 910 q 74 932 74 910 l 74 933 q 75 940 74 939 q 85 964 78 949 q 103 994 93 979 q 123 1022 113 1010 q 142 1039 133 1035 q 300 1100 207 1100 l 638 1100 q 736 1063 696 1100 q 781 968 776 1026 q 745 840 783 897 q 649 750 707 782 q 740 667 701 719 q 781 547 779 614 l 781 542 q 769 486 781 513 q 739 440 758 460 q 693 410 719 421 q 638 399 667 399 l 300 399 q 215 415 256 399 q 142 460 174 431 q 123 476 133 464 q 103 504 113 489 q 85 535 93 519 q 75 558 78 550 q 74 564 74 560 l 74 567 q 97 589 75 589 q 115 583 107 589 q 122 565 122 576 l 122 519 q 140 477 122 494 q 183 460 158 460 l 658 460 q 701 477 685 460 q 718 519 718 494 l 718 658 q 701 702 718 685 q 658 719 685 719 l 256 719 l 256 781 l 658 781 q 701 798 685 781 q 718 842 718 815 l 718 978 q 701 1021 718 1003 q 658 1039 685 1039 l 183 1039 q 140 1021 157 1039 q 122 978 122 1003 l 122 933 q 115 916 122 922 q 97 910 107 910 m 543 -1 l 1146 1068 l 1235 1068 l 631 -1 l 543 -1 m 1131 718 l 1131 460 q 1149 417 1131 435 q 1192 399 1167 399 l 1529 399 q 1630 376 1579 399 q 1717 311 1681 354 l 1717 718 l 1778 718 l 1778 17 l 1717 17 l 1717 279 q 1699 320 1717 303 q 1656 338 1681 338 l 1318 338 q 1223 358 1268 339 q 1144 410 1178 376 q 1090 492 1110 444 q 1069 597 1069 539 l 1069 718 l 1131 718 z "},"":{"ha":1522,"x_min":40,"x_max":1482,"o":"m 643 1286 q 543 1165 603 1238 q 419 1014 483 1092 q 296 863 356 936 q 194 739 236 789 l 1329 739 q 1265 817 1301 772 q 1188 911 1228 861 q 1104 1014 1147 961 q 1020 1116 1061 1067 q 943 1209 979 1165 q 881 1286 907 1253 q 827 1328 858 1314 q 761 1343 796 1343 q 695 1328 726 1343 q 643 1286 664 1314 m 157 0 l 40 0 l 40 136 q 65 423 40 281 q 138 701 90 565 q 258 963 186 836 q 421 1200 329 1089 q 570 1316 483 1275 q 754 1357 657 1357 l 761 1357 q 953 1315 861 1357 q 1107 1193 1044 1272 q 1387 703 1292 969 q 1482 146 1482 436 l 1482 0 l 1365 0 l 1365 621 l 157 621 l 157 0 m 692 1504 q 683 1532 681 1517 q 696 1558 685 1547 q 721 1567 708 1567 q 750 1554 739 1567 l 831 1457 q 839 1430 840 1446 q 825 1404 838 1414 q 800 1396 814 1396 q 771 1410 783 1396 l 692 1504 z "},"":{"ha":1522,"x_min":40,"x_max":1482,"o":"m 643 1286 q 543 1165 603 1238 q 419 1014 483 1092 q 296 863 356 936 q 194 739 236 789 l 1329 739 q 1265 817 1301 772 q 1188 911 1228 861 q 1104 1014 1147 961 q 1020 1116 1061 1067 q 943 1209 979 1165 q 881 1286 907 1253 q 827 1328 858 1314 q 761 1343 796 1343 q 695 1328 726 1343 q 643 1286 664 1314 m 157 0 l 40 0 l 40 136 q 65 423 40 281 q 138 701 90 565 q 258 963 186 836 q 421 1200 329 1089 q 570 1316 483 1275 q 754 1357 657 1357 l 761 1357 q 953 1315 861 1357 q 1107 1193 1044 1272 q 1387 703 1292 969 q 1482 146 1482 436 l 1482 0 l 1365 0 l 1365 621 l 157 621 l 157 0 m 901 1625 l 708 1399 l 621 1399 l 761 1625 l 901 1625 z "},"":{"ha":1522,"x_min":40,"x_max":1482,"o":"m 643 1286 q 543 1165 603 1238 q 419 1014 483 1092 q 296 863 356 936 q 194 739 236 789 l 1329 739 q 1265 817 1301 772 q 1188 911 1228 861 q 1104 1014 1147 961 q 1020 1116 1061 1067 q 943 1209 979 1165 q 881 1286 907 1253 q 827 1328 858 1314 q 761 1343 796 1343 q 695 1328 726 1343 q 643 1286 664 1314 m 157 0 l 40 0 l 40 136 q 65 423 40 281 q 138 701 90 565 q 258 963 186 836 q 421 1200 329 1089 q 570 1316 483 1275 q 754 1357 657 1357 l 761 1357 q 953 1315 861 1357 q 1107 1193 1044 1272 q 1387 703 1292 969 q 1482 146 1482 436 l 1482 0 l 1365 0 l 1365 621 l 157 621 l 157 0 m 654 1568 q 699 1610 671 1596 q 758 1625 726 1625 q 819 1610 790 1625 q 864 1568 847 1596 l 979 1399 l 871 1399 l 789 1592 q 760 1611 781 1611 q 743 1606 750 1611 q 732 1592 733 1601 l 644 1399 l 542 1399 l 654 1568 z "},"":{"ha":1522,"x_min":40,"x_max":1482,"o":"m 643 1286 q 543 1165 603 1238 q 419 1014 483 1092 q 296 863 356 936 q 194 739 236 789 l 1329 739 q 1265 817 1301 772 q 1188 911 1228 861 q 1104 1014 1147 961 q 1020 1116 1061 1067 q 943 1209 979 1165 q 881 1286 907 1253 q 827 1328 858 1314 q 761 1343 796 1343 q 695 1328 726 1343 q 643 1286 664 1314 m 157 0 l 40 0 l 40 136 q 65 423 40 281 q 138 701 90 565 q 258 963 186 836 q 421 1200 329 1089 q 570 1316 483 1275 q 754 1357 657 1357 l 761 1357 q 953 1315 861 1357 q 1107 1193 1044 1272 q 1387 703 1292 969 q 1482 146 1482 436 l 1482 0 l 1365 0 l 1365 621 l 157 621 l 157 0 m 458 1469 q 474 1494 460 1472 q 512 1540 488 1515 q 571 1582 536 1564 q 647 1596 606 1600 q 728 1563 693 1592 q 793 1502 763 1535 q 852 1443 824 1469 q 913 1417 881 1417 q 945 1439 932 1417 q 966 1488 958 1461 q 977 1538 974 1515 q 981 1563 981 1561 l 1063 1549 q 1050 1505 1060 1529 q 1022 1458 1040 1481 q 976 1419 1003 1435 q 913 1404 949 1404 q 842 1417 872 1404 q 789 1451 813 1431 q 747 1494 765 1471 q 711 1538 728 1518 q 677 1572 694 1558 q 639 1585 660 1585 q 591 1564 610 1585 q 561 1517 572 1543 q 544 1465 550 1490 q 533 1431 538 1439 l 458 1469 z "},"":{"ha":1522,"x_min":40,"x_max":1482,"o":"m 643 1286 q 543 1165 603 1238 q 419 1014 483 1092 q 296 863 356 936 q 194 739 236 789 l 1329 739 q 1265 817 1301 772 q 1188 911 1228 861 q 1104 1014 1147 961 q 1020 1116 1061 1067 q 943 1209 979 1165 q 881 1286 907 1253 q 827 1328 858 1314 q 761 1343 796 1343 q 695 1328 726 1343 q 643 1286 664 1314 m 157 0 l 40 0 l 40 136 q 65 423 40 281 q 138 701 90 565 q 258 963 186 836 q 421 1200 329 1089 q 570 1316 483 1275 q 754 1357 657 1357 l 761 1357 q 953 1315 861 1357 q 1107 1193 1044 1272 q 1387 703 1292 969 q 1482 146 1482 436 l 1482 0 l 1365 0 l 1365 621 l 157 621 l 157 0 m 535 1478 q 559 1534 535 1510 q 617 1558 583 1558 q 672 1535 649 1558 q 694 1478 694 1513 q 673 1420 694 1444 q 617 1396 651 1396 q 558 1420 581 1396 q 535 1478 535 1444 m 910 1396 q 852 1420 874 1396 q 831 1478 831 1444 q 853 1534 831 1510 q 910 1558 876 1558 q 966 1535 944 1558 q 988 1478 988 1513 q 967 1420 988 1444 q 910 1396 946 1396 z "},"":{"ha":1522,"x_min":40,"x_max":1482,"o":"m 643 1286 q 543 1165 603 1238 q 419 1014 483 1092 q 296 863 356 936 q 194 739 236 789 l 1329 739 q 1265 817 1301 772 q 1188 911 1228 861 q 1104 1014 1147 961 q 1020 1116 1061 1067 q 943 1209 979 1165 q 881 1286 907 1253 q 827 1328 858 1314 q 761 1343 796 1343 q 695 1328 726 1343 q 643 1286 664 1314 m 157 0 l 40 0 l 40 136 q 65 423 40 281 q 138 701 90 565 q 258 963 186 836 q 421 1200 329 1089 q 570 1316 483 1275 q 754 1357 657 1357 l 761 1357 q 953 1315 861 1357 q 1107 1193 1044 1272 q 1387 703 1292 969 q 1482 146 1482 436 l 1482 0 l 1365 0 l 1365 621 l 157 621 l 157 0 m 550 1525 q 567 1610 550 1571 q 612 1677 583 1649 q 678 1722 640 1706 q 761 1739 717 1739 q 849 1722 810 1739 q 916 1676 889 1704 q 958 1610 943 1647 q 972 1532 972 1572 q 954 1444 972 1483 q 906 1378 936 1406 q 838 1335 876 1350 q 760 1319 800 1319 q 674 1336 713 1319 q 608 1381 636 1353 q 565 1446 581 1408 q 550 1525 550 1483 m 761 1726 q 706 1710 729 1726 q 667 1667 683 1694 q 644 1603 651 1639 q 636 1525 636 1567 q 672 1385 636 1439 q 761 1331 708 1331 q 810 1345 788 1331 q 850 1386 833 1360 q 876 1449 867 1413 q 886 1531 886 1486 q 879 1603 886 1568 q 857 1666 872 1639 q 818 1710 842 1693 q 761 1726 794 1726 z "},"":{"ha":2924,"x_min":40,"x_max":2914,"o":"m 643 1286 q 543 1165 603 1238 q 419 1014 483 1092 q 296 863 356 936 q 194 739 236 789 l 1329 739 q 1265 817 1301 772 q 1188 911 1228 861 q 1104 1014 1147 961 q 1020 1116 1061 1067 q 943 1209 979 1165 q 881 1286 907 1253 q 827 1328 858 1314 q 761 1343 796 1343 q 695 1328 726 1343 q 643 1286 664 1314 m 157 0 l 40 0 l 40 136 q 65 423 40 281 q 138 701 90 565 q 258 963 186 836 q 421 1200 329 1089 q 570 1316 483 1275 q 754 1357 657 1357 l 761 1357 q 953 1315 861 1357 q 1107 1193 1044 1272 q 1387 703 1292 969 q 1482 146 1482 436 l 1482 0 l 1365 0 l 1365 621 l 157 621 l 157 0 m 2033 0 q 1843 38 1932 0 q 1688 142 1754 76 q 1584 297 1622 208 q 1546 488 1546 386 l 1546 869 q 1584 1060 1546 971 q 1688 1215 1622 1149 q 1843 1319 1754 1281 q 2033 1357 1932 1357 l 2914 1357 l 2914 1240 l 1782 1240 q 1698 1205 1732 1240 q 1664 1121 1664 1169 l 1664 739 l 2676 739 l 2676 621 l 1664 621 l 1664 236 q 1699 153 1664 188 q 1782 118 1733 118 l 2914 118 l 2914 0 l 2033 0 z "},"":{"ha":1444,"x_min":49,"x_max":1401,"o":"m 49 869 q 87 1060 49 971 q 192 1215 125 1149 q 347 1319 258 1281 q 536 1357 436 1357 l 956 1357 q 1097 1335 1029 1357 q 1223 1272 1165 1313 q 1324 1174 1281 1231 q 1393 1047 1368 1117 q 1386 1007 1400 1025 q 1349 989 1372 989 q 1315 1002 1329 989 q 1300 1036 1300 1015 l 1300 1121 q 1266 1205 1300 1169 q 1182 1240 1232 1240 l 285 1240 q 202 1205 236 1240 q 168 1121 168 1169 l 168 236 q 202 153 168 188 q 285 118 236 118 l 1182 118 q 1265 153 1231 118 q 1300 236 1300 188 l 1300 321 q 1315 354 1300 340 q 1349 368 1329 368 q 1387 347 1372 368 q 1390 304 1401 326 q 1322 179 1365 235 q 1220 83 1278 124 q 1095 22 1163 43 q 956 0 1028 0 l 536 0 q 347 38 436 0 q 192 142 258 76 q 87 297 125 208 q 49 488 49 386 l 49 869 m 606 -168 q 682 -196 646 -187 q 749 -204 718 -204 q 815 -187 790 -204 q 838 -143 840 -171 q 815 -110 836 -122 q 763 -90 793 -97 q 699 -79 733 -82 q 636 -74 664 -76 l 711 58 l 751 58 l 700 -24 q 815 -56 779 -24 q 856 -133 851 -89 q 847 -192 858 -167 q 814 -233 835 -217 q 764 -258 793 -250 q 704 -265 735 -265 q 582 -235 638 -265 l 606 -168 z "},"":{"ha":1428,"x_min":50,"x_max":1418,"o":"m 538 0 q 347 38 436 0 q 192 142 258 76 q 88 297 126 208 q 50 488 50 386 l 50 869 q 88 1060 50 971 q 192 1215 126 1149 q 347 1319 258 1281 q 538 1357 436 1357 l 1418 1357 l 1418 1240 l 286 1240 q 202 1205 236 1240 q 168 1121 168 1169 l 168 739 l 1181 739 l 1181 621 l 168 621 l 168 236 q 203 153 168 188 q 286 118 238 118 l 1418 118 l 1418 0 l 538 0 m 644 1504 q 635 1532 633 1517 q 649 1558 638 1547 q 674 1567 661 1567 q 703 1554 692 1567 l 783 1457 q 792 1430 793 1446 q 778 1404 790 1414 q 753 1396 767 1396 q 724 1410 736 1396 l 644 1504 z "},"":{"ha":1428,"x_min":50,"x_max":1418,"o":"m 538 0 q 347 38 436 0 q 192 142 258 76 q 88 297 126 208 q 50 488 50 386 l 50 869 q 88 1060 50 971 q 192 1215 126 1149 q 347 1319 258 1281 q 538 1357 436 1357 l 1418 1357 l 1418 1240 l 286 1240 q 202 1205 236 1240 q 168 1121 168 1169 l 168 739 l 1181 739 l 1181 621 l 168 621 l 168 236 q 203 153 168 188 q 286 118 238 118 l 1418 118 l 1418 0 l 538 0 m 854 1625 l 661 1399 l 574 1399 l 714 1625 l 854 1625 z "},"":{"ha":1428,"x_min":50,"x_max":1418,"o":"m 538 0 q 347 38 436 0 q 192 142 258 76 q 88 297 126 208 q 50 488 50 386 l 50 869 q 88 1060 50 971 q 192 1215 126 1149 q 347 1319 258 1281 q 538 1357 436 1357 l 1418 1357 l 1418 1240 l 286 1240 q 202 1205 236 1240 q 168 1121 168 1169 l 168 739 l 1181 739 l 1181 621 l 168 621 l 168 236 q 203 153 168 188 q 286 118 238 118 l 1418 118 l 1418 0 l 538 0 m 607 1568 q 651 1610 624 1596 q 711 1625 679 1625 q 772 1610 743 1625 q 817 1568 800 1596 l 932 1399 l 824 1399 l 742 1592 q 713 1611 733 1611 q 696 1606 703 1611 q 685 1592 686 1601 l 597 1399 l 494 1399 l 607 1568 z "},"":{"ha":1428,"x_min":50,"x_max":1418,"o":"m 538 0 q 347 38 436 0 q 192 142 258 76 q 88 297 126 208 q 50 488 50 386 l 50 869 q 88 1060 50 971 q 192 1215 126 1149 q 347 1319 258 1281 q 538 1357 436 1357 l 1418 1357 l 1418 1240 l 286 1240 q 202 1205 236 1240 q 168 1121 168 1169 l 168 739 l 1181 739 l 1181 621 l 168 621 l 168 236 q 203 153 168 188 q 286 118 238 118 l 1418 118 l 1418 0 l 538 0 m 488 1478 q 512 1534 488 1510 q 569 1558 536 1558 q 624 1535 601 1558 q 647 1478 647 1513 q 626 1420 647 1444 q 569 1396 604 1396 q 510 1420 533 1396 q 488 1478 488 1444 m 863 1396 q 805 1420 826 1396 q 783 1478 783 1444 q 806 1534 783 1510 q 863 1558 829 1558 q 919 1535 897 1558 q 940 1478 940 1513 q 919 1420 940 1444 q 863 1396 899 1396 z "},"":{"ha":240,"x_min":40,"x_max":200,"o":"m 58 0 l 58 1357 l 176 1357 l 176 0 l 58 0 m 51 1504 q 42 1532 40 1517 q 56 1558 44 1547 q 81 1567 68 1567 q 110 1554 99 1567 l 190 1457 q 199 1430 200 1446 q 185 1404 197 1414 q 160 1396 174 1396 q 131 1410 143 1396 l 51 1504 z "},"":{"ha":240,"x_min":-19,"x_max":261,"o":"m 58 0 l 58 1357 l 176 1357 l 176 0 l 58 0 m 261 1625 l 68 1399 l -19 1399 l 121 1625 l 261 1625 z "},"":{"ha":240,"x_min":-99,"x_max":339,"o":"m 58 0 l 58 1357 l 176 1357 l 176 0 l 58 0 m 14 1568 q 58 1610 31 1596 q 118 1625 86 1625 q 178 1610 150 1625 q 224 1568 207 1596 l 339 1399 l 231 1399 l 149 1592 q 119 1611 140 1611 q 103 1606 110 1611 q 92 1592 93 1601 l 4 1399 l -99 1399 l 14 1568 z "},"":{"ha":240,"x_min":-106,"x_max":347,"o":"m 58 0 l 58 1357 l 176 1357 l 176 0 l 58 0 m -106 1478 q -81 1534 -106 1510 q -24 1558 -57 1558 q 31 1535 8 1558 q 54 1478 54 1513 q 33 1420 54 1444 q -24 1396 11 1396 q -83 1420 -60 1396 q -106 1478 -106 1444 m 269 1396 q 212 1420 233 1396 q 190 1478 190 1444 q 213 1534 190 1510 q 269 1558 236 1558 q 326 1535 304 1558 q 347 1478 347 1513 q 326 1420 347 1444 q 269 1396 306 1396 z "},"":{"ha":1483,"x_min":57,"x_max":1426,"o":"m 57 0 l 57 1081 q 78 1189 57 1139 q 138 1276 100 1239 q 225 1335 175 1314 q 332 1357 275 1357 q 479 1314 413 1357 q 578 1196 546 1271 q 656 1019 613 1117 q 746 817 699 922 q 841 604 793 711 q 933 399 889 497 q 1015 220 978 301 q 1076 85 1051 139 q 1120 34 1090 53 q 1185 15 1150 15 l 1189 15 q 1274 50 1239 15 q 1308 135 1308 85 l 1308 1357 l 1426 1357 l 1426 265 q 1406 162 1426 210 q 1349 78 1385 114 q 1265 21 1314 42 q 1163 0 1217 0 l 1156 0 q 1012 42 1076 0 q 915 156 947 85 q 842 322 883 228 q 753 519 800 415 q 657 732 706 624 q 564 940 608 840 q 481 1125 519 1040 q 418 1267 443 1210 q 371 1320 401 1300 q 303 1340 340 1340 q 252 1330 275 1340 q 212 1302 229 1319 q 185 1261 194 1285 q 175 1211 175 1238 l 175 0 l 57 0 m 439 1469 q 454 1494 440 1472 q 492 1540 468 1515 q 551 1582 517 1564 q 628 1596 586 1600 q 708 1563 674 1592 q 774 1502 743 1535 q 833 1443 804 1469 q 893 1417 861 1417 q 926 1439 913 1417 q 947 1488 939 1461 q 958 1538 954 1515 q 961 1563 961 1561 l 1043 1549 q 1031 1505 1040 1529 q 1002 1458 1021 1481 q 956 1419 983 1435 q 893 1404 929 1404 q 823 1417 853 1404 q 769 1451 793 1431 q 727 1494 746 1471 q 692 1538 708 1518 q 658 1572 675 1558 q 619 1585 640 1585 q 572 1564 590 1585 q 542 1517 553 1543 q 524 1465 531 1490 q 514 1431 518 1439 l 439 1469 z "},"":{"ha":1543,"x_min":50,"x_max":1493,"o":"m 538 0 q 347 38 436 0 q 192 142 258 76 q 88 297 126 208 q 50 488 50 386 l 50 869 q 88 1060 50 971 q 192 1215 126 1149 q 347 1319 258 1281 q 538 1357 436 1357 l 1006 1357 q 1196 1319 1107 1357 q 1351 1215 1285 1281 q 1455 1060 1417 1149 q 1493 869 1493 971 l 1493 488 q 1455 297 1493 386 q 1351 142 1417 208 q 1196 38 1285 76 q 1006 0 1107 0 l 538 0 m 286 1240 q 202 1205 236 1240 q 168 1121 168 1169 l 168 236 q 203 153 168 188 q 286 118 238 118 l 1256 118 q 1340 153 1306 118 q 1375 236 1375 188 l 1375 1121 q 1366 1167 1375 1146 q 1340 1205 1357 1189 q 1302 1231 1324 1221 q 1256 1240 1281 1240 l 286 1240 m 703 1504 q 694 1532 692 1517 q 707 1558 696 1547 q 732 1567 719 1567 q 761 1554 750 1567 l 842 1457 q 850 1430 851 1446 q 836 1404 849 1414 q 811 1396 825 1396 q 782 1410 794 1396 l 703 1504 z "},"":{"ha":1543,"x_min":50,"x_max":1493,"o":"m 538 0 q 347 38 436 0 q 192 142 258 76 q 88 297 126 208 q 50 488 50 386 l 50 869 q 88 1060 50 971 q 192 1215 126 1149 q 347 1319 258 1281 q 538 1357 436 1357 l 1006 1357 q 1196 1319 1107 1357 q 1351 1215 1285 1281 q 1455 1060 1417 1149 q 1493 869 1493 971 l 1493 488 q 1455 297 1493 386 q 1351 142 1417 208 q 1196 38 1285 76 q 1006 0 1107 0 l 538 0 m 286 1240 q 202 1205 236 1240 q 168 1121 168 1169 l 168 236 q 203 153 168 188 q 286 118 238 118 l 1256 118 q 1340 153 1306 118 q 1375 236 1375 188 l 1375 1121 q 1366 1167 1375 1146 q 1340 1205 1357 1189 q 1302 1231 1324 1221 q 1256 1240 1281 1240 l 286 1240 m 911 1625 l 718 1399 l 631 1399 l 771 1625 l 911 1625 z "},"":{"ha":1543,"x_min":50,"x_max":1493,"o":"m 538 0 q 347 38 436 0 q 192 142 258 76 q 88 297 126 208 q 50 488 50 386 l 50 869 q 88 1060 50 971 q 192 1215 126 1149 q 347 1319 258 1281 q 538 1357 436 1357 l 1006 1357 q 1196 1319 1107 1357 q 1351 1215 1285 1281 q 1455 1060 1417 1149 q 1493 869 1493 971 l 1493 488 q 1455 297 1493 386 q 1351 142 1417 208 q 1196 38 1285 76 q 1006 0 1107 0 l 538 0 m 286 1240 q 202 1205 236 1240 q 168 1121 168 1169 l 168 236 q 203 153 168 188 q 286 118 238 118 l 1256 118 q 1340 153 1306 118 q 1375 236 1375 188 l 1375 1121 q 1366 1167 1375 1146 q 1340 1205 1357 1189 q 1302 1231 1324 1221 q 1256 1240 1281 1240 l 286 1240 m 665 1568 q 710 1610 682 1596 q 769 1625 738 1625 q 830 1610 801 1625 q 875 1568 858 1596 l 990 1399 l 882 1399 l 800 1592 q 771 1611 792 1611 q 754 1606 761 1611 q 743 1592 744 1601 l 656 1399 l 553 1399 l 665 1568 z "},"":{"ha":1543,"x_min":50,"x_max":1493,"o":"m 538 0 q 347 38 436 0 q 192 142 258 76 q 88 297 126 208 q 50 488 50 386 l 50 869 q 88 1060 50 971 q 192 1215 126 1149 q 347 1319 258 1281 q 538 1357 436 1357 l 1006 1357 q 1196 1319 1107 1357 q 1351 1215 1285 1281 q 1455 1060 1417 1149 q 1493 869 1493 971 l 1493 488 q 1455 297 1493 386 q 1351 142 1417 208 q 1196 38 1285 76 q 1006 0 1107 0 l 538 0 m 286 1240 q 202 1205 236 1240 q 168 1121 168 1169 l 168 236 q 203 153 168 188 q 286 118 238 118 l 1256 118 q 1340 153 1306 118 q 1375 236 1375 188 l 1375 1121 q 1366 1167 1375 1146 q 1340 1205 1357 1189 q 1302 1231 1324 1221 q 1256 1240 1281 1240 l 286 1240 m 469 1469 q 485 1494 471 1472 q 523 1540 499 1515 q 582 1582 547 1564 q 658 1596 617 1600 q 739 1563 704 1592 q 804 1502 774 1535 q 863 1443 835 1469 q 924 1417 892 1417 q 956 1439 943 1417 q 977 1488 969 1461 q 988 1538 985 1515 q 992 1563 992 1561 l 1074 1549 q 1061 1505 1071 1529 q 1033 1458 1051 1481 q 987 1419 1014 1435 q 924 1404 960 1404 q 853 1417 883 1404 q 800 1451 824 1431 q 758 1494 776 1471 q 722 1538 739 1518 q 688 1572 706 1558 q 650 1585 671 1585 q 602 1564 621 1585 q 572 1517 583 1543 q 555 1465 561 1490 q 544 1431 549 1439 l 469 1469 z "},"":{"ha":1543,"x_min":50,"x_max":1493,"o":"m 538 0 q 347 38 436 0 q 192 142 258 76 q 88 297 126 208 q 50 488 50 386 l 50 869 q 88 1060 50 971 q 192 1215 126 1149 q 347 1319 258 1281 q 538 1357 436 1357 l 1006 1357 q 1196 1319 1107 1357 q 1351 1215 1285 1281 q 1455 1060 1417 1149 q 1493 869 1493 971 l 1493 488 q 1455 297 1493 386 q 1351 142 1417 208 q 1196 38 1285 76 q 1006 0 1107 0 l 538 0 m 286 1240 q 202 1205 236 1240 q 168 1121 168 1169 l 168 236 q 203 153 168 188 q 286 118 238 118 l 1256 118 q 1340 153 1306 118 q 1375 236 1375 188 l 1375 1121 q 1366 1167 1375 1146 q 1340 1205 1357 1189 q 1302 1231 1324 1221 q 1256 1240 1281 1240 l 286 1240 m 544 1478 q 569 1534 544 1510 q 626 1558 593 1558 q 681 1535 658 1558 q 704 1478 704 1513 q 683 1420 704 1444 q 626 1396 661 1396 q 567 1420 590 1396 q 544 1478 544 1444 m 919 1396 q 862 1420 883 1396 q 840 1478 840 1444 q 863 1534 840 1510 q 919 1558 886 1558 q 976 1535 954 1558 q 997 1478 997 1513 q 976 1420 997 1444 q 919 1396 956 1396 z "},"":{"ha":531,"x_min":67,"x_max":465,"o":"m 67 692 l 147 772 l 265 656 l 383 772 l 465 693 l 346 574 l 465 456 l 383 375 l 265 493 l 147 375 l 67 456 l 183 574 l 67 692 z "},"":{"ha":1551,"x_min":54,"x_max":1496,"o":"m 542 0 q 351 38 440 0 q 197 142 263 76 q 92 297 131 208 q 54 488 54 386 l 54 1357 l 171 1357 l 171 236 q 206 152 171 186 q 290 118 242 118 l 1260 118 q 1344 153 1310 118 q 1379 236 1379 188 l 1379 1357 l 1496 1357 l 1496 488 q 1458 297 1496 386 q 1353 142 1419 208 q 1199 38 1288 76 q 1008 0 1110 0 l 542 0 m 707 1504 q 698 1532 696 1517 q 711 1558 700 1547 q 736 1567 724 1567 q 765 1554 754 1567 l 846 1457 q 854 1430 856 1446 q 840 1404 853 1414 q 815 1396 829 1396 q 786 1410 799 1396 l 707 1504 z "},"":{"ha":1551,"x_min":54,"x_max":1496,"o":"m 542 0 q 351 38 440 0 q 197 142 263 76 q 92 297 131 208 q 54 488 54 386 l 54 1357 l 171 1357 l 171 236 q 206 152 171 186 q 290 118 242 118 l 1260 118 q 1344 153 1310 118 q 1379 236 1379 188 l 1379 1357 l 1496 1357 l 1496 488 q 1458 297 1496 386 q 1353 142 1419 208 q 1199 38 1288 76 q 1008 0 1110 0 l 542 0 m 915 1625 l 722 1399 l 635 1399 l 775 1625 l 915 1625 z "},"":{"ha":1551,"x_min":54,"x_max":1496,"o":"m 542 0 q 351 38 440 0 q 197 142 263 76 q 92 297 131 208 q 54 488 54 386 l 54 1357 l 171 1357 l 171 236 q 206 152 171 186 q 290 118 242 118 l 1260 118 q 1344 153 1310 118 q 1379 236 1379 188 l 1379 1357 l 1496 1357 l 1496 488 q 1458 297 1496 386 q 1353 142 1419 208 q 1199 38 1288 76 q 1008 0 1110 0 l 542 0 m 669 1568 q 714 1610 686 1596 q 774 1625 742 1625 q 834 1610 806 1625 q 879 1568 863 1596 l 994 1399 l 886 1399 l 804 1592 q 775 1611 796 1611 q 758 1606 765 1611 q 747 1592 749 1601 l 660 1399 l 557 1399 l 669 1568 z "},"":{"ha":1551,"x_min":54,"x_max":1496,"o":"m 542 0 q 351 38 440 0 q 197 142 263 76 q 92 297 131 208 q 54 488 54 386 l 54 1357 l 171 1357 l 171 236 q 206 152 171 186 q 290 118 242 118 l 1260 118 q 1344 153 1310 118 q 1379 236 1379 188 l 1379 1357 l 1496 1357 l 1496 488 q 1458 297 1496 386 q 1353 142 1419 208 q 1199 38 1288 76 q 1008 0 1110 0 l 542 0 m 549 1478 q 573 1534 549 1510 q 631 1558 597 1558 q 685 1535 663 1558 q 708 1478 708 1513 q 687 1420 708 1444 q 631 1396 665 1396 q 572 1420 594 1396 q 549 1478 549 1444 m 924 1396 q 866 1420 888 1396 q 844 1478 844 1444 q 867 1534 844 1510 q 924 1558 890 1558 q 980 1535 958 1558 q 1001 1478 1001 1513 q 981 1420 1001 1444 q 924 1396 960 1396 z "},"":{"ha":1419,"x_min":25,"x_max":1394,"o":"m 518 621 q 335 654 424 622 q 177 747 246 686 q 67 897 108 808 q 25 1101 25 986 l 25 1357 l 143 1357 l 143 857 q 178 774 143 808 q 261 739 213 739 l 289 739 q 535 670 428 739 q 710 483 643 601 q 781 581 739 535 q 873 663 822 628 q 981 718 924 697 q 1101 739 1039 739 l 1158 739 q 1242 774 1207 739 q 1276 857 1276 808 l 1276 1357 l 1394 1357 l 1394 1101 q 1353 897 1394 986 q 1242 747 1311 808 q 1085 654 1174 686 q 903 621 996 622 l 888 621 q 841 612 863 621 q 803 587 819 603 q 778 550 788 571 q 768 506 768 529 l 768 0 l 651 0 l 651 503 q 616 587 651 553 q 532 621 581 621 l 518 621 m 850 1625 l 657 1399 l 569 1399 l 710 1625 l 850 1625 z "},"":{"ha":1157,"x_min":0,"x_max":0,"o":""},"":{"ha":1518,"x_min":38,"x_max":1481,"o":"m 640 1286 q 540 1165 600 1238 q 417 1014 481 1092 q 294 863 354 936 q 193 739 235 789 l 1326 739 q 1225 863 1285 789 q 1101 1014 1165 936 q 978 1165 1038 1092 q 879 1286 919 1238 q 758 1343 831 1343 q 692 1328 724 1343 q 640 1286 661 1314 m 156 0 l 38 0 l 38 136 q 63 423 38 281 q 135 701 88 565 q 255 963 183 836 q 418 1200 326 1089 q 567 1316 481 1275 q 751 1357 654 1357 l 758 1357 q 951 1315 860 1357 q 1106 1193 1042 1272 q 1385 703 1289 969 q 1481 146 1481 436 l 1481 0 l 1363 0 l 1363 621 l 156 621 l 156 0 m 690 1504 q 681 1532 679 1517 q 694 1558 683 1547 q 719 1567 707 1567 q 749 1554 738 1567 l 829 1457 q 838 1430 839 1446 q 824 1404 836 1414 q 799 1396 813 1396 q 769 1410 782 1396 l 690 1504 z "},"":{"ha":1518,"x_min":38,"x_max":1481,"o":"m 640 1286 q 540 1165 600 1238 q 417 1014 481 1092 q 294 863 354 936 q 193 739 235 789 l 1326 739 q 1225 863 1285 789 q 1101 1014 1165 936 q 978 1165 1038 1092 q 879 1286 919 1238 q 758 1343 831 1343 q 692 1328 724 1343 q 640 1286 661 1314 m 156 0 l 38 0 l 38 136 q 63 423 38 281 q 135 701 88 565 q 255 963 183 836 q 418 1200 326 1089 q 567 1316 481 1275 q 751 1357 654 1357 l 758 1357 q 951 1315 860 1357 q 1106 1193 1042 1272 q 1385 703 1289 969 q 1481 146 1481 436 l 1481 0 l 1363 0 l 1363 621 l 156 621 l 156 0 m 899 1625 l 706 1399 l 618 1399 l 758 1625 l 899 1625 z "},"":{"ha":1518,"x_min":38,"x_max":1481,"o":"m 640 1286 q 540 1165 600 1238 q 417 1014 481 1092 q 294 863 354 936 q 193 739 235 789 l 1326 739 q 1225 863 1285 789 q 1101 1014 1165 936 q 978 1165 1038 1092 q 879 1286 919 1238 q 758 1343 831 1343 q 692 1328 724 1343 q 640 1286 661 1314 m 156 0 l 38 0 l 38 136 q 63 423 38 281 q 135 701 88 565 q 255 963 183 836 q 418 1200 326 1089 q 567 1316 481 1275 q 751 1357 654 1357 l 758 1357 q 951 1315 860 1357 q 1106 1193 1042 1272 q 1385 703 1289 969 q 1481 146 1481 436 l 1481 0 l 1363 0 l 1363 621 l 156 621 l 156 0 m 653 1568 q 697 1610 669 1596 q 757 1625 725 1625 q 817 1610 789 1625 q 863 1568 846 1596 l 978 1399 l 869 1399 l 788 1592 q 758 1611 779 1611 q 742 1606 749 1611 q 731 1592 732 1601 l 643 1399 l 540 1399 l 653 1568 z "},"":{"ha":1518,"x_min":38,"x_max":1481,"o":"m 640 1286 q 540 1165 600 1238 q 417 1014 481 1092 q 294 863 354 936 q 193 739 235 789 l 1326 739 q 1225 863 1285 789 q 1101 1014 1165 936 q 978 1165 1038 1092 q 879 1286 919 1238 q 758 1343 831 1343 q 692 1328 724 1343 q 640 1286 661 1314 m 156 0 l 38 0 l 38 136 q 63 423 38 281 q 135 701 88 565 q 255 963 183 836 q 418 1200 326 1089 q 567 1316 481 1275 q 751 1357 654 1357 l 758 1357 q 951 1315 860 1357 q 1106 1193 1042 1272 q 1385 703 1289 969 q 1481 146 1481 436 l 1481 0 l 1363 0 l 1363 621 l 156 621 l 156 0 m 457 1469 q 472 1494 458 1472 q 510 1540 486 1515 q 569 1582 535 1564 q 646 1596 604 1600 q 726 1563 692 1592 q 792 1502 761 1535 q 851 1443 822 1469 q 911 1417 879 1417 q 944 1439 931 1417 q 965 1488 957 1461 q 976 1538 972 1515 q 979 1563 979 1561 l 1061 1549 q 1049 1505 1058 1529 q 1020 1458 1039 1481 q 974 1419 1001 1435 q 911 1404 947 1404 q 841 1417 871 1404 q 788 1451 811 1431 q 745 1494 764 1471 q 710 1538 726 1518 q 676 1572 693 1558 q 638 1585 658 1585 q 590 1564 608 1585 q 560 1517 571 1543 q 542 1465 549 1490 q 532 1431 536 1439 l 457 1469 z "},"":{"ha":1518,"x_min":38,"x_max":1481,"o":"m 640 1286 q 540 1165 600 1238 q 417 1014 481 1092 q 294 863 354 936 q 193 739 235 789 l 1326 739 q 1225 863 1285 789 q 1101 1014 1165 936 q 978 1165 1038 1092 q 879 1286 919 1238 q 758 1343 831 1343 q 692 1328 724 1343 q 640 1286 661 1314 m 156 0 l 38 0 l 38 136 q 63 423 38 281 q 135 701 88 565 q 255 963 183 836 q 418 1200 326 1089 q 567 1316 481 1275 q 751 1357 654 1357 l 758 1357 q 951 1315 860 1357 q 1106 1193 1042 1272 q 1385 703 1289 969 q 1481 146 1481 436 l 1481 0 l 1363 0 l 1363 621 l 156 621 l 156 0 m 532 1478 q 556 1534 532 1510 q 614 1558 581 1558 q 669 1535 646 1558 q 692 1478 692 1513 q 670 1420 692 1444 q 614 1396 649 1396 q 555 1420 578 1396 q 532 1478 532 1444 m 907 1396 q 849 1420 871 1396 q 828 1478 828 1444 q 851 1534 828 1510 q 907 1558 874 1558 q 963 1535 942 1558 q 985 1478 985 1513 q 964 1420 985 1444 q 907 1396 943 1396 z "},"":{"ha":1518,"x_min":38,"x_max":1481,"o":"m 640 1286 q 540 1165 600 1238 q 417 1014 481 1092 q 294 863 354 936 q 193 739 235 789 l 1326 739 q 1225 863 1285 789 q 1101 1014 1165 936 q 978 1165 1038 1092 q 879 1286 919 1238 q 758 1343 831 1343 q 692 1328 724 1343 q 640 1286 661 1314 m 156 0 l 38 0 l 38 136 q 63 423 38 281 q 135 701 88 565 q 255 963 183 836 q 418 1200 326 1089 q 567 1316 481 1275 q 751 1357 654 1357 l 758 1357 q 951 1315 860 1357 q 1106 1193 1042 1272 q 1385 703 1289 969 q 1481 146 1481 436 l 1481 0 l 1363 0 l 1363 621 l 156 621 l 156 0 m 549 1525 q 565 1610 549 1571 q 610 1677 582 1649 q 677 1722 639 1706 q 760 1739 715 1739 q 848 1722 808 1739 q 915 1676 888 1704 q 956 1610 942 1647 q 971 1532 971 1572 q 953 1444 971 1483 q 905 1378 935 1406 q 837 1335 875 1350 q 758 1319 799 1319 q 673 1336 711 1319 q 607 1381 635 1353 q 564 1446 579 1408 q 549 1525 549 1483 m 760 1726 q 705 1710 728 1726 q 666 1667 682 1694 q 642 1603 650 1639 q 635 1525 635 1567 q 671 1385 635 1439 q 760 1331 707 1331 q 809 1345 786 1331 q 849 1386 832 1360 q 875 1449 865 1413 q 885 1531 885 1486 q 878 1603 885 1568 q 856 1666 871 1639 q 817 1710 840 1693 q 760 1726 793 1726 z "},"":{"ha":2922,"x_min":38,"x_max":2913,"o":"m 640 1286 q 540 1165 600 1238 q 417 1014 481 1092 q 294 863 354 936 q 193 739 235 789 l 1326 739 q 1225 863 1285 789 q 1101 1014 1165 936 q 978 1165 1038 1092 q 879 1286 919 1238 q 758 1343 831 1343 q 692 1328 724 1343 q 640 1286 661 1314 m 156 0 l 38 0 l 38 136 q 63 423 38 281 q 135 701 88 565 q 255 963 183 836 q 418 1200 326 1089 q 567 1316 481 1275 q 751 1357 654 1357 l 758 1357 q 951 1315 860 1357 q 1106 1193 1042 1272 q 1385 703 1289 969 q 1481 146 1481 436 l 1481 0 l 1363 0 l 1363 621 l 156 621 l 156 0 m 2032 0 q 1843 38 1932 0 q 1688 142 1754 76 q 1583 297 1621 208 q 1544 488 1544 386 l 1544 869 q 1583 1060 1544 971 q 1688 1215 1621 1149 q 1843 1319 1754 1281 q 2032 1357 1932 1357 l 2913 1357 l 2913 1240 l 1781 1240 q 1697 1205 1731 1240 q 1663 1121 1663 1169 l 1663 739 l 2676 739 l 2676 621 l 1663 621 l 1663 236 q 1697 153 1663 188 q 1781 118 1732 118 l 2913 118 l 2913 0 l 2032 0 z "},"":{"ha":1442,"x_min":47,"x_max":1400,"o":"m 47 869 q 85 1060 47 971 q 190 1215 124 1149 q 346 1319 257 1281 q 535 1357 435 1357 l 956 1357 q 1097 1335 1029 1357 q 1222 1272 1165 1313 q 1323 1174 1279 1231 q 1392 1047 1367 1117 q 1385 1007 1399 1025 q 1347 989 1371 989 q 1313 1002 1328 989 q 1299 1036 1299 1015 l 1299 1121 q 1265 1205 1299 1169 q 1181 1240 1231 1240 l 283 1240 q 201 1205 235 1240 q 167 1121 167 1169 l 167 236 q 201 153 167 188 q 283 118 235 118 l 1181 118 q 1264 153 1229 118 q 1299 236 1299 188 l 1299 321 q 1313 354 1299 340 q 1347 368 1328 368 q 1386 347 1372 368 q 1389 304 1400 326 q 1320 179 1364 235 q 1219 83 1276 124 q 1095 22 1163 43 q 956 0 1028 0 l 535 0 q 346 38 435 0 q 190 142 257 76 q 85 297 124 208 q 47 488 47 386 l 47 869 m 604 -168 q 681 -196 644 -187 q 747 -204 717 -204 q 814 -187 789 -204 q 836 -143 839 -171 q 813 -110 835 -122 q 762 -90 792 -97 q 697 -79 732 -82 q 635 -74 663 -76 l 710 58 l 750 58 l 699 -24 q 814 -56 778 -24 q 854 -133 850 -89 q 845 -192 857 -167 q 813 -233 833 -217 q 763 -258 792 -250 q 703 -265 733 -265 q 581 -235 636 -265 l 604 -168 z "},"":{"ha":1425,"x_min":47,"x_max":1415,"o":"m 535 0 q 346 38 435 0 q 190 142 257 76 q 85 297 124 208 q 47 488 47 386 l 47 869 q 85 1060 47 971 q 190 1215 124 1149 q 346 1319 257 1281 q 535 1357 435 1357 l 1415 1357 l 1415 1240 l 283 1240 q 199 1205 233 1240 q 165 1121 165 1169 l 165 739 l 1179 739 l 1179 621 l 165 621 l 165 236 q 200 153 165 188 q 283 118 235 118 l 1415 118 l 1415 0 l 535 0 m 643 1504 q 634 1532 632 1517 q 647 1558 636 1547 q 672 1567 660 1567 q 701 1554 690 1567 l 782 1457 q 790 1430 792 1446 q 776 1404 789 1414 q 751 1396 765 1396 q 722 1410 735 1396 l 643 1504 z "},"":{"ha":1425,"x_min":47,"x_max":1415,"o":"m 535 0 q 346 38 435 0 q 190 142 257 76 q 85 297 124 208 q 47 488 47 386 l 47 869 q 85 1060 47 971 q 190 1215 124 1149 q 346 1319 257 1281 q 535 1357 435 1357 l 1415 1357 l 1415 1240 l 283 1240 q 199 1205 233 1240 q 165 1121 165 1169 l 165 739 l 1179 739 l 1179 621 l 165 621 l 165 236 q 200 153 165 188 q 283 118 235 118 l 1415 118 l 1415 0 l 535 0 m 853 1625 l 660 1399 l 572 1399 l 713 1625 l 853 1625 z "},"":{"ha":1425,"x_min":47,"x_max":1415,"o":"m 535 0 q 346 38 435 0 q 190 142 257 76 q 85 297 124 208 q 47 488 47 386 l 47 869 q 85 1060 47 971 q 190 1215 124 1149 q 346 1319 257 1281 q 535 1357 435 1357 l 1415 1357 l 1415 1240 l 283 1240 q 199 1205 233 1240 q 165 1121 165 1169 l 165 739 l 1179 739 l 1179 621 l 165 621 l 165 236 q 200 153 165 188 q 283 118 235 118 l 1415 118 l 1415 0 l 535 0 m 606 1568 q 650 1610 622 1596 q 710 1625 678 1625 q 770 1610 742 1625 q 815 1568 799 1596 l 931 1399 l 822 1399 l 740 1592 q 711 1611 732 1611 q 694 1606 701 1611 q 683 1592 685 1601 l 596 1399 l 493 1399 l 606 1568 z "},"":{"ha":1425,"x_min":47,"x_max":1415,"o":"m 535 0 q 346 38 435 0 q 190 142 257 76 q 85 297 124 208 q 47 488 47 386 l 47 869 q 85 1060 47 971 q 190 1215 124 1149 q 346 1319 257 1281 q 535 1357 435 1357 l 1415 1357 l 1415 1240 l 283 1240 q 199 1205 233 1240 q 165 1121 165 1169 l 165 739 l 1179 739 l 1179 621 l 165 621 l 165 236 q 200 153 165 188 q 283 118 235 118 l 1415 118 l 1415 0 l 535 0 m 486 1478 q 510 1534 486 1510 q 568 1558 535 1558 q 623 1535 600 1558 q 646 1478 646 1513 q 624 1420 646 1444 q 568 1396 603 1396 q 509 1420 532 1396 q 486 1478 486 1444 m 861 1396 q 803 1420 825 1396 q 782 1478 782 1444 q 805 1534 782 1510 q 861 1558 828 1558 q 917 1535 896 1558 q 939 1478 939 1513 q 918 1420 939 1444 q 861 1396 897 1396 z "},"":{"ha":235,"x_min":38,"x_max":197,"o":"m 56 0 l 56 1357 l 174 1357 l 174 0 l 56 0 m 49 1504 q 40 1532 38 1517 q 53 1558 42 1547 q 78 1567 65 1567 q 107 1554 96 1567 l 188 1457 q 196 1430 197 1446 q 182 1404 194 1414 q 157 1396 171 1396 q 128 1410 140 1396 l 49 1504 z "},"":{"ha":235,"x_min":-22,"x_max":258,"o":"m 56 0 l 56 1357 l 174 1357 l 174 0 l 56 0 m 258 1625 l 65 1399 l -22 1399 l 118 1625 l 258 1625 z "},"":{"ha":235,"x_min":-101,"x_max":336,"o":"m 56 0 l 56 1357 l 174 1357 l 174 0 l 56 0 m 11 1568 q 56 1610 28 1596 q 115 1625 83 1625 q 176 1610 147 1625 q 221 1568 204 1596 l 336 1399 l 228 1399 l 146 1592 q 117 1611 138 1611 q 100 1606 107 1611 q 89 1592 90 1601 l 1 1399 l -101 1399 l 11 1568 z "},"":{"ha":235,"x_min":-108,"x_max":344,"o":"m 56 0 l 56 1357 l 174 1357 l 174 0 l 56 0 m -108 1478 q -84 1534 -108 1510 q -26 1558 -60 1558 q 28 1535 6 1558 q 51 1478 51 1513 q 30 1420 51 1444 q -26 1396 8 1396 q -85 1420 -62 1396 q -108 1478 -108 1444 m 267 1396 q 209 1420 231 1396 q 188 1478 188 1444 q 210 1534 188 1510 q 267 1558 233 1558 q 323 1535 301 1558 q 344 1478 344 1513 q 324 1420 344 1444 q 267 1396 303 1396 z "},"":{"ha":1479,"x_min":56,"x_max":1424,"o":"m 56 0 l 56 1081 q 77 1189 56 1139 q 135 1276 99 1239 q 222 1335 172 1314 q 331 1357 272 1357 q 476 1314 410 1357 q 575 1196 543 1271 q 633 1066 601 1136 q 699 919 664 996 q 769 763 733 843 q 842 604 806 683 q 910 449 876 525 q 974 306 944 374 q 1029 182 1004 239 q 1074 85 1054 125 q 1118 34 1089 53 q 1182 15 1147 15 l 1186 15 q 1271 50 1236 15 q 1306 135 1306 85 l 1306 1357 l 1424 1357 l 1424 265 q 1403 162 1424 210 q 1347 78 1382 114 q 1263 21 1311 42 q 1160 0 1214 0 l 1154 0 q 1010 42 1075 0 q 913 156 944 85 q 839 322 881 228 q 750 519 797 415 q 654 732 703 624 q 561 940 606 840 q 478 1125 517 1040 q 415 1267 440 1210 q 368 1320 399 1300 q 300 1340 338 1340 q 249 1330 272 1340 q 209 1302 226 1319 q 182 1261 192 1285 q 172 1211 172 1238 l 172 0 l 56 0 m 438 1469 q 453 1494 439 1472 q 491 1540 467 1515 q 550 1582 515 1564 q 626 1596 585 1600 q 707 1563 672 1592 q 772 1502 742 1535 q 831 1443 803 1469 q 892 1417 860 1417 q 924 1439 911 1417 q 945 1488 938 1461 q 956 1538 953 1515 q 960 1563 960 1561 l 1042 1549 q 1029 1505 1039 1529 q 1001 1458 1019 1481 q 955 1419 982 1435 q 892 1404 928 1404 q 822 1417 851 1404 q 768 1451 792 1431 q 726 1494 744 1471 q 690 1538 707 1518 q 656 1572 674 1558 q 618 1585 639 1585 q 570 1564 589 1585 q 540 1517 551 1543 q 523 1465 529 1490 q 513 1431 517 1439 l 438 1469 z "},"":{"ha":1538,"x_min":47,"x_max":1490,"o":"m 535 0 q 346 38 435 0 q 190 142 257 76 q 85 297 124 208 q 47 488 47 386 l 47 869 q 85 1060 47 971 q 190 1215 124 1149 q 346 1319 257 1281 q 535 1357 435 1357 l 1003 1357 q 1193 1319 1104 1357 q 1348 1215 1282 1281 q 1452 1060 1414 1149 q 1490 869 1490 971 l 1490 488 q 1452 297 1490 386 q 1348 142 1414 208 q 1193 38 1282 76 q 1003 0 1104 0 l 535 0 m 283 1240 q 199 1205 233 1240 q 165 1121 165 1169 l 165 236 q 200 153 165 188 q 283 118 235 118 l 1254 118 q 1338 153 1303 118 q 1372 236 1372 188 l 1372 1121 q 1338 1205 1372 1169 q 1254 1240 1304 1240 l 283 1240 m 700 1504 q 691 1532 689 1517 q 704 1558 693 1547 q 729 1567 717 1567 q 758 1554 747 1567 l 839 1457 q 847 1430 849 1446 q 833 1404 846 1414 q 808 1396 822 1396 q 779 1410 792 1396 l 700 1504 z "},"":{"ha":1538,"x_min":47,"x_max":1490,"o":"m 535 0 q 346 38 435 0 q 190 142 257 76 q 85 297 124 208 q 47 488 47 386 l 47 869 q 85 1060 47 971 q 190 1215 124 1149 q 346 1319 257 1281 q 535 1357 435 1357 l 1003 1357 q 1193 1319 1104 1357 q 1348 1215 1282 1281 q 1452 1060 1414 1149 q 1490 869 1490 971 l 1490 488 q 1452 297 1490 386 q 1348 142 1414 208 q 1193 38 1282 76 q 1003 0 1104 0 l 535 0 m 283 1240 q 199 1205 233 1240 q 165 1121 165 1169 l 165 236 q 200 153 165 188 q 283 118 235 118 l 1254 118 q 1338 153 1303 118 q 1372 236 1372 188 l 1372 1121 q 1338 1205 1372 1169 q 1254 1240 1304 1240 l 283 1240 m 908 1625 l 715 1399 l 628 1399 l 768 1625 l 908 1625 z "},"":{"ha":1538,"x_min":47,"x_max":1490,"o":"m 535 0 q 346 38 435 0 q 190 142 257 76 q 85 297 124 208 q 47 488 47 386 l 47 869 q 85 1060 47 971 q 190 1215 124 1149 q 346 1319 257 1281 q 535 1357 435 1357 l 1003 1357 q 1193 1319 1104 1357 q 1348 1215 1282 1281 q 1452 1060 1414 1149 q 1490 869 1490 971 l 1490 488 q 1452 297 1490 386 q 1348 142 1414 208 q 1193 38 1282 76 q 1003 0 1104 0 l 535 0 m 283 1240 q 199 1205 233 1240 q 165 1121 165 1169 l 165 236 q 200 153 165 188 q 283 118 235 118 l 1254 118 q 1338 153 1303 118 q 1372 236 1372 188 l 1372 1121 q 1338 1205 1372 1169 q 1254 1240 1304 1240 l 283 1240 m 663 1568 q 707 1610 679 1596 q 767 1625 735 1625 q 827 1610 799 1625 q 872 1568 856 1596 l 988 1399 l 879 1399 l 797 1592 q 768 1611 789 1611 q 751 1606 758 1611 q 740 1592 742 1601 l 653 1399 l 550 1399 l 663 1568 z "},"":{"ha":1538,"x_min":47,"x_max":1490,"o":"m 535 0 q 346 38 435 0 q 190 142 257 76 q 85 297 124 208 q 47 488 47 386 l 47 869 q 85 1060 47 971 q 190 1215 124 1149 q 346 1319 257 1281 q 535 1357 435 1357 l 1003 1357 q 1193 1319 1104 1357 q 1348 1215 1282 1281 q 1452 1060 1414 1149 q 1490 869 1490 971 l 1490 488 q 1452 297 1490 386 q 1348 142 1414 208 q 1193 38 1282 76 q 1003 0 1104 0 l 535 0 m 283 1240 q 199 1205 233 1240 q 165 1121 165 1169 l 165 236 q 200 153 165 188 q 283 118 235 118 l 1254 118 q 1338 153 1303 118 q 1372 236 1372 188 l 1372 1121 q 1338 1205 1372 1169 q 1254 1240 1304 1240 l 283 1240 m 467 1469 q 482 1494 468 1472 q 520 1540 496 1515 q 579 1582 544 1564 q 656 1596 614 1600 q 736 1563 701 1592 q 801 1502 771 1535 q 860 1443 832 1469 q 921 1417 889 1417 q 953 1439 940 1417 q 974 1488 967 1461 q 985 1538 982 1515 q 989 1563 989 1561 l 1071 1549 q 1058 1505 1068 1529 q 1030 1458 1049 1481 q 984 1419 1011 1435 q 921 1404 957 1404 q 851 1417 881 1404 q 797 1451 821 1431 q 755 1494 774 1471 q 719 1538 736 1518 q 685 1572 703 1558 q 647 1585 668 1585 q 599 1564 618 1585 q 569 1517 581 1543 q 552 1465 558 1490 q 542 1431 546 1439 l 467 1469 z "},"":{"ha":1538,"x_min":47,"x_max":1490,"o":"m 535 0 q 346 38 435 0 q 190 142 257 76 q 85 297 124 208 q 47 488 47 386 l 47 869 q 85 1060 47 971 q 190 1215 124 1149 q 346 1319 257 1281 q 535 1357 435 1357 l 1003 1357 q 1193 1319 1104 1357 q 1348 1215 1282 1281 q 1452 1060 1414 1149 q 1490 869 1490 971 l 1490 488 q 1452 297 1490 386 q 1348 142 1414 208 q 1193 38 1282 76 q 1003 0 1104 0 l 535 0 m 283 1240 q 199 1205 233 1240 q 165 1121 165 1169 l 165 236 q 200 153 165 188 q 283 118 235 118 l 1254 118 q 1338 153 1303 118 q 1372 236 1372 188 l 1372 1121 q 1338 1205 1372 1169 q 1254 1240 1304 1240 l 283 1240 m 542 1478 q 566 1534 542 1510 q 624 1558 590 1558 q 678 1535 656 1558 q 701 1478 701 1513 q 680 1420 701 1444 q 624 1396 658 1396 q 565 1420 588 1396 q 542 1478 542 1444 m 917 1396 q 859 1420 881 1396 q 838 1478 838 1444 q 860 1534 838 1510 q 917 1558 883 1558 q 973 1535 951 1558 q 994 1478 994 1513 q 974 1420 994 1444 q 917 1396 953 1396 z "},"":{"ha":608,"x_min":57,"x_max":550,"o":"m 57 508 l 57 624 l 550 624 l 550 508 l 57 508 m 263 385 q 274 414 263 401 q 304 426 286 426 q 334 414 322 426 q 346 385 346 401 l 346 342 q 334 312 346 324 q 304 300 322 300 q 274 312 286 300 q 263 342 263 324 l 263 385 m 304 706 q 274 717 286 706 q 263 747 263 729 l 263 790 q 274 820 263 808 q 304 832 286 832 q 334 820 322 832 q 346 790 346 808 l 346 747 q 334 717 346 729 q 304 706 322 706 z "},"":{"ha":1547,"x_min":53,"x_max":1494,"o":"m 540 0 q 350 38 439 0 q 195 142 261 76 q 91 297 129 208 q 53 488 53 386 l 53 1357 l 169 1357 l 169 236 q 205 152 169 186 q 289 118 240 118 l 1258 118 q 1343 153 1308 118 q 1378 236 1378 188 l 1378 1357 l 1494 1357 l 1494 488 q 1456 297 1494 386 q 1352 142 1418 208 q 1197 38 1286 76 q 1007 0 1108 0 l 540 0 m 704 1504 q 695 1532 693 1517 q 708 1558 697 1547 q 733 1567 721 1567 q 763 1554 751 1567 l 843 1457 q 851 1430 853 1446 q 838 1404 850 1414 q 813 1396 826 1396 q 783 1410 796 1396 l 704 1504 z "},"":{"ha":1547,"x_min":53,"x_max":1494,"o":"m 540 0 q 350 38 439 0 q 195 142 261 76 q 91 297 129 208 q 53 488 53 386 l 53 1357 l 169 1357 l 169 236 q 205 152 169 186 q 289 118 240 118 l 1258 118 q 1343 153 1308 118 q 1378 236 1378 188 l 1378 1357 l 1494 1357 l 1494 488 q 1456 297 1494 386 q 1352 142 1418 208 q 1197 38 1286 76 q 1007 0 1108 0 l 540 0 m 914 1625 l 721 1399 l 633 1399 l 774 1625 l 914 1625 z "},"":{"ha":1547,"x_min":53,"x_max":1494,"o":"m 540 0 q 350 38 439 0 q 195 142 261 76 q 91 297 129 208 q 53 488 53 386 l 53 1357 l 169 1357 l 169 236 q 205 152 169 186 q 289 118 240 118 l 1258 118 q 1343 153 1308 118 q 1378 236 1378 188 l 1378 1357 l 1494 1357 l 1494 488 q 1456 297 1494 386 q 1352 142 1418 208 q 1197 38 1286 76 q 1007 0 1108 0 l 540 0 m 667 1568 q 711 1610 683 1596 q 771 1625 739 1625 q 831 1610 803 1625 q 876 1568 860 1596 l 992 1399 l 883 1399 l 801 1592 q 772 1611 793 1611 q 756 1606 763 1611 q 744 1592 746 1601 l 657 1399 l 554 1399 l 667 1568 z "},"":{"ha":1547,"x_min":53,"x_max":1494,"o":"m 540 0 q 350 38 439 0 q 195 142 261 76 q 91 297 129 208 q 53 488 53 386 l 53 1357 l 169 1357 l 169 236 q 205 152 169 186 q 289 118 240 118 l 1258 118 q 1343 153 1308 118 q 1378 236 1378 188 l 1378 1357 l 1494 1357 l 1494 488 q 1456 297 1494 386 q 1352 142 1418 208 q 1197 38 1286 76 q 1007 0 1108 0 l 540 0 m 547 1478 q 572 1534 547 1510 q 629 1558 596 1558 q 684 1535 661 1558 q 707 1478 707 1513 q 685 1420 707 1444 q 629 1396 664 1396 q 570 1420 593 1396 q 547 1478 547 1444 m 922 1396 q 865 1420 886 1396 q 843 1478 843 1444 q 866 1534 843 1510 q 922 1558 889 1558 q 978 1535 957 1558 q 1000 1478 1000 1513 q 979 1420 1000 1444 q 922 1396 958 1396 z "},"":{"ha":1418,"x_min":24,"x_max":1393,"o":"m 517 621 q 333 654 422 622 q 176 747 244 686 q 65 897 107 808 q 24 1101 24 986 l 24 1357 l 142 1357 l 142 857 q 176 774 142 808 q 260 739 211 739 l 288 739 q 534 670 426 739 q 708 483 642 601 q 779 581 738 535 q 872 663 821 628 q 980 718 922 697 q 1100 739 1038 739 l 1157 739 q 1240 774 1206 739 q 1275 857 1275 808 l 1275 1357 l 1393 1357 l 1393 1101 q 1351 897 1393 986 q 1241 747 1310 808 q 1083 654 1172 686 q 901 621 994 622 l 886 621 q 802 587 836 621 q 768 506 768 553 l 768 0 l 650 0 l 650 503 q 615 587 650 553 q 531 621 579 621 l 517 621 m 849 1625 l 656 1399 l 568 1399 l 708 1625 l 849 1625 z "},"":{"ha":1418,"x_min":24,"x_max":1393,"o":"m 517 621 q 333 654 422 622 q 176 747 244 686 q 65 897 107 808 q 24 1101 24 986 l 24 1357 l 142 1357 l 142 857 q 176 774 142 808 q 260 739 211 739 l 288 739 q 534 670 426 739 q 708 483 642 601 q 779 581 738 535 q 872 663 821 628 q 980 718 922 697 q 1100 739 1038 739 l 1157 739 q 1240 774 1206 739 q 1275 857 1275 808 l 1275 1357 l 1393 1357 l 1393 1101 q 1351 897 1393 986 q 1241 747 1310 808 q 1083 654 1172 686 q 901 621 994 622 l 886 621 q 802 587 836 621 q 768 506 768 553 l 768 0 l 650 0 l 650 503 q 615 587 650 553 q 531 621 579 621 l 517 621 m 482 1478 q 506 1534 482 1510 q 564 1558 531 1558 q 619 1535 596 1558 q 642 1478 642 1513 q 620 1420 642 1444 q 564 1396 599 1396 q 505 1420 528 1396 q 482 1478 482 1444 m 857 1396 q 799 1420 821 1396 q 778 1478 778 1444 q 801 1534 778 1510 q 857 1558 824 1558 q 913 1535 892 1558 q 935 1478 935 1513 q 914 1420 935 1444 q 857 1396 893 1396 z "},"":{"ha":1522,"x_min":40,"x_max":1482,"o":"m 643 1286 q 543 1165 603 1238 q 419 1014 483 1092 q 296 863 356 936 q 194 739 236 789 l 1329 739 q 1265 817 1301 772 q 1188 911 1228 861 q 1104 1014 1147 961 q 1020 1116 1061 1067 q 943 1209 979 1165 q 881 1286 907 1253 q 827 1328 858 1314 q 761 1343 796 1343 q 695 1328 726 1343 q 643 1286 664 1314 m 157 0 l 40 0 l 40 136 q 65 423 40 281 q 138 701 90 565 q 258 963 186 836 q 421 1200 329 1089 q 570 1316 483 1275 q 754 1357 657 1357 l 761 1357 q 953 1315 861 1357 q 1107 1193 1044 1272 q 1387 703 1292 969 q 1482 146 1482 436 l 1482 0 l 1365 0 l 1365 621 l 157 621 l 157 0 m 542 1624 l 644 1624 l 732 1429 q 760 1411 738 1411 q 778 1417 768 1411 q 789 1431 782 1419 l 871 1624 l 979 1624 l 864 1453 q 818 1411 846 1425 q 758 1397 790 1397 q 699 1412 726 1397 q 654 1454 671 1426 l 542 1624 z "},"":{"ha":1518,"x_min":38,"x_max":1481,"o":"m 640 1286 q 540 1165 600 1238 q 417 1014 481 1092 q 294 863 354 936 q 193 739 235 789 l 1326 739 q 1225 863 1285 789 q 1101 1014 1165 936 q 978 1165 1038 1092 q 879 1286 919 1238 q 758 1343 831 1343 q 692 1328 724 1343 q 640 1286 661 1314 m 156 0 l 38 0 l 38 136 q 63 423 38 281 q 135 701 88 565 q 255 963 183 836 q 418 1200 326 1089 q 567 1316 481 1275 q 751 1357 654 1357 l 758 1357 q 951 1315 860 1357 q 1106 1193 1042 1272 q 1385 703 1289 969 q 1481 146 1481 436 l 1481 0 l 1363 0 l 1363 621 l 156 621 l 156 0 m 540 1624 l 643 1624 l 731 1429 q 758 1411 736 1411 q 776 1417 767 1411 q 788 1431 781 1419 l 869 1624 l 978 1624 l 863 1453 q 817 1411 844 1425 q 757 1397 789 1397 q 697 1412 725 1397 q 653 1454 669 1426 l 540 1624 z "},"":{"ha":1522,"x_min":40,"x_max":1482,"o":"m 643 1286 q 543 1165 603 1238 q 419 1014 483 1092 q 296 863 356 936 q 194 739 236 789 l 1329 739 q 1265 817 1301 772 q 1188 911 1228 861 q 1104 1014 1147 961 q 1020 1116 1061 1067 q 943 1209 979 1165 q 881 1286 907 1253 q 827 1328 858 1314 q 761 1343 796 1343 q 695 1328 726 1343 q 643 1286 664 1314 m 157 0 l 40 0 l 40 136 q 65 423 40 281 q 138 701 90 565 q 258 963 186 836 q 421 1200 329 1089 q 570 1316 483 1275 q 754 1357 657 1357 l 761 1357 q 953 1315 861 1357 q 1107 1193 1044 1272 q 1387 703 1292 969 q 1482 146 1482 436 l 1482 0 l 1365 0 l 1365 621 l 157 621 l 157 0 m 1482 -235 q 1360 -265 1426 -265 q 1299 -258 1328 -265 q 1250 -233 1271 -250 q 1217 -192 1229 -217 q 1208 -133 1206 -167 q 1249 -56 1213 -89 q 1364 -24 1285 -24 l 1313 58 l 1353 58 l 1428 -74 q 1365 -79 1400 -76 q 1301 -90 1331 -82 q 1249 -110 1271 -97 q 1226 -143 1228 -122 q 1249 -187 1224 -171 q 1315 -204 1274 -204 q 1382 -196 1346 -204 q 1458 -168 1418 -187 l 1482 -235 z "},"":{"ha":1518,"x_min":38,"x_max":1481,"o":"m 640 1286 q 540 1165 600 1238 q 417 1014 481 1092 q 294 863 354 936 q 193 739 235 789 l 1326 739 q 1225 863 1285 789 q 1101 1014 1165 936 q 978 1165 1038 1092 q 879 1286 919 1238 q 758 1343 831 1343 q 692 1328 724 1343 q 640 1286 661 1314 m 156 0 l 38 0 l 38 136 q 63 423 38 281 q 135 701 88 565 q 255 963 183 836 q 418 1200 326 1089 q 567 1316 481 1275 q 751 1357 654 1357 l 758 1357 q 951 1315 860 1357 q 1106 1193 1042 1272 q 1385 703 1289 969 q 1481 146 1481 436 l 1481 0 l 1363 0 l 1363 621 l 156 621 l 156 0 m 1481 -235 q 1358 -265 1425 -265 q 1298 -258 1326 -265 q 1249 -233 1269 -250 q 1216 -192 1228 -217 q 1207 -133 1204 -167 q 1247 -56 1211 -89 q 1363 -24 1283 -24 l 1311 58 l 1351 58 l 1426 -74 q 1364 -79 1399 -76 q 1299 -90 1329 -82 q 1248 -110 1269 -97 q 1225 -143 1226 -122 q 1247 -187 1222 -171 q 1314 -204 1272 -204 q 1381 -196 1344 -204 q 1457 -168 1417 -187 l 1481 -235 z "},"":{"ha":1444,"x_min":49,"x_max":1401,"o":"m 49 869 q 87 1060 49 971 q 192 1215 125 1149 q 347 1319 258 1281 q 536 1357 436 1357 l 956 1357 q 1097 1335 1029 1357 q 1223 1272 1165 1313 q 1324 1174 1281 1231 q 1393 1047 1368 1117 q 1386 1007 1400 1025 q 1349 989 1372 989 q 1315 1002 1329 989 q 1300 1036 1300 1015 l 1300 1121 q 1266 1205 1300 1169 q 1182 1240 1232 1240 l 285 1240 q 202 1205 236 1240 q 168 1121 168 1169 l 168 236 q 202 153 168 188 q 285 118 236 118 l 1182 118 q 1265 153 1231 118 q 1300 236 1300 188 l 1300 321 q 1315 354 1300 340 q 1349 368 1329 368 q 1387 347 1372 368 q 1390 304 1401 326 q 1322 179 1365 235 q 1220 83 1278 124 q 1095 22 1163 43 q 956 0 1028 0 l 536 0 q 347 38 436 0 q 192 142 258 76 q 87 297 125 208 q 49 488 49 386 l 49 869 m 863 1625 l 669 1399 l 582 1399 l 722 1625 l 863 1625 z "},"":{"ha":1442,"x_min":47,"x_max":1400,"o":"m 47 869 q 85 1060 47 971 q 190 1215 124 1149 q 346 1319 257 1281 q 535 1357 435 1357 l 956 1357 q 1097 1335 1029 1357 q 1222 1272 1165 1313 q 1323 1174 1279 1231 q 1392 1047 1367 1117 q 1385 1007 1399 1025 q 1347 989 1371 989 q 1313 1002 1328 989 q 1299 1036 1299 1015 l 1299 1121 q 1265 1205 1299 1169 q 1181 1240 1231 1240 l 283 1240 q 201 1205 235 1240 q 167 1121 167 1169 l 167 236 q 201 153 167 188 q 283 118 235 118 l 1181 118 q 1264 153 1229 118 q 1299 236 1299 188 l 1299 321 q 1313 354 1299 340 q 1347 368 1328 368 q 1386 347 1372 368 q 1389 304 1400 326 q 1320 179 1364 235 q 1219 83 1276 124 q 1095 22 1163 43 q 956 0 1028 0 l 535 0 q 346 38 435 0 q 190 142 257 76 q 85 297 124 208 q 47 488 47 386 l 47 869 m 861 1625 l 668 1399 l 581 1399 l 721 1625 l 861 1625 z "},"":{"ha":1444,"x_min":49,"x_max":1401,"o":"m 49 869 q 87 1060 49 971 q 192 1215 125 1149 q 347 1319 258 1281 q 536 1357 436 1357 l 956 1357 q 1097 1335 1029 1357 q 1223 1272 1165 1313 q 1324 1174 1281 1231 q 1393 1047 1368 1117 q 1386 1007 1400 1025 q 1349 989 1372 989 q 1315 1002 1329 989 q 1300 1036 1300 1015 l 1300 1121 q 1266 1205 1300 1169 q 1182 1240 1232 1240 l 285 1240 q 202 1205 236 1240 q 168 1121 168 1169 l 168 236 q 202 153 168 188 q 285 118 236 118 l 1182 118 q 1265 153 1231 118 q 1300 236 1300 188 l 1300 321 q 1315 354 1300 340 q 1349 368 1329 368 q 1387 347 1372 368 q 1390 304 1401 326 q 1322 179 1365 235 q 1220 83 1278 124 q 1095 22 1163 43 q 956 0 1028 0 l 536 0 q 347 38 436 0 q 192 142 258 76 q 87 297 125 208 q 49 488 49 386 l 49 869 m 503 1624 l 606 1624 l 693 1429 q 721 1411 699 1411 q 739 1417 729 1411 q 750 1431 743 1419 l 832 1624 l 940 1624 l 825 1453 q 779 1411 807 1425 q 719 1397 751 1397 q 660 1412 688 1397 q 615 1454 632 1426 l 503 1624 z "},"":{"ha":1442,"x_min":47,"x_max":1400,"o":"m 47 869 q 85 1060 47 971 q 190 1215 124 1149 q 346 1319 257 1281 q 535 1357 435 1357 l 956 1357 q 1097 1335 1029 1357 q 1222 1272 1165 1313 q 1323 1174 1279 1231 q 1392 1047 1367 1117 q 1385 1007 1399 1025 q 1347 989 1371 989 q 1313 1002 1328 989 q 1299 1036 1299 1015 l 1299 1121 q 1265 1205 1299 1169 q 1181 1240 1231 1240 l 283 1240 q 201 1205 235 1240 q 167 1121 167 1169 l 167 236 q 201 153 167 188 q 283 118 235 118 l 1181 118 q 1264 153 1229 118 q 1299 236 1299 188 l 1299 321 q 1313 354 1299 340 q 1347 368 1328 368 q 1386 347 1372 368 q 1389 304 1400 326 q 1320 179 1364 235 q 1219 83 1276 124 q 1095 22 1163 43 q 956 0 1028 0 l 535 0 q 346 38 435 0 q 190 142 257 76 q 85 297 124 208 q 47 488 47 386 l 47 869 m 501 1624 l 604 1624 l 692 1429 q 719 1411 697 1411 q 738 1417 728 1411 q 749 1431 742 1419 l 831 1624 l 939 1624 l 824 1453 q 778 1411 806 1425 q 718 1397 750 1397 q 658 1412 686 1397 q 614 1454 631 1426 l 501 1624 z "},"":{"ha":1476,"x_min":58,"x_max":1426,"o":"m 939 1357 q 1128 1319 1039 1357 q 1283 1215 1217 1281 q 1388 1060 1350 1149 q 1426 869 1426 971 l 1426 488 q 1388 297 1426 386 q 1283 142 1350 208 q 1128 38 1217 76 q 939 0 1039 0 l 58 0 l 58 1357 l 939 1357 m 1190 118 q 1273 153 1239 118 q 1307 236 1307 188 l 1307 1121 q 1273 1205 1307 1169 q 1190 1240 1239 1240 l 176 1240 l 176 118 l 1190 118 m 519 1624 l 622 1624 l 710 1429 q 738 1411 715 1411 q 756 1417 746 1411 q 767 1431 760 1419 l 849 1624 l 957 1624 l 842 1453 q 796 1411 824 1425 q 736 1397 768 1397 q 676 1412 704 1397 q 632 1454 649 1426 l 519 1624 z "},"":{"ha":1636,"x_min":56,"x_max":1622,"o":"m 936 1357 q 1126 1319 1038 1357 q 1281 1215 1215 1281 q 1385 1060 1347 1149 q 1424 869 1424 971 l 1424 488 q 1385 297 1424 386 q 1281 142 1347 208 q 1126 38 1215 76 q 936 0 1038 0 l 56 0 l 56 1357 l 936 1357 m 1188 118 q 1271 153 1236 118 q 1306 236 1306 188 l 1306 1121 q 1272 1205 1306 1169 q 1188 1240 1238 1240 l 174 1240 l 174 118 l 1188 118 m 1503 1106 q 1486 1130 1489 1115 q 1492 1158 1483 1144 l 1547 1238 l 1547 1324 q 1558 1351 1547 1339 q 1585 1363 1569 1363 q 1611 1351 1600 1363 q 1622 1324 1622 1339 l 1622 1225 q 1615 1203 1622 1214 l 1554 1115 q 1524 1100 1543 1100 q 1503 1106 1508 1100 z "},"":{"ha":1476,"x_min":4,"x_max":1426,"o":"m 939 1357 q 1128 1319 1039 1357 q 1283 1215 1217 1281 q 1388 1060 1350 1149 q 1426 869 1426 971 l 1426 488 q 1388 297 1426 386 q 1283 142 1350 208 q 1128 38 1217 76 q 939 0 1039 0 l 58 0 l 58 1357 l 939 1357 m 1190 118 q 1273 153 1239 118 q 1307 236 1307 188 l 1307 1121 q 1273 1205 1307 1169 q 1190 1240 1239 1240 l 176 1240 l 176 118 l 1190 118 m 4 657 l 4 772 l 472 772 l 472 657 l 4 657 z "},"":{"ha":1471,"x_min":3,"x_max":1424,"o":"m 936 1357 q 1126 1319 1038 1357 q 1281 1215 1215 1281 q 1385 1060 1347 1149 q 1424 869 1424 971 l 1424 488 q 1385 297 1424 386 q 1281 142 1347 208 q 1126 38 1215 76 q 936 0 1038 0 l 56 0 l 56 1357 l 936 1357 m 1188 118 q 1271 153 1236 118 q 1306 236 1306 188 l 1306 1121 q 1272 1205 1306 1169 q 1188 1240 1238 1240 l 174 1240 l 174 118 l 1188 118 m 3 640 l 3 756 l 471 756 l 471 640 l 3 640 z "},"":{"ha":1428,"x_min":50,"x_max":1418,"o":"m 538 0 q 347 38 436 0 q 192 142 258 76 q 88 297 126 208 q 50 488 50 386 l 50 869 q 88 1060 50 971 q 192 1215 126 1149 q 347 1319 258 1281 q 538 1357 436 1357 l 1418 1357 l 1418 1240 l 286 1240 q 202 1205 236 1240 q 168 1121 168 1169 l 168 739 l 1181 739 l 1181 621 l 168 621 l 168 236 q 203 153 168 188 q 286 118 238 118 l 1418 118 l 1418 0 l 538 0 m 1418 -235 q 1296 -265 1363 -265 q 1235 -258 1264 -265 q 1186 -233 1207 -250 q 1153 -192 1165 -217 q 1144 -133 1142 -167 q 1185 -56 1149 -89 q 1300 -24 1221 -24 l 1249 58 l 1289 58 l 1364 -74 q 1301 -79 1336 -76 q 1237 -90 1267 -82 q 1185 -110 1207 -97 q 1163 -143 1164 -122 q 1185 -187 1160 -171 q 1251 -204 1210 -204 q 1318 -196 1282 -204 q 1394 -168 1354 -187 l 1418 -235 z "},"":{"ha":1425,"x_min":47,"x_max":1415,"o":"m 535 0 q 346 38 435 0 q 190 142 257 76 q 85 297 124 208 q 47 488 47 386 l 47 869 q 85 1060 47 971 q 190 1215 124 1149 q 346 1319 257 1281 q 535 1357 435 1357 l 1415 1357 l 1415 1240 l 283 1240 q 199 1205 233 1240 q 165 1121 165 1169 l 165 739 l 1179 739 l 1179 621 l 165 621 l 165 236 q 200 153 165 188 q 283 118 235 118 l 1415 118 l 1415 0 l 535 0 m 1415 -235 q 1293 -265 1360 -265 q 1233 -258 1261 -265 q 1183 -233 1204 -250 q 1151 -192 1163 -217 q 1142 -133 1139 -167 q 1182 -56 1146 -89 q 1297 -24 1218 -24 l 1246 58 l 1286 58 l 1361 -74 q 1299 -79 1333 -76 q 1234 -90 1264 -82 q 1183 -110 1204 -97 q 1160 -143 1161 -122 q 1182 -187 1157 -171 q 1249 -204 1207 -204 q 1315 -196 1279 -204 q 1392 -168 1351 -187 l 1415 -235 z "},"":{"ha":1428,"x_min":50,"x_max":1418,"o":"m 538 0 q 347 38 436 0 q 192 142 258 76 q 88 297 126 208 q 50 488 50 386 l 50 869 q 88 1060 50 971 q 192 1215 126 1149 q 347 1319 258 1281 q 538 1357 436 1357 l 1418 1357 l 1418 1240 l 286 1240 q 202 1205 236 1240 q 168 1121 168 1169 l 168 739 l 1181 739 l 1181 621 l 168 621 l 168 236 q 203 153 168 188 q 286 118 238 118 l 1418 118 l 1418 0 l 538 0 m 494 1624 l 597 1624 l 685 1429 q 713 1411 690 1411 q 731 1417 721 1411 q 742 1431 735 1419 l 824 1624 l 932 1624 l 817 1453 q 771 1411 799 1425 q 711 1397 743 1397 q 651 1412 679 1397 q 607 1454 624 1426 l 494 1624 z "},"":{"ha":1425,"x_min":47,"x_max":1415,"o":"m 535 0 q 346 38 435 0 q 190 142 257 76 q 85 297 124 208 q 47 488 47 386 l 47 869 q 85 1060 47 971 q 190 1215 124 1149 q 346 1319 257 1281 q 535 1357 435 1357 l 1415 1357 l 1415 1240 l 283 1240 q 199 1205 233 1240 q 165 1121 165 1169 l 165 739 l 1179 739 l 1179 621 l 165 621 l 165 236 q 200 153 165 188 q 283 118 235 118 l 1415 118 l 1415 0 l 535 0 m 493 1624 l 596 1624 l 683 1429 q 711 1411 689 1411 q 729 1417 719 1411 q 740 1431 733 1419 l 822 1624 l 931 1624 l 815 1453 q 769 1411 797 1425 q 710 1397 742 1397 q 650 1412 678 1397 q 606 1454 622 1426 l 493 1624 z "},"":{"ha":1424,"x_min":54,"x_max":1424,"o":"m 171 1357 l 171 236 q 206 152 171 186 q 290 118 242 118 l 1424 118 l 1424 0 l 542 0 q 351 38 440 0 q 197 142 263 76 q 92 297 131 208 q 54 488 54 386 l 54 1357 l 171 1357 m 851 1625 l 658 1399 l 571 1399 l 711 1625 l 851 1625 z "},"":{"ha":1421,"x_min":51,"x_max":1421,"o":"m 168 1357 l 168 236 q 203 152 168 186 q 288 118 239 118 l 1421 118 l 1421 0 l 539 0 q 349 38 438 0 q 194 142 260 76 q 90 297 128 208 q 51 488 51 386 l 51 1357 l 168 1357 m 850 1625 l 657 1399 l 569 1399 l 710 1625 l 850 1625 z "},"":{"ha":1424,"x_min":54,"x_max":1424,"o":"m 171 1357 l 171 236 q 206 152 171 186 q 290 118 242 118 l 1424 118 l 1424 0 l 542 0 q 351 38 440 0 q 197 142 263 76 q 92 297 131 208 q 54 488 54 386 l 54 1357 l 171 1357 m 663 1106 q 646 1130 649 1115 q 651 1158 643 1144 l 707 1238 l 707 1324 q 718 1351 707 1339 q 744 1363 729 1363 q 771 1351 760 1363 q 782 1324 782 1339 l 782 1225 q 775 1203 782 1214 l 714 1115 q 683 1100 703 1100 q 663 1106 668 1100 z "},"":{"ha":1586,"x_min":51,"x_max":1572,"o":"m 168 1357 l 168 236 q 203 152 168 186 q 288 118 239 118 l 1421 118 l 1421 0 l 539 0 q 349 38 438 0 q 194 142 260 76 q 90 297 128 208 q 51 488 51 386 l 51 1357 l 168 1357 m 1453 1106 q 1436 1130 1439 1115 q 1442 1158 1433 1144 l 1497 1238 l 1497 1324 q 1508 1351 1497 1339 q 1535 1363 1519 1363 q 1561 1351 1550 1363 q 1572 1324 1572 1339 l 1572 1225 q 1565 1203 1572 1214 l 1504 1115 q 1474 1100 1493 1100 q 1453 1106 1458 1100 z "},"":{"ha":1424,"x_min":54,"x_max":1424,"o":"m 171 1357 l 171 236 q 206 152 171 186 q 290 118 242 118 l 1424 118 l 1424 0 l 542 0 q 351 38 440 0 q 197 142 263 76 q 92 297 131 208 q 54 488 54 386 l 54 1357 l 171 1357 m 478 540 l 478 656 l 946 656 l 946 540 l 478 540 z "},"":{"ha":1421,"x_min":51,"x_max":1421,"o":"m 168 1357 l 168 236 q 203 152 168 186 q 288 118 239 118 l 1421 118 l 1421 0 l 539 0 q 349 38 438 0 q 194 142 260 76 q 90 297 128 208 q 51 488 51 386 l 51 1357 l 168 1357 m 476 540 l 476 656 l 944 656 l 944 540 l 476 540 z "},"":{"ha":1483,"x_min":57,"x_max":1426,"o":"m 57 0 l 57 1081 q 78 1189 57 1139 q 138 1276 100 1239 q 225 1335 175 1314 q 332 1357 275 1357 q 479 1314 413 1357 q 578 1196 546 1271 q 656 1019 613 1117 q 746 817 699 922 q 841 604 793 711 q 933 399 889 497 q 1015 220 978 301 q 1076 85 1051 139 q 1120 34 1090 53 q 1185 15 1150 15 l 1189 15 q 1274 50 1239 15 q 1308 135 1308 85 l 1308 1357 l 1426 1357 l 1426 265 q 1406 162 1426 210 q 1349 78 1385 114 q 1265 21 1314 42 q 1163 0 1217 0 l 1156 0 q 1012 42 1076 0 q 915 156 947 85 q 842 322 883 228 q 753 519 800 415 q 657 732 706 624 q 564 940 608 840 q 481 1125 519 1040 q 418 1267 443 1210 q 371 1320 401 1300 q 303 1340 340 1340 q 252 1330 275 1340 q 212 1302 229 1319 q 185 1261 194 1285 q 175 1211 175 1238 l 175 0 l 57 0 m 882 1625 l 689 1399 l 601 1399 l 742 1625 l 882 1625 z "},"":{"ha":1479,"x_min":56,"x_max":1424,"o":"m 56 0 l 56 1081 q 77 1189 56 1139 q 135 1276 99 1239 q 222 1335 172 1314 q 331 1357 272 1357 q 476 1314 410 1357 q 575 1196 543 1271 q 633 1066 601 1136 q 699 919 664 996 q 769 763 733 843 q 842 604 806 683 q 910 449 876 525 q 974 306 944 374 q 1029 182 1004 239 q 1074 85 1054 125 q 1118 34 1089 53 q 1182 15 1147 15 l 1186 15 q 1271 50 1236 15 q 1306 135 1306 85 l 1306 1357 l 1424 1357 l 1424 265 q 1403 162 1424 210 q 1347 78 1382 114 q 1263 21 1311 42 q 1160 0 1214 0 l 1154 0 q 1010 42 1075 0 q 913 156 944 85 q 839 322 881 228 q 750 519 797 415 q 654 732 703 624 q 561 940 606 840 q 478 1125 517 1040 q 415 1267 440 1210 q 368 1320 399 1300 q 300 1340 338 1340 q 249 1330 272 1340 q 209 1302 226 1319 q 182 1261 192 1285 q 172 1211 172 1238 l 172 0 l 56 0 m 879 1625 l 686 1399 l 599 1399 l 739 1625 l 879 1625 z "},"":{"ha":1483,"x_min":57,"x_max":1426,"o":"m 57 0 l 57 1081 q 78 1189 57 1139 q 138 1276 100 1239 q 225 1335 175 1314 q 332 1357 275 1357 q 479 1314 413 1357 q 578 1196 546 1271 q 656 1019 613 1117 q 746 817 699 922 q 841 604 793 711 q 933 399 889 497 q 1015 220 978 301 q 1076 85 1051 139 q 1120 34 1090 53 q 1185 15 1150 15 l 1189 15 q 1274 50 1239 15 q 1308 135 1308 85 l 1308 1357 l 1426 1357 l 1426 265 q 1406 162 1426 210 q 1349 78 1385 114 q 1265 21 1314 42 q 1163 0 1217 0 l 1156 0 q 1012 42 1076 0 q 915 156 947 85 q 842 322 883 228 q 753 519 800 415 q 657 732 706 624 q 564 940 608 840 q 481 1125 519 1040 q 418 1267 443 1210 q 371 1320 401 1300 q 303 1340 340 1340 q 252 1330 275 1340 q 212 1302 229 1319 q 185 1261 194 1285 q 175 1211 175 1238 l 175 0 l 57 0 m 522 1624 l 625 1624 l 713 1429 q 740 1411 718 1411 q 758 1417 749 1411 q 769 1431 763 1419 l 851 1624 l 960 1624 l 844 1453 q 799 1411 826 1425 q 739 1397 771 1397 q 679 1412 707 1397 q 635 1454 651 1426 l 522 1624 z "},"":{"ha":1479,"x_min":56,"x_max":1424,"o":"m 56 0 l 56 1081 q 77 1189 56 1139 q 135 1276 99 1239 q 222 1335 172 1314 q 331 1357 272 1357 q 476 1314 410 1357 q 575 1196 543 1271 q 633 1066 601 1136 q 699 919 664 996 q 769 763 733 843 q 842 604 806 683 q 910 449 876 525 q 974 306 944 374 q 1029 182 1004 239 q 1074 85 1054 125 q 1118 34 1089 53 q 1182 15 1147 15 l 1186 15 q 1271 50 1236 15 q 1306 135 1306 85 l 1306 1357 l 1424 1357 l 1424 265 q 1403 162 1424 210 q 1347 78 1382 114 q 1263 21 1311 42 q 1160 0 1214 0 l 1154 0 q 1010 42 1075 0 q 913 156 944 85 q 839 322 881 228 q 750 519 797 415 q 654 732 703 624 q 561 940 606 840 q 478 1125 517 1040 q 415 1267 440 1210 q 368 1320 399 1300 q 300 1340 338 1340 q 249 1330 272 1340 q 209 1302 226 1319 q 182 1261 192 1285 q 172 1211 172 1238 l 172 0 l 56 0 m 521 1624 l 624 1624 l 711 1429 q 739 1411 717 1411 q 757 1417 747 1411 q 768 1431 761 1419 l 850 1624 l 958 1624 l 843 1453 q 797 1411 825 1425 q 738 1397 769 1397 q 678 1412 706 1397 q 633 1454 650 1426 l 521 1624 z "},"":{"ha":1543,"x_min":50,"x_max":1493,"o":"m 538 0 q 347 38 436 0 q 192 142 258 76 q 88 297 126 208 q 50 488 50 386 l 50 869 q 88 1060 50 971 q 192 1215 126 1149 q 347 1319 258 1281 q 538 1357 436 1357 l 1006 1357 q 1196 1319 1107 1357 q 1351 1215 1285 1281 q 1455 1060 1417 1149 q 1493 869 1493 971 l 1493 488 q 1455 297 1493 386 q 1351 142 1417 208 q 1196 38 1285 76 q 1006 0 1107 0 l 538 0 m 286 1240 q 202 1205 236 1240 q 168 1121 168 1169 l 168 236 q 203 153 168 188 q 286 118 238 118 l 1256 118 q 1340 153 1306 118 q 1375 236 1375 188 l 1375 1121 q 1366 1167 1375 1146 q 1340 1205 1357 1189 q 1302 1231 1324 1221 q 1256 1240 1281 1240 l 286 1240 m 719 1625 l 526 1399 l 426 1399 l 567 1625 l 719 1625 m 1117 1625 l 924 1399 l 824 1399 l 964 1625 l 1117 1625 z "},"":{"ha":1538,"x_min":47,"x_max":1490,"o":"m 535 0 q 346 38 435 0 q 190 142 257 76 q 85 297 124 208 q 47 488 47 386 l 47 869 q 85 1060 47 971 q 190 1215 124 1149 q 346 1319 257 1281 q 535 1357 435 1357 l 1003 1357 q 1193 1319 1104 1357 q 1348 1215 1282 1281 q 1452 1060 1414 1149 q 1490 869 1490 971 l 1490 488 q 1452 297 1490 386 q 1348 142 1414 208 q 1193 38 1282 76 q 1003 0 1104 0 l 535 0 m 283 1240 q 199 1205 233 1240 q 165 1121 165 1169 l 165 236 q 200 153 165 188 q 283 118 235 118 l 1254 118 q 1338 153 1303 118 q 1372 236 1372 188 l 1372 1121 q 1338 1205 1372 1169 q 1254 1240 1304 1240 l 283 1240 m 717 1625 l 524 1399 l 424 1399 l 564 1625 l 717 1625 m 1114 1625 l 921 1399 l 821 1399 l 961 1625 l 1114 1625 z "},"":{"ha":2957,"x_min":50,"x_max":2947,"o":"m 538 0 q 347 38 436 0 q 192 142 258 76 q 88 297 126 208 q 50 488 50 386 l 50 869 q 88 1060 50 971 q 192 1215 126 1149 q 347 1319 258 1281 q 538 1357 436 1357 l 1006 1357 q 1196 1319 1107 1357 q 1351 1215 1285 1281 q 1455 1060 1417 1149 q 1493 869 1493 971 l 1493 488 q 1455 297 1493 386 q 1351 142 1417 208 q 1196 38 1285 76 q 1006 0 1107 0 l 538 0 m 286 1240 q 202 1205 236 1240 q 168 1121 168 1169 l 168 236 q 203 153 168 188 q 286 118 238 118 l 1256 118 q 1340 153 1306 118 q 1375 236 1375 188 l 1375 1121 q 1366 1167 1375 1146 q 1340 1205 1357 1189 q 1302 1231 1324 1221 q 1256 1240 1281 1240 l 286 1240 m 2067 0 q 1876 38 1965 0 q 1722 142 1788 76 q 1617 297 1656 208 q 1579 488 1579 386 l 1579 869 q 1617 1060 1579 971 q 1722 1215 1656 1149 q 1876 1319 1788 1281 q 2067 1357 1965 1357 l 2947 1357 l 2947 1240 l 1815 1240 q 1731 1205 1765 1240 q 1697 1121 1697 1169 l 1697 739 l 2710 739 l 2710 621 l 1697 621 l 1697 236 q 1732 153 1697 188 q 1815 118 1767 118 l 2947 118 l 2947 0 l 2067 0 z "},"":{"ha":2963,"x_min":47,"x_max":2953,"o":"m 535 0 q 346 38 435 0 q 190 142 257 76 q 85 297 124 208 q 47 488 47 386 l 47 869 q 85 1060 47 971 q 190 1215 124 1149 q 346 1319 257 1281 q 535 1357 435 1357 l 1003 1357 q 1193 1319 1104 1357 q 1348 1215 1282 1281 q 1452 1060 1414 1149 q 1490 869 1490 971 l 1490 488 q 1452 297 1490 386 q 1348 142 1414 208 q 1193 38 1282 76 q 1003 0 1104 0 l 535 0 m 283 1240 q 199 1205 233 1240 q 165 1121 165 1169 l 165 236 q 200 153 165 188 q 283 118 235 118 l 1254 118 q 1338 153 1303 118 q 1372 236 1372 188 l 1372 1121 q 1338 1205 1372 1169 q 1254 1240 1304 1240 l 283 1240 m 2072 0 q 1883 38 1972 0 q 1728 142 1794 76 q 1623 297 1661 208 q 1585 488 1585 386 l 1585 869 q 1623 1060 1585 971 q 1728 1215 1661 1149 q 1883 1319 1794 1281 q 2072 1357 1972 1357 l 2953 1357 l 2953 1240 l 1821 1240 q 1737 1205 1771 1240 q 1703 1121 1703 1169 l 1703 739 l 2717 739 l 2717 621 l 1703 621 l 1703 236 q 1738 153 1703 188 q 1821 118 1772 118 l 2953 118 l 2953 0 l 2072 0 z "},"":{"ha":1483,"x_min":54,"x_max":1424,"o":"m 171 739 l 1185 739 q 1268 774 1233 739 q 1303 857 1303 808 l 1303 1121 q 1269 1205 1303 1169 q 1185 1240 1235 1240 l 290 1240 q 244 1231 265 1240 q 206 1205 222 1221 q 181 1167 190 1189 q 171 1121 171 1146 l 171 739 m 171 0 l 54 0 l 54 869 q 92 1060 54 971 q 197 1215 131 1149 q 351 1319 263 1281 q 542 1357 440 1357 l 1146 1357 q 1249 1337 1201 1357 q 1333 1283 1297 1317 q 1392 1202 1369 1249 q 1419 1103 1415 1156 q 1405 972 1424 1035 q 1351 855 1386 910 q 1269 756 1317 800 q 1167 681 1221 711 q 1264 610 1218 651 q 1344 519 1310 569 q 1399 410 1378 468 q 1421 289 1419 351 l 1421 0 l 1303 0 l 1303 504 q 1269 587 1303 553 q 1185 621 1235 621 l 171 621 l 171 0 m 882 1625 l 689 1399 l 601 1399 l 742 1625 l 882 1625 z "},"":{"ha":1479,"x_min":51,"x_max":1422,"o":"m 168 739 l 1182 739 q 1265 774 1231 739 q 1300 857 1300 808 l 1300 1121 q 1266 1205 1300 1169 q 1182 1240 1232 1240 l 288 1240 q 241 1231 263 1240 q 203 1205 219 1221 q 178 1167 188 1189 q 168 1121 168 1146 l 168 739 m 168 0 l 51 0 l 51 869 q 90 1060 51 971 q 194 1215 128 1149 q 349 1319 260 1281 q 539 1357 438 1357 l 1143 1357 q 1246 1337 1197 1357 q 1331 1283 1294 1317 q 1391 1202 1368 1249 q 1418 1103 1414 1156 q 1403 973 1422 1036 q 1349 855 1385 910 q 1266 756 1314 800 q 1164 681 1218 711 q 1261 610 1215 651 q 1342 519 1307 569 q 1397 410 1376 468 q 1418 289 1418 351 l 1418 0 l 1300 0 l 1300 504 q 1266 587 1300 553 q 1182 621 1232 621 l 168 621 l 168 0 m 879 1625 l 686 1399 l 599 1399 l 739 1625 l 879 1625 z "},"":{"ha":1483,"x_min":54,"x_max":1424,"o":"m 171 739 l 1185 739 q 1268 774 1233 739 q 1303 857 1303 808 l 1303 1121 q 1269 1205 1303 1169 q 1185 1240 1235 1240 l 290 1240 q 244 1231 265 1240 q 206 1205 222 1221 q 181 1167 190 1189 q 171 1121 171 1146 l 171 739 m 171 0 l 54 0 l 54 869 q 92 1060 54 971 q 197 1215 131 1149 q 351 1319 263 1281 q 542 1357 440 1357 l 1146 1357 q 1249 1337 1201 1357 q 1333 1283 1297 1317 q 1392 1202 1369 1249 q 1419 1103 1415 1156 q 1405 972 1424 1035 q 1351 855 1386 910 q 1269 756 1317 800 q 1167 681 1221 711 q 1264 610 1218 651 q 1344 519 1310 569 q 1399 410 1378 468 q 1421 289 1419 351 l 1421 0 l 1303 0 l 1303 504 q 1269 587 1303 553 q 1185 621 1235 621 l 171 621 l 171 0 m 522 1624 l 625 1624 l 713 1429 q 740 1411 718 1411 q 758 1417 749 1411 q 769 1431 763 1419 l 851 1624 l 960 1624 l 844 1453 q 799 1411 826 1425 q 739 1397 771 1397 q 679 1412 707 1397 q 635 1454 651 1426 l 522 1624 z "},"":{"ha":1479,"x_min":51,"x_max":1422,"o":"m 168 739 l 1182 739 q 1265 774 1231 739 q 1300 857 1300 808 l 1300 1121 q 1266 1205 1300 1169 q 1182 1240 1232 1240 l 288 1240 q 241 1231 263 1240 q 203 1205 219 1221 q 178 1167 188 1189 q 168 1121 168 1146 l 168 739 m 168 0 l 51 0 l 51 869 q 90 1060 51 971 q 194 1215 128 1149 q 349 1319 260 1281 q 539 1357 438 1357 l 1143 1357 q 1246 1337 1197 1357 q 1331 1283 1294 1317 q 1391 1202 1368 1249 q 1418 1103 1414 1156 q 1403 973 1422 1036 q 1349 855 1385 910 q 1266 756 1314 800 q 1164 681 1218 711 q 1261 610 1215 651 q 1342 519 1307 569 q 1397 410 1376 468 q 1418 289 1418 351 l 1418 0 l 1300 0 l 1300 504 q 1266 587 1300 553 q 1182 621 1232 621 l 168 621 l 168 0 m 521 1624 l 624 1624 l 711 1429 q 739 1411 717 1411 q 757 1417 747 1411 q 768 1431 761 1419 l 850 1624 l 958 1624 l 843 1453 q 797 1411 825 1425 q 738 1397 769 1397 q 678 1412 706 1397 q 633 1454 650 1426 l 521 1624 z "},"":{"ha":1468,"x_min":49,"x_max":1422,"o":"m 56 310 q 62 350 49 332 q 99 368 75 368 q 133 355 118 368 q 146 321 147 342 l 146 236 q 181 152 146 186 q 265 118 217 118 l 1186 118 q 1269 153 1235 118 q 1304 236 1304 188 l 1304 621 l 53 621 l 53 869 q 91 1060 53 971 q 195 1215 129 1149 q 350 1319 261 1281 q 540 1357 439 1357 l 960 1357 q 1101 1335 1033 1357 q 1226 1272 1169 1313 q 1327 1174 1283 1231 q 1396 1047 1371 1117 q 1389 1007 1403 1025 q 1353 989 1375 989 q 1319 1002 1333 989 q 1304 1036 1304 1015 l 1304 1121 q 1270 1205 1304 1169 q 1186 1240 1236 1240 l 289 1240 q 205 1205 239 1240 q 171 1121 171 1169 l 171 739 l 1422 739 l 1422 488 q 1384 297 1422 386 q 1280 142 1346 208 q 1125 38 1214 76 q 935 0 1036 0 l 492 0 q 349 22 418 0 q 223 85 281 44 q 122 183 165 126 q 56 310 79 240 m 874 1625 l 681 1399 l 593 1399 l 733 1625 l 874 1625 z "},"":{"ha":1464,"x_min":46,"x_max":1419,"o":"m 53 310 q 59 350 46 332 q 96 368 72 368 q 130 355 115 368 q 143 321 144 342 l 143 236 q 178 152 143 186 q 263 118 214 118 l 1183 118 q 1267 153 1232 118 q 1301 236 1301 188 l 1301 621 l 50 621 l 50 869 q 88 1060 50 971 q 192 1215 126 1149 q 347 1319 258 1281 q 538 1357 436 1357 l 957 1357 q 1099 1335 1031 1357 q 1225 1272 1168 1313 q 1326 1174 1282 1231 q 1393 1047 1369 1117 q 1387 1007 1400 1025 q 1350 989 1374 989 q 1316 1002 1331 989 q 1301 1036 1301 1015 l 1301 1121 q 1267 1205 1301 1169 q 1183 1240 1233 1240 l 286 1240 q 202 1205 236 1240 q 168 1121 168 1169 l 168 739 l 1419 739 l 1419 488 q 1381 297 1419 386 q 1277 142 1343 208 q 1122 38 1211 76 q 932 0 1033 0 l 489 0 q 347 22 415 0 q 222 85 279 44 q 120 183 164 126 q 53 310 76 240 m 872 1625 l 679 1399 l 592 1399 l 732 1625 l 872 1625 z "},"":{"ha":1468,"x_min":49,"x_max":1422,"o":"m 56 310 q 62 350 49 332 q 99 368 75 368 q 133 355 118 368 q 146 321 147 342 l 146 236 q 181 152 146 186 q 265 118 217 118 l 1186 118 q 1269 153 1235 118 q 1304 236 1304 188 l 1304 621 l 53 621 l 53 869 q 91 1060 53 971 q 195 1215 129 1149 q 350 1319 261 1281 q 540 1357 439 1357 l 960 1357 q 1101 1335 1033 1357 q 1226 1272 1169 1313 q 1327 1174 1283 1231 q 1396 1047 1371 1117 q 1389 1007 1403 1025 q 1353 989 1375 989 q 1319 1002 1333 989 q 1304 1036 1304 1015 l 1304 1121 q 1270 1205 1304 1169 q 1186 1240 1236 1240 l 289 1240 q 205 1205 239 1240 q 171 1121 171 1169 l 171 739 l 1422 739 l 1422 488 q 1384 297 1422 386 q 1280 142 1346 208 q 1125 38 1214 76 q 935 0 1036 0 l 492 0 q 349 22 418 0 q 223 85 281 44 q 122 183 165 126 q 56 310 79 240 m 617 -168 q 693 -196 657 -187 q 760 -204 729 -204 q 826 -187 801 -204 q 849 -143 851 -171 q 826 -110 847 -122 q 774 -90 804 -97 q 710 -79 744 -82 q 647 -74 675 -76 l 722 58 l 763 58 l 711 -24 q 826 -56 790 -24 q 867 -133 863 -89 q 858 -192 869 -167 q 825 -233 846 -217 q 775 -258 804 -250 q 715 -265 746 -265 q 593 -235 649 -265 l 617 -168 z "},"":{"ha":1464,"x_min":46,"x_max":1419,"o":"m 53 310 q 59 350 46 332 q 96 368 72 368 q 130 355 115 368 q 143 321 144 342 l 143 236 q 178 152 143 186 q 263 118 214 118 l 1183 118 q 1267 153 1232 118 q 1301 236 1301 188 l 1301 621 l 50 621 l 50 869 q 88 1060 50 971 q 192 1215 126 1149 q 347 1319 258 1281 q 538 1357 436 1357 l 957 1357 q 1099 1335 1031 1357 q 1225 1272 1168 1313 q 1326 1174 1282 1231 q 1393 1047 1369 1117 q 1387 1007 1400 1025 q 1350 989 1374 989 q 1316 1002 1331 989 q 1301 1036 1301 1015 l 1301 1121 q 1267 1205 1301 1169 q 1183 1240 1233 1240 l 286 1240 q 202 1205 236 1240 q 168 1121 168 1169 l 168 739 l 1419 739 l 1419 488 q 1381 297 1419 386 q 1277 142 1343 208 q 1122 38 1211 76 q 932 0 1033 0 l 489 0 q 347 22 415 0 q 222 85 279 44 q 120 183 164 126 q 53 310 76 240 m 615 -168 q 692 -196 656 -187 q 758 -204 728 -204 q 825 -187 800 -204 q 847 -143 850 -171 q 824 -110 846 -122 q 773 -90 803 -97 q 708 -79 743 -82 q 646 -74 674 -76 l 721 58 l 761 58 l 710 -24 q 825 -56 789 -24 q 865 -133 861 -89 q 856 -192 868 -167 q 824 -233 844 -217 q 774 -258 803 -250 q 714 -265 744 -265 q 592 -235 647 -265 l 615 -168 z "},"":{"ha":1468,"x_min":49,"x_max":1422,"o":"m 56 310 q 62 350 49 332 q 99 368 75 368 q 133 355 118 368 q 146 321 147 342 l 146 236 q 181 152 146 186 q 265 118 217 118 l 1186 118 q 1269 153 1235 118 q 1304 236 1304 188 l 1304 621 l 53 621 l 53 869 q 91 1060 53 971 q 195 1215 129 1149 q 350 1319 261 1281 q 540 1357 439 1357 l 960 1357 q 1101 1335 1033 1357 q 1226 1272 1169 1313 q 1327 1174 1283 1231 q 1396 1047 1371 1117 q 1389 1007 1403 1025 q 1353 989 1375 989 q 1319 1002 1333 989 q 1304 1036 1304 1015 l 1304 1121 q 1270 1205 1304 1169 q 1186 1240 1236 1240 l 289 1240 q 205 1205 239 1240 q 171 1121 171 1169 l 171 739 l 1422 739 l 1422 488 q 1384 297 1422 386 q 1280 142 1346 208 q 1125 38 1214 76 q 935 0 1036 0 l 492 0 q 349 22 418 0 q 223 85 281 44 q 122 183 165 126 q 56 310 79 240 m 515 1624 l 618 1624 l 706 1429 q 733 1411 711 1411 q 751 1417 742 1411 q 763 1431 756 1419 l 844 1624 l 953 1624 l 838 1453 q 792 1411 819 1425 q 732 1397 764 1397 q 672 1412 700 1397 q 628 1454 644 1426 l 515 1624 z "},"":{"ha":1464,"x_min":46,"x_max":1419,"o":"m 53 310 q 59 350 46 332 q 96 368 72 368 q 130 355 115 368 q 143 321 144 342 l 143 236 q 178 152 143 186 q 263 118 214 118 l 1183 118 q 1267 153 1232 118 q 1301 236 1301 188 l 1301 621 l 50 621 l 50 869 q 88 1060 50 971 q 192 1215 126 1149 q 347 1319 258 1281 q 538 1357 436 1357 l 957 1357 q 1099 1335 1031 1357 q 1225 1272 1168 1313 q 1326 1174 1282 1231 q 1393 1047 1369 1117 q 1387 1007 1400 1025 q 1350 989 1374 989 q 1316 1002 1331 989 q 1301 1036 1301 1015 l 1301 1121 q 1267 1205 1301 1169 q 1183 1240 1233 1240 l 286 1240 q 202 1205 236 1240 q 168 1121 168 1169 l 168 739 l 1419 739 l 1419 488 q 1381 297 1419 386 q 1277 142 1343 208 q 1122 38 1211 76 q 932 0 1033 0 l 489 0 q 347 22 415 0 q 222 85 279 44 q 120 183 164 126 q 53 310 76 240 m 513 1624 l 615 1624 l 703 1429 q 731 1411 708 1411 q 749 1417 739 1411 q 760 1431 753 1419 l 842 1624 l 950 1624 l 835 1453 q 789 1411 817 1425 q 729 1397 761 1397 q 669 1412 697 1397 q 625 1454 642 1426 l 513 1624 z "},"":{"ha":1157,"x_min":0,"x_max":0,"o":""},"":{"ha":1157,"x_min":0,"x_max":0,"o":""},"":{"ha":1392,"x_min":10,"x_max":1381,"o":"m 10 1357 l 278 1357 q 408 1338 346 1357 q 526 1284 471 1318 q 625 1203 581 1250 q 700 1103 669 1157 q 770 1200 729 1154 q 861 1281 811 1246 q 969 1336 911 1315 q 1090 1357 1028 1357 l 1381 1357 l 1381 1240 l 876 1240 q 792 1205 826 1240 q 758 1121 758 1169 l 758 0 l 640 0 l 640 1121 q 606 1205 640 1169 q 522 1240 572 1240 l 10 1240 l 10 1357 m 476 1624 l 579 1624 l 667 1429 q 694 1411 672 1411 q 713 1417 703 1411 q 724 1431 717 1419 l 806 1624 l 914 1624 l 799 1453 q 753 1411 781 1425 q 693 1397 725 1397 q 633 1412 661 1397 q 589 1454 606 1426 l 476 1624 z "},"":{"ha":1556,"x_min":10,"x_max":1542,"o":"m 10 1357 l 278 1357 q 408 1338 346 1357 q 526 1284 471 1318 q 625 1203 581 1250 q 700 1103 669 1157 q 770 1200 729 1154 q 861 1281 811 1246 q 969 1336 911 1315 q 1090 1357 1028 1357 l 1381 1357 l 1381 1240 l 876 1240 q 792 1205 826 1240 q 758 1121 758 1169 l 758 0 l 640 0 l 640 1121 q 606 1205 640 1169 q 522 1240 572 1240 l 10 1240 l 10 1357 m 1422 1106 q 1406 1130 1408 1115 q 1411 1158 1403 1144 l 1467 1238 l 1467 1324 q 1478 1351 1467 1339 q 1504 1363 1489 1363 q 1531 1351 1519 1363 q 1542 1324 1542 1339 l 1542 1225 q 1535 1203 1542 1214 l 1474 1115 q 1443 1100 1463 1100 q 1422 1106 1428 1100 z "},"":{"ha":1551,"x_min":54,"x_max":1496,"o":"m 542 0 q 351 38 440 0 q 197 142 263 76 q 92 297 131 208 q 54 488 54 386 l 54 1357 l 171 1357 l 171 236 q 206 152 171 186 q 290 118 242 118 l 1260 118 q 1344 153 1310 118 q 1379 236 1379 188 l 1379 1357 l 1496 1357 l 1496 488 q 1458 297 1496 386 q 1353 142 1419 208 q 1199 38 1288 76 q 1008 0 1110 0 l 542 0 m 565 1525 q 582 1610 565 1571 q 627 1677 599 1649 q 694 1722 656 1706 q 776 1739 732 1739 q 865 1722 825 1739 q 931 1676 904 1704 q 973 1610 958 1647 q 988 1532 988 1572 q 969 1444 988 1483 q 922 1378 951 1406 q 853 1335 892 1350 q 775 1319 815 1319 q 690 1336 728 1319 q 624 1381 651 1353 q 581 1446 596 1408 q 565 1525 565 1483 m 776 1726 q 722 1710 744 1726 q 683 1667 699 1694 q 659 1603 667 1639 q 651 1525 651 1567 q 688 1385 651 1439 q 776 1331 724 1331 q 826 1345 803 1331 q 865 1386 849 1360 q 892 1449 882 1413 q 901 1531 901 1486 q 894 1603 901 1568 q 872 1666 888 1639 q 833 1710 857 1693 q 776 1726 810 1726 z "},"":{"ha":1547,"x_min":53,"x_max":1494,"o":"m 540 0 q 350 38 439 0 q 195 142 261 76 q 91 297 129 208 q 53 488 53 386 l 53 1357 l 169 1357 l 169 236 q 205 152 169 186 q 289 118 240 118 l 1258 118 q 1343 153 1308 118 q 1378 236 1378 188 l 1378 1357 l 1494 1357 l 1494 488 q 1456 297 1494 386 q 1352 142 1418 208 q 1197 38 1286 76 q 1007 0 1108 0 l 540 0 m 563 1525 q 579 1610 563 1571 q 624 1677 596 1649 q 691 1722 653 1706 q 774 1739 729 1739 q 862 1722 822 1739 q 928 1676 901 1704 q 970 1610 956 1647 q 985 1532 985 1572 q 967 1444 985 1483 q 919 1378 949 1406 q 851 1335 889 1350 q 772 1319 813 1319 q 687 1336 725 1319 q 621 1381 649 1353 q 578 1446 593 1408 q 563 1525 563 1483 m 774 1726 q 719 1710 742 1726 q 680 1667 696 1694 q 656 1603 664 1639 q 649 1525 649 1567 q 685 1385 649 1439 q 774 1331 721 1331 q 823 1345 800 1331 q 863 1386 846 1360 q 889 1449 879 1413 q 899 1531 899 1486 q 892 1603 899 1568 q 869 1666 885 1639 q 831 1710 854 1693 q 774 1726 807 1726 z "},"":{"ha":1551,"x_min":54,"x_max":1496,"o":"m 542 0 q 351 38 440 0 q 197 142 263 76 q 92 297 131 208 q 54 488 54 386 l 54 1357 l 171 1357 l 171 236 q 206 152 171 186 q 290 118 242 118 l 1260 118 q 1344 153 1310 118 q 1379 236 1379 188 l 1379 1357 l 1496 1357 l 1496 488 q 1458 297 1496 386 q 1353 142 1419 208 q 1199 38 1288 76 q 1008 0 1110 0 l 542 0 m 724 1625 l 531 1399 l 431 1399 l 571 1625 l 724 1625 m 1121 1625 l 928 1399 l 828 1399 l 968 1625 l 1121 1625 z "},"":{"ha":1547,"x_min":53,"x_max":1494,"o":"m 540 0 q 350 38 439 0 q 195 142 261 76 q 91 297 129 208 q 53 488 53 386 l 53 1357 l 169 1357 l 169 236 q 205 152 169 186 q 289 118 240 118 l 1258 118 q 1343 153 1308 118 q 1378 236 1378 188 l 1378 1357 l 1494 1357 l 1494 488 q 1456 297 1494 386 q 1352 142 1418 208 q 1197 38 1286 76 q 1007 0 1108 0 l 540 0 m 721 1625 l 528 1399 l 428 1399 l 568 1625 l 721 1625 m 1118 1625 l 925 1399 l 825 1399 l 965 1625 l 1118 1625 z "},"":{"ha":1419,"x_min":25,"x_max":1394,"o":"m 518 621 q 335 654 424 622 q 177 747 246 686 q 67 897 108 808 q 25 1101 25 986 l 25 1357 l 143 1357 l 143 857 q 178 774 143 808 q 261 739 213 739 l 289 739 q 535 670 428 739 q 710 483 643 601 q 781 581 739 535 q 873 663 822 628 q 981 718 924 697 q 1101 739 1039 739 l 1158 739 q 1242 774 1207 739 q 1276 857 1276 808 l 1276 1357 l 1394 1357 l 1394 1101 q 1353 897 1394 986 q 1242 747 1311 808 q 1085 654 1174 686 q 903 621 996 622 l 888 621 q 841 612 863 621 q 803 587 819 603 q 778 550 788 571 q 768 506 768 529 l 768 0 l 651 0 l 651 503 q 616 587 651 553 q 532 621 581 621 l 518 621 m 483 1478 q 508 1534 483 1510 q 565 1558 532 1558 q 620 1535 597 1558 q 643 1478 643 1513 q 622 1420 643 1444 q 565 1396 600 1396 q 506 1420 529 1396 q 483 1478 483 1444 m 858 1396 q 801 1420 822 1396 q 779 1478 779 1444 q 802 1534 779 1510 q 858 1558 825 1558 q 915 1535 893 1558 q 936 1478 936 1513 q 915 1420 936 1444 q 858 1396 894 1396 z "},"":{"ha":1468,"x_min":46,"x_max":1421,"o":"m 129 0 q 70 24 94 0 q 46 82 46 49 q 72 143 46 117 l 1242 1240 l 282 1240 q 237 1231 258 1240 q 199 1205 215 1221 q 174 1167 183 1189 q 164 1121 164 1146 l 164 1036 q 151 1002 165 1015 q 117 989 136 989 q 79 1007 93 989 q 72 1047 65 1025 q 141 1174 97 1117 q 242 1272 185 1231 q 367 1335 299 1313 q 508 1357 435 1357 l 1335 1357 q 1393 1333 1369 1357 q 1417 1276 1417 1310 q 1409 1244 1417 1260 q 1390 1218 1401 1229 l 218 118 l 1204 118 q 1287 152 1253 118 q 1321 236 1321 186 l 1321 321 q 1335 355 1321 342 q 1369 368 1350 368 q 1407 350 1393 368 q 1414 310 1421 332 q 1345 183 1389 240 q 1244 85 1301 126 q 1119 22 1188 44 q 978 0 1051 0 l 129 0 m 874 1625 l 681 1399 l 593 1399 l 733 1625 l 874 1625 z "},"":{"ha":1465,"x_min":43,"x_max":1418,"o":"m 126 0 q 67 24 92 0 q 43 82 43 49 q 51 115 43 100 q 69 143 58 131 l 1239 1240 l 281 1240 q 234 1231 256 1240 q 197 1205 213 1221 q 171 1167 181 1189 q 161 1121 161 1146 l 161 1036 q 148 1002 163 1015 q 114 989 133 989 q 76 1007 90 989 q 69 1047 63 1025 q 138 1174 94 1117 q 239 1272 182 1231 q 364 1335 296 1313 q 506 1357 432 1357 l 1332 1357 q 1390 1333 1367 1357 q 1414 1276 1414 1310 q 1388 1218 1414 1240 l 217 118 l 1201 118 q 1284 153 1250 118 q 1318 236 1318 188 l 1318 321 q 1333 355 1318 342 q 1368 368 1349 368 q 1405 350 1392 368 q 1411 310 1418 332 q 1342 183 1386 240 q 1242 85 1299 126 q 1117 22 1185 44 q 975 0 1049 0 l 126 0 m 872 1625 l 679 1399 l 592 1399 l 732 1625 l 872 1625 z "}}}
